<svg width="24" height="24" viewBox="0 0 24 24" fill="none" xmlns="http://www.w3.org/2000/svg">
<path d="M4.82484 12.9998L9.72484 17.8998C9.92484 18.0998 10.0208 18.3331 10.0128 18.5998C10.0048 18.8665 9.90051 19.0998 9.69984 19.2998C9.49984 19.4831 9.26651 19.5791 8.99984 19.5878C8.73318 19.5965 8.49984 19.5005 8.29984 19.2998L1.69984 12.6998C1.59984 12.5998 1.52884 12.4915 1.48684 12.3748C1.44484 12.2581 1.42451 12.1331 1.42584 11.9998C1.42718 11.8665 1.44818 11.7415 1.48884 11.6248C1.52951 11.5081 1.60018 11.3998 1.70084 11.2998L8.30084 4.6998C8.48418 4.51647 8.71351 4.4248 8.98884 4.4248C9.26418 4.4248 9.50151 4.51647 9.70084 4.6998C9.90084 4.8998 10.0008 5.13747 10.0008 5.4128C10.0008 5.68814 9.90084 5.92547 9.70084 6.1248L4.82484 10.9998H15.9998C16.2832 10.9998 16.5208 11.0958 16.7128 11.2878C16.9048 11.4798 17.0005 11.7171 16.9998 11.9998C16.9992 12.2825 16.9032 12.5201 16.7118 12.7128C16.5205 12.9055 16.2832 13.0011 15.9998 12.9998H4.82484Z" fill="black"/>
</svg>
