<svg width="21" height="21" viewBox="0 0 21 21" fill="none" xmlns="http://www.w3.org/2000/svg">
<g clip-path="url(#clip0_282_7995)">
<path d="M13.5272 1.01479C12.6818 1.01479 12.0054 1.69115 12.0054 2.5366C12.0054 3.38206 12.6818 4.05842 13.5272 4.05842C14.3727 4.05842 15.049 3.38206 15.049 2.5366C15.049 1.69115 14.3727 1.01479 13.5272 1.01479ZM10.4836 3.4666C10.0862 3.4666 9.72268 3.62724 9.46905 3.88933L6.34088 7.00904C6.07879 7.27113 5.91815 7.60931 5.91815 8.03203C5.91815 8.56467 6.19715 9.01276 6.63679 9.27485L9.46905 10.9911V15.2184H10.9909V9.72293L9.08859 8.32794L11.05 6.34113L12.5127 8.45476H16.0636V6.93295H13.3581L11.7179 4.16832C11.4728 3.7456 10.9909 3.4666 10.4836 3.4666ZM8.45451 2.5366H2.53635C2.07135 2.5366 1.6909 2.15615 1.6909 1.69115C1.6909 1.22616 2.07135 0.845703 2.53635 0.845703H10.8133C10.6358 1.13316 10.492 1.44597 10.416 1.78415C9.68886 1.80106 9.00405 2.07161 8.45451 2.5366ZM4.22725 10.1457C1.89381 10.1457 0 12.0395 0 14.3729C0 16.7064 1.89381 18.6002 4.22725 18.6002C6.5607 18.6002 8.45451 16.7064 8.45451 14.3729C8.45451 12.0395 6.5607 10.1457 4.22725 10.1457ZM4.22725 17.332C2.59553 17.332 1.26818 16.0046 1.26818 14.3729C1.26818 12.7412 2.59553 11.4138 4.22725 11.4138C5.85897 11.4138 7.18633 12.7412 7.18633 14.3729C7.18633 16.0046 5.85897 17.332 4.22725 17.332ZM16.0636 10.1457C13.7301 10.1457 11.8363 12.0395 11.8363 14.3729C11.8363 16.7064 13.7301 18.6002 16.0636 18.6002C18.397 18.6002 20.2908 16.7064 20.2908 14.3729C20.2908 12.0395 18.397 10.1457 16.0636 10.1457ZM16.0636 17.332C14.4318 17.332 13.1045 16.0046 13.1045 14.3729C13.1045 12.7412 14.4318 11.4138 16.0636 11.4138C17.6953 11.4138 19.0226 12.7412 19.0226 14.3729C19.0226 16.0046 17.6953 17.332 16.0636 17.332ZM4.4978 9.30021H0.845451C0.378762 9.30021 0 8.91976 0 8.45476C0 7.98976 0.378762 7.60931 0.845451 7.60931H4.26953C4.25262 7.74458 4.22725 7.88831 4.22725 8.03203C4.22725 8.48012 4.32871 8.9113 4.4978 9.30021ZM5.0727 5.91841H1.6909C1.2259 5.91841 0.845451 5.53795 0.845451 5.07296C0.845451 4.60796 1.2259 4.22751 1.6909 4.22751H6.73824L5.14879 5.8085C5.11498 5.84232 5.0727 5.88459 5.0727 5.91841Z" fill="black"/>
</g>
<defs>
<clipPath id="clip0_282_7995">
<rect width="20.2908" height="20.2908" fill="white"/>
</clipPath>
</defs>
</svg>
