<svg width="25" height="22" viewBox="0 0 25 22" fill="none" xmlns="http://www.w3.org/2000/svg">
<path d="M0.00476555 3.58159V18.3598C0.00476555 19.2843 0.567109 20.1374 1.44875 20.4233C5.92844 21.853 9.01656 20.8236 12.0904 19.799C15.0641 18.8078 18.0188 17.8213 22.1983 19.0699C23.2563 19.3844 24.4 18.6505 24.4 17.5449V2.76667C24.4 1.84214 23.8377 0.989089 22.956 0.703152C18.4763 -0.726536 15.3882 0.302839 12.3144 1.32745C9.34062 2.3187 6.38594 3.30518 2.20648 2.05659C1.14852 1.74206 0 2.47596 0 3.58159H0.00476555ZM12.2048 15.9007C9.67899 15.9007 7.62977 13.5132 7.62977 10.5632C7.62977 7.61331 9.67899 5.22573 12.2048 5.22573C14.7305 5.22573 16.7798 7.61331 16.7798 10.5632C16.7798 13.5132 14.7305 15.9007 12.2048 15.9007ZM6.06188 17.6878C6.09523 17.8975 5.92844 18.0739 5.71875 18.0739C4.97055 18.0739 4.18898 17.9881 3.33594 17.7832C3.16914 17.745 3.05 17.5925 3.05 17.4162L3.05477 15.5195C3.05477 15.3098 3.22633 15.1335 3.43602 15.1621C4.77516 15.3289 5.84742 16.363 6.06664 17.6878H6.06188ZM21.3548 15.2621C21.3548 15.5004 21.1355 15.6815 20.902 15.6434C20.1681 15.5242 19.4628 15.4575 18.7861 15.4385C18.5526 15.4337 18.3715 15.224 18.443 15C18.7909 13.8706 19.7773 13.0271 20.9783 12.8746C21.188 12.8507 21.3595 13.0223 21.3595 13.232V15.2621H21.3548ZM20.9735 5.9644C19.6344 5.79761 18.5621 4.76346 18.3429 3.43862C18.3095 3.22893 18.4763 3.0526 18.686 3.0526C19.4342 3.0526 20.2158 3.13839 21.0688 3.34331C21.2356 3.38143 21.3548 3.53393 21.3548 3.71026V5.61175C21.3548 5.82143 21.1832 5.99776 20.9735 5.96917V5.9644ZM5.62344 5.688C5.85695 5.69276 6.03805 5.90245 5.96656 6.12643C5.61867 7.25589 4.63219 8.0994 3.43125 8.2519C3.22156 8.27573 3.05 8.10417 3.05 7.89448V5.86432C3.05 5.62604 3.26922 5.44495 3.50273 5.48307C4.23664 5.60221 4.94195 5.66893 5.61867 5.688H5.62344ZM11.4423 7.32261C10.918 7.32261 10.4891 7.75151 10.4891 8.27573C10.4891 8.738 10.818 9.11925 11.2516 9.20979V11.5164H11.061C10.5368 11.5164 10.1079 11.9453 10.1079 12.4695C10.1079 12.9937 10.5368 13.4226 11.061 13.4226H13.3485C13.8727 13.4226 14.3016 12.9937 14.3016 12.4695C14.3016 11.9453 13.8727 11.5164 13.3485 11.5164H13.1579V8.27573C13.1579 7.75151 12.729 7.32261 12.2048 7.32261H11.4423Z" fill="#699635"/>
</svg>
