<svg width="41" height="52" viewBox="0 0 41 52" fill="none" xmlns="http://www.w3.org/2000/svg">
<g clip-path="url(#clip0_300_10145)">
<path d="M41 0H0V34.9824V36.519V51.6493H41V0Z" fill="#2F2F2F"/>
<path d="M41 0H0V34.9824C0.280312 33.9704 0.434467 32.9793 0.93718 32.0404C1.14517 31.6524 1.43364 31.4352 1.63946 31.0651C1.84418 30.4266 1.61417 29.5291 2.34119 29.1274C2.67234 28.9443 3.20985 28.8344 3.59783 28.7982C3.5111 28.3366 3.30338 27.3286 3.45102 26.9132C3.80011 25.9314 5.2294 26.1499 6.02575 26.1716C6.25277 24.7107 7.04694 24.1676 8.41506 24.0762C8.47623 23.6577 8.53523 23.3561 8.66166 22.9529C8.20027 22.9599 7.54884 23.0392 7.10893 22.9126C6.65733 22.7826 1.33875 19.9258 1.17671 19.7674C1.06334 19.6567 1.01331 19.512 0.961651 19.3634C1.25093 18.1281 1.79742 16.4019 2.18159 15.1955L3.16391 12.0211C3.46379 11.0702 3.76069 10.1169 4.06112 9.16449C4.16525 8.83511 4.02306 8.74378 4.041 8.56759C4.07254 8.25735 4.29195 7.47504 4.47629 7.20919C4.50375 7.1693 4.79711 7.11404 4.86671 7.10853C5.57388 7.05223 6.17202 7.00058 6.89197 6.9681C8.04122 6.91625 9.45175 6.70695 10.5727 6.79301C10.6633 6.79995 11.8188 7.32221 11.9675 7.38801L14.8848 8.67574C15.4928 8.41428 15.7739 8.36438 16.106 7.76892C14.6908 6.01368 14.3496 3.19101 16.2193 1.61747C17.1665 0.820309 18.4 0.391336 19.61 0.508611C20.8175 0.616601 21.9327 1.2341 22.7032 2.22134C22.9877 2.58295 23.1746 2.95084 23.3872 3.36051C23.8889 3.65606 24.9884 4.20733 25.2217 4.70787C24.7525 5.87233 23.4416 5.50533 22.5054 5.50631C22.4728 5.92653 22.3851 6.07675 22.1777 6.44202C22.271 6.87243 22.4661 7.31444 22.58 7.7507C22.338 8.241 22.0154 8.20975 21.8127 8.46676C21.3802 9.01505 21.0486 9.98224 20.3409 10.2478C20.0862 10.3434 19.895 10.2771 19.645 10.1998L19.4144 10.3793C19.5119 10.7058 19.723 11.0388 19.8927 11.334C20.387 12.1934 20.7628 13.1151 21.18 14.0169C21.3629 14.4122 21.6053 14.7829 21.7917 15.1751L21.4301 15.525C21.6755 15.9223 22.2511 17.2057 22.562 17.4195C22.8546 17.6207 23.2555 17.7247 23.5853 17.8482C24.0542 18.0236 24.5338 18.239 25.0213 18.3464C25.1964 18.385 25.347 18.3883 25.5242 18.3716C25.8501 17.6 26.2826 16.8551 26.6216 16.0875C26.6855 15.9428 26.7613 15.7846 26.835 15.646C25.8945 14.8154 26.4951 12.4898 27.1427 11.593C27.3152 11.3541 27.5373 11.2313 27.7985 11.1325C29.2119 11.5195 29.0904 13.7167 28.598 14.8003C28.3694 15.3034 28.0366 15.4832 27.7415 15.9095C27.3379 16.6835 27.01 17.5424 26.5974 18.3181C26.7541 18.3738 27.3404 18.6096 27.4687 18.6258C28.7147 18.783 29.0647 19.2364 29.3099 20.5517C29.5656 20.4469 29.712 20.3814 29.9859 20.5127C30.5387 20.7776 30.5067 21.4294 29.9264 21.639C29.7452 21.7044 29.5408 21.726 29.3562 21.7776C29.1235 22.4935 29.0755 22.9404 28.5124 23.4999C29.0073 23.8339 29.3177 24.3143 29.6711 24.8006C31.2179 26.9287 32.681 29.1759 33.8302 31.5724C34.3764 32.7118 34.6442 33.0742 33.9433 34.2194C33.93 34.2412 33.9164 34.2627 33.9026 34.2843C36.858 35.3738 38.742 37.0842 39.9975 40.1135C40.2133 40.634 39.8151 40.8027 39.425 41.0018C39.248 41.0922 38.9622 41.1992 38.7742 41.2446C39.7184 43.0515 40.0731 44.9762 39.5484 47.0101C39.2845 48.0336 38.6013 49.2006 37.7921 49.8479C38.015 50.0296 38.4971 50.3816 38.2278 50.7306C38.0256 50.9925 37.5525 51.0927 37.2541 51.1558C36.0929 51.4014 34.9232 51.2539 33.7545 51.3148C32.2941 51.3905 30.8181 51.546 29.356 51.5877C28.2613 51.6186 27.167 51.5148 26.0766 51.445C21.0887 51.1753 16.1769 50.041 11.5382 48.0876C10.3851 47.5848 9.24838 47.0417 8.12986 46.4586C6.2003 45.4681 4.15519 44.4107 2.48365 42.9737C2.0829 42.6297 1.33386 41.8793 1.20961 41.337C1.11227 40.9114 1.91161 40.8371 2.17017 40.8302C2.24059 40.809 2.46544 40.7978 2.55543 40.7906L2.57365 40.7554C2.24902 40.683 1.5965 40.5304 1.63646 40.0348C1.66311 39.706 1.8053 39.2584 1.88469 38.9258C2.00024 38.4429 2.10057 37.9204 2.24141 37.4472C1.48448 37.1161 0.755836 36.8951 0 36.519V51.6493H41V0Z" fill="white"/>
<path d="M2.17036 40.8292C2.36176 40.8318 2.71739 40.8437 2.88867 40.8013C2.784 40.7677 2.68313 40.7648 2.57383 40.7549L2.55561 40.7899C2.46562 40.797 2.24077 40.8081 2.17036 40.8292Z" fill="#ABA3A8"/>
<path d="M14.8883 9.08262C14.5552 8.95602 14.1388 8.75605 13.807 8.60942L11.7447 7.69557C11.4429 7.56051 10.6743 7.19377 10.3875 7.13919C10.092 7.08307 9.3315 7.16625 8.99463 7.19082L7.07405 7.31497C6.31196 7.36166 5.53519 7.43747 4.77202 7.47882C4.72009 7.48163 4.69725 7.55859 4.67495 7.60323L4.35549 8.61057C4.43651 8.66939 4.51264 8.7252 4.59665 8.77943C3.77013 11.3028 2.98601 13.8415 2.24459 16.3942C1.99472 17.2378 1.6701 18.1196 1.45042 18.9754C1.39822 19.1512 1.37592 19.2478 1.34465 19.4294C1.74623 19.683 2.20598 19.9173 2.62523 20.143L5.0439 21.428L6.4547 22.1867C7.5735 22.7772 7.32065 22.5308 8.5183 22.6178C8.56424 22.7195 8.61019 22.8197 8.65261 22.9231C8.86468 22.731 8.93428 22.5673 9.24531 22.6215L9.25429 22.6642C9.21812 22.7214 9.04439 22.9978 9.02889 23.0464C8.88561 23.4955 8.80187 23.9757 8.80078 24.4412C7.42505 24.4851 6.38755 24.8427 6.38075 26.5198C6.08004 26.5188 4.94385 26.4992 4.72335 26.5372C3.37318 26.5386 3.8381 27.7907 3.96126 28.6981L4.03983 29.136C0.866413 29.664 2.89711 30.0232 1.72366 31.6212C0.766903 32.7629 0.377838 34.6892 0.213894 36.1698C0.921879 36.5041 1.80251 36.8292 2.53523 37.1198L2.73888 37.218C2.5472 37.851 2.113 39.5333 2.05481 40.1448C2.40582 40.2808 2.88895 40.3852 3.26415 40.4188C3.2927 42.3424 4.86228 44.5301 6.79293 44.4853C7.38726 44.4715 8.51911 44.3505 9.09333 44.1769C9.49626 44.0552 10.0721 43.1921 10.341 42.8107C11.4913 42.8096 12.7531 42.8386 13.8931 42.8073L14.0375 42.5373C14.5765 42.6813 15.1037 42.8896 15.6369 43.0592C17.5485 43.6664 19.4632 44.3238 21.4513 44.584C22.6483 44.7407 23.677 44.3711 24.8195 44.0655C26.0223 43.6348 27.2149 43.1734 28.3964 42.6816L28.7294 42.5476C28.4485 44.0919 28.4357 45.4853 28.9915 46.9719C29.7533 49.0101 31.6909 51.033 33.8927 51.0227C33.9727 50.9659 33.979 50.9659 34.0755 50.9409L34.1001 50.9349C34.011 50.916 33.9893 50.9053 33.9201 50.8431C33.3569 50.769 32.9563 50.6896 32.4261 50.4875C31.0983 49.9814 29.8827 48.5627 29.3251 47.2101C28.5349 45.2931 28.5617 43.6363 29.2518 41.7089C29.491 41.5912 29.7398 41.512 29.9906 41.4248L30.2093 41.8523C30.0714 41.9574 29.9327 42.1697 29.8685 42.3335C29.4062 43.1025 29.3282 44.3051 29.4169 45.201C29.6568 47.6253 31.6945 50.1616 34.1848 49.7834C36.3348 49.4571 37.379 46.9255 37.0945 44.842C36.9226 43.5838 36.3226 42.2102 35.3418 41.4231C34.4562 40.5347 32.6019 40.0366 31.5324 40.745L31.4671 40.7298C31.302 40.5798 31.1927 40.5126 31.2763 40.2793C32.0802 39.2768 34.8855 40.2343 35.8975 40.5858C37.0898 40.9996 37.8967 41.312 39.1277 40.6977C39.2065 40.6584 39.3843 40.5657 39.4593 40.5384C39.5542 40.4877 39.5738 40.4865 39.6206 40.393C39.6609 40.0957 38.8413 38.6725 38.6545 38.3829C37.639 36.8094 36.1874 35.659 34.5222 34.9486C34.163 34.7953 33.7137 34.5747 33.3317 34.4969C33.5919 34.1503 34.0264 33.4083 33.9776 32.9675C33.9451 32.6745 33.6896 32.1331 33.5553 31.8513C32.3939 29.414 30.8613 27.103 29.2943 24.9352C29.0947 24.659 28.7693 24.2058 28.5352 23.9818C28.3347 23.7899 27.6869 23.8944 27.4081 23.9296C27.4328 23.8464 27.7263 23.6506 27.8097 23.5879C28.5886 23.0028 28.8222 22.4745 28.9687 21.512C29.2701 21.4585 29.9603 21.3545 30.045 20.9984C29.9456 20.6401 29.2216 20.8775 28.9971 20.9348C28.9291 20.4787 28.8753 19.9753 28.6147 19.5956C28.2769 19.1034 27.894 19.0687 27.374 18.9802C27.1602 18.8143 26.341 18.6705 26.0552 18.6349C26.4765 17.6291 27.041 16.5467 27.5032 15.5462C27.6158 15.3023 28.048 15.1377 28.2333 14.7224C28.5782 13.9495 28.6498 13.1634 28.4504 12.3324C28.1865 11.3844 27.6258 11.3084 27.2012 12.2029C26.8343 12.9757 26.3467 15.0232 27.2668 15.4923L27.3031 15.5106C27.0539 15.9998 26.8119 16.5659 26.5698 17.0669C26.3369 17.5491 26.0379 18.1409 25.8586 18.6336C25.6961 18.6447 25.0971 18.7508 25.0198 18.7354C24.1688 18.5657 23.1147 17.9922 22.2867 17.7638L22.2494 17.7538C22.0135 17.4984 21.6744 16.7273 21.4695 16.3655C21.3469 16.0915 21.1787 15.7883 21.0288 15.5304C21.1513 15.4119 21.2709 15.2902 21.3876 15.1654C21.2373 14.9147 21.0449 14.599 20.9196 14.3379C20.3563 13.1637 19.9619 11.9725 19.21 10.9046C19.1782 10.8146 19.1392 10.6523 19.1129 10.5545C19.0555 10.461 18.833 10.3631 18.727 10.308L18.637 10.2722L18.58 10.324C18.4279 10.5433 18.2361 10.8037 18.1202 11.0424C18.022 11.0037 18.0217 10.9975 18.0002 10.9001C17.9484 10.8519 17.8936 10.8069 17.8397 10.7613C17.869 10.8276 17.888 10.8671 17.9076 10.9386L17.8735 10.9764C17.6349 10.8415 17.4399 10.4104 17.1827 10.363C16.9535 10.1568 16.2235 9.25817 16.0483 8.98173C16.0083 8.93906 15.9482 8.81854 15.917 8.76118C15.9632 8.72483 16.0004 8.69499 16.05 8.66288L16.0475 8.68064C16.1845 8.57054 16.4623 8.16773 16.5825 8.00358C16.5321 7.9783 16.4881 7.92604 16.4467 7.88404C16.3474 7.9859 16.1263 8.36151 16.0469 8.43975C15.8101 8.67335 15.2031 8.92589 14.8883 9.08262Z" fill="#010327"/>
<path d="M4.43889 9.99219C4.29425 10.3274 4.18441 10.7761 4.06886 11.1317C3.84401 11.8241 3.6352 12.5547 3.39023 13.2376C3.36903 13.4497 2.93102 14.776 2.84212 15.0661L1.54904 19.3169C1.80243 19.4682 2.07269 19.6143 2.33288 19.7521C3.9688 20.6184 5.60554 21.5538 7.26566 22.3623C7.52041 21.4471 7.87658 20.3723 8.15472 19.453C8.84585 17.185 9.51033 14.9082 10.1484 12.623C9.98286 12.5095 8.81621 12.0097 8.54895 11.8909C7.46849 11.4154 6.39346 10.927 5.3236 10.4259C5.18711 10.363 4.51773 10.071 4.43889 9.99219Z" fill="#FF2347"/>
<path d="M3.02137 17.5342C2.92703 17.5183 2.9118 17.5349 2.84328 17.5808C2.83132 17.6368 2.81963 17.66 2.84627 17.7138C2.98004 17.9853 4.9251 18.9023 5.30764 19.0543C5.40633 19.0471 5.37561 19.0635 5.44738 19.0061C5.49224 18.8932 5.49687 18.926 5.483 18.8195C5.337 18.6554 3.3218 17.6323 3.02137 17.5342ZM2.84519 18.0756L2.77423 18.0695C2.70028 18.1252 2.66112 18.2436 2.61953 18.336C2.94579 18.5465 3.40663 18.7774 3.75355 18.9599C4.16002 19.1738 4.68557 19.4615 5.10617 19.6279C5.21058 19.6347 5.25706 19.629 5.32748 19.5489L5.31824 19.4668C5.27229 19.3873 5.14505 19.2778 5.06593 19.2401C4.32586 18.8875 3.58281 18.4117 2.84519 18.0756ZM2.66194 18.7077C2.55237 18.7045 2.45014 18.7504 2.41996 18.8671C2.50479 19.0361 4.58171 20.0732 4.89981 20.2343L4.96153 20.2511C5.06213 20.2064 5.05696 20.2278 5.11106 20.1484C5.11569 20.1091 5.11514 20.078 5.09883 20.0419C4.9928 19.807 2.99717 18.8149 2.66194 18.7077ZM1.77234 31.9909C1.67038 31.8962 1.88299 31.7525 1.87375 31.603C1.79654 31.5714 1.82481 31.5792 1.72394 31.6213C0.767185 32.7631 0.378119 34.6893 0.214174 36.1699C0.922158 36.5042 1.80279 36.8293 2.53551 37.12C2.58146 37.0451 2.56651 37.0141 2.56868 36.9143C3.20489 37.1619 3.96345 37.4296 4.61216 37.6474C5.5246 37.9541 6.98054 38.5699 7.89569 38.6485C7.99901 38.5903 8.09281 38.5406 8.1896 38.4703C8.26573 38.5656 8.2728 38.5682 8.38508 38.5972C10.1235 36.9378 9.47017 34.5045 7.63006 33.3324C6.18201 32.4101 3.44333 31.615 1.77234 31.9909Z" fill="#FF2347"/>
<path d="M1.77234 31.9913C1.67038 31.8966 1.88299 31.7528 1.87375 31.6033C1.79654 31.5718 1.82481 31.5795 1.72394 31.6217C0.767185 32.7634 0.378119 34.6897 0.214174 36.1703C0.922158 36.5046 1.80279 36.8297 2.53551 37.1203C2.58146 37.0454 2.56651 37.0144 2.56868 36.9146C1.88762 36.6486 1.08257 36.3553 0.417814 36.0564C0.489592 35.7063 0.524392 35.3295 0.59046 34.9935C0.752502 34.172 1.05756 32.9382 1.48822 32.2202C2.94307 31.9755 4.33022 32.1979 5.73667 32.6753C7.14856 33.1548 8.83505 34.0495 9.11509 35.7746C9.2842 36.8162 8.94462 37.7677 8.1896 38.4707C8.26573 38.5659 8.2728 38.5685 8.38508 38.5975C10.1235 36.9381 9.47017 34.5049 7.63006 33.3327C6.18201 32.4105 3.44333 31.6154 1.77234 31.9913Z" fill="#01010C"/>
<path d="M3.46091 34.8443C4.06177 35.1993 7.14411 36.083 7.88391 36.1367C7.95052 36.0925 7.9255 36.1226 7.95215 36.0348C7.86814 35.9077 7.29528 35.8311 7.09463 35.7843C5.83581 35.4954 4.60091 35.1014 3.40109 34.6064L3.34046 34.6736C3.36738 34.7654 3.41333 34.7485 3.46091 34.8443Z" fill="#01010C"/>
<path d="M3.40112 34.607C3.06263 34.4658 2.72522 34.3212 2.38917 34.1734C2.10696 34.046 1.32584 33.6311 1.07054 33.6133L1.02758 33.6328C1.02758 33.6629 1.02785 33.71 1.05558 33.7269C1.58385 34.0497 2.91826 34.6592 3.46094 34.8448C3.41336 34.749 3.36741 34.7659 3.34049 34.6741L3.40112 34.607Z" fill="#01010C"/>
<path d="M8.147 38.773C9.08826 39.0685 9.71032 39.1428 10.6663 38.7159C13.0703 37.6416 12.6665 33.6204 11.0135 31.9908C8.99011 29.9966 5.59238 29.5229 2.99182 30.3909C2.72537 30.4798 1.85861 31.7065 1.77215 31.9911C3.44314 31.6152 6.18182 32.4104 7.62988 33.3326C9.46998 34.5047 10.1233 36.938 8.3849 38.5974C8.32889 38.6576 8.21796 38.7253 8.147 38.773Z" fill="#FF2347"/>
<path d="M36.1707 40.0078C34.4547 37.7929 32.5213 36.6058 29.7989 36.32C29.3385 36.2753 28.8761 36.2586 28.414 36.2701C27.79 38.1143 26.9788 40.2612 26.125 42.0063C26.4882 42.0104 26.846 42.0175 27.207 41.9679C27.9109 41.8718 30.0924 41.3306 30.5953 40.8196C30.7777 40.6342 30.9353 40.4112 31.0941 40.2032L31.2768 40.2795C32.0806 39.277 34.886 40.2345 35.8979 40.586C37.0902 40.9998 37.8971 41.3122 39.1281 40.6979C39.207 40.6586 39.3847 40.5659 39.4597 40.5386C39.4644 40.425 39.499 40.4572 39.4528 40.3679L39.4256 40.3751C39.264 40.4193 38.94 40.5587 38.7806 40.623C37.9737 40.9495 37.7776 40.8394 37.0262 40.728L36.957 40.7303C36.9125 40.6755 36.9173 40.6726 36.8526 40.6549L36.8449 40.6861L36.8644 40.656L36.8711 40.6572L36.8577 40.7077L36.9234 40.7668L36.8936 40.7929C36.7895 40.7797 36.706 40.6919 36.6183 40.6204C36.6114 40.5252 36.2546 40.1151 36.1707 40.0078Z" fill="#FF2347"/>
<path d="M36.6183 40.6208C35.4145 40.0989 32.0524 38.9437 31.0941 40.2036L31.2768 40.2799C32.0806 39.2774 34.886 40.2349 35.8979 40.5864C37.0902 41.0002 37.8971 41.3126 39.1281 40.6983C39.207 40.659 39.3847 40.5663 39.4597 40.5391C39.4644 40.4254 39.499 40.4576 39.4528 40.3683L39.4256 40.3755C39.264 40.4197 38.94 40.5591 38.7806 40.6234C37.9737 40.9499 37.7776 40.8398 37.0262 40.7284L36.957 40.7307C36.9125 40.6759 36.9173 40.673 36.8526 40.6553L36.8449 40.6865L36.8644 40.6564L36.8711 40.6576L36.8577 40.7081L36.9234 40.7672L36.8936 40.7933C36.7895 40.7801 36.706 40.6923 36.6183 40.6208Z" fill="url(#paint0_linear_300_10145)"/>
<path d="M31.6255 48.2952C32.3758 48.8653 33.342 49.3511 34.2832 49.028C37.4274 47.9488 36.9926 43.0109 34.3964 41.5354C33.4315 40.9871 32.7733 41.0304 31.7582 41.3391C32.1431 41.9914 32.3881 42.775 32.7267 43.3893C33.4157 43.3727 33.8462 43.3583 34.3606 43.9449C34.967 44.6361 35.0217 45.9379 34.3057 46.5655C33.8421 46.9715 33.2083 46.8648 32.653 46.8154C32.3284 46.7864 31.9831 46.5761 31.7915 46.2972C31.4706 45.8387 31.4523 45.3503 31.5216 44.8103C31.3254 44.3801 31.1335 43.9477 30.946 43.5133C30.8512 43.2898 30.6645 42.8089 30.552 42.6183C30.4752 42.6485 30.4931 42.6533 30.4375 42.7463C30.3877 42.6786 30.3615 42.6404 30.3025 42.5825C29.3701 44.2123 29.9114 46.886 31.2069 48.1445L31.2501 48.1046C31.1647 47.9818 31.0862 47.9497 31.054 47.8484C31.2482 47.8722 31.5061 48.3919 31.6255 48.2952Z" fill="#B0C1D3"/>
<path d="M30.302 42.583C29.3696 44.2128 29.9109 46.8865 31.2064 48.1451L31.2495 48.1052C31.1642 47.9824 31.0857 47.9502 31.0534 47.8489C31.2477 47.8728 31.5055 48.3924 31.625 48.2957C31.5759 48.2174 31.2766 47.9301 31.1925 47.826C30.0187 46.3712 29.6861 44.4734 30.4369 42.7468C30.3871 42.6791 30.3609 42.641 30.302 42.583Z" fill="url(#paint1_linear_300_10145)"/>
<path d="M39.4531 40.3685C39.3338 40.1507 39.157 39.734 39.0439 39.4876C37.7714 36.7169 35.0941 35.0385 32.311 34.4477C32.1022 34.4033 31.5179 34.4813 31.2829 34.5361C30.2274 34.7814 29.1107 35.052 28.4585 36.0446C32.0591 35.9958 34.2837 37.2784 36.5426 40.1249C36.6649 40.2818 36.8998 40.5972 37.0266 40.7286C37.7779 40.8399 37.974 40.9501 38.781 40.6236C38.9403 40.5593 39.2643 40.4198 39.4259 40.3756L39.4531 40.3685Z" fill="#FF2347"/>
<path d="M14.3568 16.7052C13.5935 16.7265 12.5247 16.7391 11.7629 16.666C11.9369 17.6926 11.9323 19.4823 12.5932 20.2314C13.04 20.5914 13.3042 20.7119 13.7536 21.0118C13.733 21.2012 13.7988 21.1124 13.8401 21.2819C14.1062 21.4792 15.6011 22.113 15.9411 22.1604C16.0557 22.1397 16.126 22.1887 16.2317 22.2478C16.459 22.3509 16.6989 22.4197 16.9444 22.4523L16.968 22.404L16.9017 22.3769C16.9347 22.3116 16.9425 22.3242 17.0172 22.281C17.1891 22.3168 17.4419 22.3775 17.6103 22.3941C17.6134 22.2785 17.6044 22.1521 17.6515 22.0529L17.6895 22.0551C17.7293 22.1828 17.7091 22.2588 17.7704 22.3139C18.1421 22.3806 18.933 21.8359 18.9285 23.0852C18.9281 23.1969 18.6495 23.2899 18.5555 23.3409C19.8315 23.9941 19.01 22.385 19.0586 22.1603C19.3393 22.2436 19.4558 23.0758 19.3689 23.3913C19.3466 23.4704 19.3228 23.5491 19.2976 23.6272C19.6338 23.5224 19.8629 23.48 19.9213 23.0555C19.9985 23.2518 19.9037 23.214 19.9499 23.3376C20.0101 23.1382 20.013 23.0983 20.0152 22.8874C20.0575 23.063 20.0382 23.2758 20.0271 23.4553C20.3749 23.297 20.4427 23.2454 20.484 22.8459C20.5152 22.9501 20.5017 22.975 20.5673 23.0158C20.5991 22.9863 20.6117 22.9759 20.6398 22.9424C20.6072 23.0772 20.5649 23.2218 20.5282 23.3566C20.9338 23.1577 21.0488 22.9876 20.9501 22.5124C20.8466 22.0137 20.7325 21.4807 20.1891 21.3837C19.4368 21.2395 18.6395 21.4566 17.9574 20.998C17.4444 20.6531 16.7719 20.3832 16.2823 20.0154C16.1191 19.9425 15.7931 19.7216 15.6365 19.6208C15.1688 19.3196 14.7322 18.9937 14.2359 18.7434C14.2764 18.5931 14.287 18.5348 14.3042 18.3794C14.2825 17.7897 14.3725 17.2429 14.3568 16.7052Z" fill="#E9946B"/>
<path d="M17.0181 22.2809C15.7663 21.9441 14.9126 21.6178 13.7545 21.0117C13.7338 21.2011 13.7996 21.1122 13.8409 21.2817C14.1071 21.479 15.6019 22.1129 15.9419 22.1603C16.0565 22.1395 16.1268 22.1885 16.2325 22.2476C16.4598 22.3507 16.6998 22.4196 16.9452 22.4521L16.9688 22.4039L16.9025 22.3768C16.9355 22.3115 16.9433 22.324 17.0181 22.2809ZM20.1166 21.6946C20.2683 22.1628 20.3849 22.3065 20.4848 22.8458C20.516 22.95 20.5025 22.9749 20.5682 23.0157C20.5999 22.9862 20.6126 22.9757 20.6406 22.9422C20.6306 22.4794 20.3887 22.0421 20.1166 21.6946ZM20.016 22.8873C19.9591 22.6081 19.8097 22.2288 19.6506 21.9976C19.7118 22.3683 19.8188 22.6962 19.9221 23.0554C19.9993 23.2517 19.9045 23.2139 19.9507 23.3374C20.011 23.1381 20.0139 23.0982 20.016 22.8873Z" fill="#01010C"/>
<path d="M19.2131 11.2275L19.1596 11.2508C19.0886 11.4881 19.1309 11.6832 18.9631 11.8204L18.872 11.8165L18.78 11.835C18.6236 12.0978 18.4717 12.5338 18.3231 12.8148C18.0774 13.2797 17.8253 13.7572 17.5673 14.2135C17.0234 15.1789 16.3873 16.0831 15.6691 16.9118C15.2859 17.3487 14.8727 17.7533 14.4905 18.1805C14.4797 18.3207 14.4657 18.4692 14.4585 18.6088C15.0419 18.9847 15.6207 19.3684 16.1949 19.7598C16.4424 19.1931 16.6369 18.7425 16.9869 18.2361C17.4877 17.5114 18.132 16.9502 18.4495 16.1053C18.6252 15.6377 18.6193 15.4259 18.6896 14.9876C18.742 14.6617 18.6692 13.456 18.7534 13.3247C18.8367 13.3031 18.8068 13.3073 18.9001 13.3439C18.9341 13.5382 18.9173 13.8462 18.9231 14.0571C18.9451 14.8651 18.8823 15.852 18.4701 16.5612C18.6141 16.5267 19.2414 16.3483 19.3149 16.3411C19.3559 16.3 19.5773 16.2174 19.6424 16.1896C20.2024 15.9502 20.6718 15.5858 21.1387 15.1862C20.9817 14.8345 20.7781 14.4782 20.6161 14.1228C20.334 13.5042 20.0635 12.8672 19.7716 12.2549C19.6109 11.9175 19.3725 11.5801 19.2131 11.2275Z" fill="#FF2347"/>
<path d="M20.8935 15.6816C20.3602 15.9843 20.1549 16.2223 19.5194 16.4652C19.2066 16.6162 18.6962 16.7209 18.3505 16.7802L18.3744 16.8041C19.063 17.5033 19.9991 19.1739 20.8088 19.7699C21.0351 19.9364 22.0251 20.2723 22.3375 20.4076C23.0237 19.9673 23.9521 19.0314 24.7356 18.8632C24.4008 18.7702 22.3486 18.021 22.1315 17.8646C21.9982 17.7686 21.892 17.5903 21.8124 17.4457C21.6495 17.1496 21.4501 16.8206 21.3321 16.5013C21.2466 16.381 20.9773 15.8428 20.8935 15.6816ZM35.342 41.423C34.4564 40.5346 32.6021 40.0365 31.5326 40.7449C31.6337 40.8129 31.8348 40.6413 32.0367 40.6207L32.051 40.6511C31.9406 40.7016 31.8655 40.7291 31.7522 40.7679C31.7351 40.8253 31.7321 40.7977 31.7536 40.8525C31.6337 40.9188 31.6086 40.9286 31.6152 41.0901C31.6383 41.1142 31.6656 41.1544 31.706 41.1415C31.9528 41.0646 32.1782 40.9825 32.4357 40.9429C34.7585 40.5865 36.5631 42.9328 36.7038 45.2083C36.8202 47.0903 35.8081 49.1394 33.861 49.3178C33.039 49.393 31.6912 48.8607 31.2067 48.1443C29.9112 46.8857 29.3699 44.212 30.3023 42.5822C30.331 42.5062 30.4111 42.3974 30.4587 42.3268C30.3993 42.202 30.3602 42.1062 30.3107 41.9762C30.3032 41.9311 30.2459 41.8872 30.2095 41.8522C30.0716 41.9572 29.9329 42.1696 29.8687 42.3334C29.4064 43.1024 29.3284 44.305 29.4171 45.2008C29.657 47.6252 31.6947 50.1614 34.185 49.7833C36.335 49.457 37.3792 46.9253 37.0947 44.8419C36.9229 43.5836 36.3228 42.21 35.342 41.423Z" fill="#E9946B"/>
<path d="M29.8687 42.3343C29.4064 43.1033 29.3284 44.3059 29.4171 45.2017C29.657 47.6261 31.6947 50.1623 34.185 49.7841C36.335 49.4579 37.3792 46.9262 37.0947 44.8427C36.9229 43.5845 36.3228 42.2109 35.342 41.4238C35.2442 41.5088 35.2195 41.4835 35.0994 41.4459C36.2277 42.5105 36.8049 43.6198 36.9175 45.2209C37.1649 48.7362 33.9766 51.131 31.2214 48.5107C29.7065 47.07 29.0179 44.3107 30.0725 42.3842C30.0449 42.3156 30.0343 42.2918 29.9987 42.2278C29.9528 42.2692 29.9176 42.297 29.8687 42.3343Z" fill="#01010C"/>
<path d="M35.3418 41.4237C34.4561 40.5354 32.6018 40.0372 31.5324 40.7457C31.6334 40.8137 31.8345 40.6421 32.0365 40.6215L32.0508 40.6519C31.9403 40.7024 31.8653 40.7299 31.7519 40.7687C31.7349 40.826 31.7318 40.7985 31.7534 40.8533C32.7731 40.4892 33.5829 40.5701 34.5502 41.0688C34.6862 41.1388 35.0351 41.422 35.0992 41.4458C35.2193 41.4834 35.2439 41.5087 35.3418 41.4237Z" fill="url(#paint2_linear_300_10145)"/>
<path d="M30.3105 41.9765C30.303 41.9314 30.2457 41.8875 30.2093 41.8525C30.0714 41.9576 29.9327 42.1699 29.8685 42.3337C29.9175 42.2964 29.9526 42.2686 29.9985 42.2273C30.0341 42.2913 30.0448 42.3151 30.0723 42.3837C30.1513 42.2425 30.2246 42.1131 30.3105 41.9765Z" fill="#02021F"/>
<path d="M13.7544 21.0119C13.3049 20.7119 13.0407 20.5915 12.594 20.2314C12.5545 20.3538 12.566 20.3731 12.6263 20.5086C12.5344 20.4359 12.4113 20.3439 12.3262 20.2678C11.8055 20.7157 11.2139 21.1306 10.6649 21.5437C10.3827 21.7559 10.0717 21.9419 9.80389 22.1748L9.69052 22.5866C11.2982 23.2304 13.5725 23.5019 15.1873 22.7419C15.3267 22.6764 15.9761 22.3303 16.0225 22.2211C15.9876 22.1789 15.9913 22.1786 15.9418 22.1605C15.6018 22.1131 14.1069 21.4792 13.8408 21.2819C13.7995 21.1124 13.7337 21.2013 13.7544 21.0119Z" fill="#FF2347"/>
<path d="M13.7539 21.0118C13.3045 20.7118 13.0402 20.5913 12.5935 20.2313C12.5541 20.3536 12.5655 20.3729 12.6258 20.5085C12.9845 20.797 13.4254 21.0958 13.8403 21.2818C13.799 21.1123 13.7332 21.2012 13.7539 21.0118ZM26.0554 18.6355C26.4767 17.6297 27.0412 16.5473 27.5034 15.5468C27.616 15.3029 28.0482 15.1383 28.2335 14.723C28.5784 13.9502 28.65 13.1641 28.4506 12.333C28.1867 11.385 27.626 11.3091 27.2014 12.2035C26.8345 12.9763 26.3469 15.0238 27.267 15.4929L27.3033 15.5112C27.0541 16.0005 26.8121 16.5665 26.57 17.0676C26.3371 17.5497 26.0381 18.1415 25.8588 18.6342C25.6963 18.6454 25.0973 18.7514 25.02 18.736C24.169 18.5663 23.1149 17.9928 22.2869 17.7645L22.2496 17.7544L22.2112 17.7714C22.3356 17.8489 22.3805 17.8967 22.5243 17.9183C22.732 17.9528 22.9467 18.0634 23.1447 18.1408C23.6377 18.3336 24.1457 18.5121 24.636 18.7112C24.9741 18.8486 25.1777 18.7909 25.521 18.7133C25.6191 18.6911 25.8114 18.7132 25.8843 18.6542C26.008 18.4559 26.1504 18.1067 26.2565 17.8784L26.8709 16.5702C26.9007 16.5064 27.2054 15.8923 27.2075 15.8838L27.2355 15.9157C27.1994 16.2473 26.2998 17.8044 26.1676 18.2301C26.1435 18.3076 26.0529 18.5043 26.0124 18.58L26.0201 18.6323C26.2309 18.7671 26.8075 18.785 27.1112 18.9385C27.1991 18.9627 27.2609 18.9818 27.3463 19.0145L27.3742 18.9809C27.1604 18.8149 26.3412 18.6711 26.0554 18.6355Z" fill="#01010C"/>
<path d="M27.8838 11.7559C27.3611 11.7672 27.0075 13.2459 26.984 13.7101C26.9628 14.1286 26.8736 14.8127 27.1406 15.1684C27.2246 15.2803 27.3151 15.2779 27.4388 15.2829C28.3895 14.7217 28.5899 13.1225 28.1875 12.1411C28.1182 11.972 28.0313 11.8534 27.8838 11.7559Z" fill="#B0C1D3"/>
<path d="M10.4795 10.2996C9.8441 10.0439 9.05863 9.64513 8.43004 9.34752C7.44174 8.88945 6.45127 8.43703 5.45835 7.99026C5.2838 7.91316 4.96244 7.7387 4.79904 7.80954C4.79387 7.95815 4.66473 8.39582 4.62313 8.56971C4.85097 8.664 5.03285 8.75114 5.25362 8.86133C6.08966 9.26809 6.9722 9.67541 7.81694 10.0627C8.31503 10.291 9.56869 10.9266 10.0638 11.0468L10.4795 10.2996Z" fill="#FF2347"/>
<path d="M10.3711 11.8658C10.2583 11.8486 9.67453 11.558 9.52227 11.4921C8.52338 11.0614 7.53127 10.6132 6.54624 10.1478C6.0593 9.91682 5.16616 9.44538 4.67922 9.2793C4.59249 9.51447 4.51201 9.75223 4.43833 9.99229C4.51718 10.0711 5.18655 10.3631 5.32304 10.426C6.3929 10.9271 7.46793 11.4155 8.54839 11.891C8.81565 12.0098 9.9823 12.5096 10.1479 12.6231C10.2398 12.387 10.305 12.1132 10.3711 11.8658Z" fill="#FF2347"/>
<path d="M15.9176 8.76172C15.6686 8.93162 14.8752 9.32934 14.5866 9.47075C14.7806 9.81941 15.096 10.2574 15.3275 10.5904C15.6361 11.031 15.9384 11.4764 16.2344 11.9266C16.6573 11.638 17.3513 11.2887 17.8115 11.0449C17.6679 10.8888 17.2957 10.5109 17.1833 10.3636C16.9541 10.1573 16.2241 9.2587 16.0489 8.98226C16.0089 8.93959 15.9488 8.81908 15.9176 8.76172Z" fill="#FF2347"/>
<path d="M29.0098 41.7549C27.7469 42.1176 27.3397 42.2516 26.0146 42.2384C25.7746 42.626 25.6001 42.9316 25.2959 43.2771C25.164 43.4272 24.6061 43.8237 24.5783 43.9046C24.9287 43.7741 25.2942 43.6633 25.6515 43.5293C26.5724 43.1755 27.4905 42.8137 28.4056 42.4438L28.785 42.2877C28.892 42.1124 28.9416 41.9489 29.0098 41.7549Z" fill="#FF2347"/>
<path d="M5.03049 9.00798C4.89265 8.96592 4.91385 8.94801 4.79803 8.98884C4.72625 9.06595 4.70994 9.17151 4.68003 9.27934C5.16698 9.44542 6.06011 9.91687 6.54706 10.1479C7.53209 10.6133 8.52419 11.0614 9.52309 11.4921C9.67534 11.558 10.2591 11.8487 10.3719 11.8658C10.435 11.6595 10.7629 10.6641 10.7346 10.5199L10.6876 10.5219C10.4347 10.7266 10.336 11.0571 10.1248 11.3236L10.103 11.3506L5.03049 9.00798Z" fill="#FF2347"/>
<path d="M5.56828 27.1285C5.26676 27.1063 4.27602 26.9465 4.34698 27.5107C4.40571 27.976 4.44268 28.425 4.47504 28.8939C5.12919 28.4479 5.79693 28.049 6.44238 27.6144C6.41547 27.5156 6.41139 27.3202 6.40541 27.2086C6.17648 27.1663 5.81025 27.1475 5.56828 27.1285Z" fill="#FDFDFD"/>
<path d="M5.66992 27.4248C5.41326 27.4213 4.99103 27.6444 4.78739 27.8215C4.70555 27.8926 4.71697 27.9151 4.71561 28.0044C4.94617 27.9691 5.31076 27.7495 5.51957 27.6246C5.64464 27.5499 5.6411 27.5432 5.66992 27.4248Z" fill="#01010C"/>
<path d="M4.72399 26.5371C3.37382 26.5385 3.83874 27.7906 3.9619 28.698C4.11144 28.5586 4.08561 28.5136 4.07881 28.31C4.14542 28.5963 4.10817 28.7299 4.27402 29.0251L4.30502 29.0214C4.39392 28.5384 3.98474 27.4304 4.29904 27.0801C4.47957 26.8787 5.41757 26.9497 5.72017 26.9706C5.90804 26.969 6.15491 27.012 6.33572 26.9532C6.39798 26.9329 6.4026 26.8836 6.43359 26.8135C6.31804 26.7238 5.79358 26.7159 5.59592 26.6876C5.66036 26.6317 5.68075 26.6337 5.76639 26.6134L5.79331 26.6073L5.79385 26.588C5.64432 26.543 4.95047 26.555 4.72399 26.5371Z" fill="#FDFDFD"/>
<path d="M4.72354 26.5379C3.37336 26.5392 3.83828 27.7913 3.96145 28.6988C4.11098 28.5594 4.08516 28.5144 4.07836 28.3108C4.0876 27.9205 3.77059 27.2471 4.0808 26.94C4.41142 26.6129 5.16453 26.6825 5.59547 26.6884C5.6599 26.6325 5.68029 26.6344 5.76594 26.6142L5.79285 26.6081L5.7934 26.5888C5.64386 26.5438 4.95002 26.5557 4.72354 26.5379ZM21.3878 15.1661C21.2375 14.9153 21.0451 14.5996 20.9198 14.3385C20.3565 13.1644 19.9621 11.9731 19.2102 10.9053C19.1408 11.0714 19.2693 11.0656 19.2127 11.2283C19.3721 11.5809 19.6105 11.9183 19.7713 12.2557C20.0631 12.868 20.3336 13.505 20.6157 14.1236C20.7778 14.479 20.9813 14.8353 21.1383 15.187C20.6715 15.5866 20.202 15.951 19.642 16.1904C19.5769 16.2182 19.3555 16.3008 19.3145 16.3419L19.3264 16.3829C19.3798 16.3427 19.382 16.3556 19.4386 16.3347C20.0359 16.1143 20.6167 15.7249 21.0935 15.2889C21.136 15.25 21.1462 15.2569 21.1955 15.2815C20.9175 15.572 20.4731 15.9457 20.1007 16.1093C19.9159 16.1905 19.6416 16.3128 19.4822 16.4346L19.5194 16.466C20.1549 16.2231 20.3602 15.9851 20.8935 15.6824C20.9773 15.8435 21.2466 16.3818 21.3321 16.5021L21.3668 16.4988C21.3386 16.295 20.9396 15.7955 20.9661 15.5617C21.0539 15.645 21.3239 16.2434 21.4501 16.4254L21.4697 16.3662C21.3471 16.0922 21.1789 15.7889 21.029 15.531C21.1515 15.4126 21.2711 15.2909 21.3878 15.1661Z" fill="#01010C"/>
<path d="M4.67534 7.60352L4.35588 8.61085C4.4369 8.66967 4.51302 8.72548 4.59704 8.77972C3.77051 11.3031 2.9864 13.8418 2.24497 16.3944C1.99511 17.2381 1.67048 18.1199 1.4508 18.9757L1.48316 19.0082C1.54678 18.8599 1.55113 18.7296 1.59735 18.5915C1.96194 17.5062 2.32382 16.2865 2.64165 15.195C3.21995 13.2711 3.81918 11.3543 4.43935 9.44496C4.46463 9.51566 4.44206 9.49497 4.49535 9.52263L4.51302 9.48355L4.47061 9.38548C4.48285 9.31079 4.48692 9.2243 4.53369 9.17257C4.56033 9.213 4.61362 9.28005 4.60356 9.32442C4.5481 9.5719 4.39204 9.8214 4.32108 10.0637C4.22401 10.3961 4.13946 10.7229 4.04076 11.0536C3.89367 11.5294 3.74142 12.0033 3.584 12.4753C3.53207 12.6357 3.3548 13.0944 3.39015 13.2378C3.63511 12.5549 3.84392 11.8243 4.06877 11.1319C4.18432 10.7762 4.29416 10.3276 4.4388 9.99236C4.51248 9.7523 4.59296 9.51454 4.67969 9.27937C4.7096 9.17153 4.72591 9.06597 4.79769 8.98887C4.91351 8.94804 4.8923 8.96594 5.03015 9.00801C5.03395 8.9922 5.03178 8.96189 5.03124 8.94373C4.95538 8.92947 4.94777 8.89392 4.8972 8.82454L4.90318 8.78715C5.0905 8.80301 5.06549 8.8876 5.25391 8.86138C5.03314 8.75119 4.85125 8.66405 4.62341 8.56976C4.66501 8.39587 4.79415 7.9582 4.79932 7.8096L4.77539 7.79551C4.74222 7.69227 4.74249 7.68271 4.67534 7.60352Z" fill="#02021F"/>
<path d="M18.6371 10.2725L18.5802 10.3242C18.428 10.5435 18.2363 10.804 18.1204 11.0426C18.2887 11.209 18.6529 11.5435 18.8573 11.6244C18.8093 11.7524 18.8404 11.6736 18.8716 11.8169L18.9627 11.8209C19.1305 11.6836 19.0883 11.4885 19.1592 11.2512L19.2127 11.2279C19.2693 11.0652 19.1408 11.071 19.2102 10.9049C19.1783 10.8149 19.1393 10.6526 19.1131 10.5547C19.0556 10.4613 18.8331 10.3634 18.7271 10.3082L18.6371 10.2725Z" fill="#FF2347"/>
<path d="M19.1131 10.5547C19.1147 10.662 19.1318 10.6925 19.0857 10.7757C19.0218 10.7653 19.026 10.7676 18.976 10.7245C18.9935 10.9151 18.9311 11.4541 18.8573 11.6244C18.8093 11.7523 18.8404 11.6736 18.8716 11.8169L18.9627 11.8208C19.1305 11.6836 19.0883 11.4885 19.1592 11.2512L19.2127 11.2279C19.2693 11.0651 19.1408 11.071 19.2102 10.9048C19.1783 10.8149 19.1393 10.6525 19.1131 10.5547Z" fill="#02021F"/>
<path d="M18.7278 10.3086L18.7163 10.371C18.8058 10.4814 18.9256 10.5998 18.9766 10.7249C19.0266 10.768 19.0225 10.7657 19.0863 10.7761C19.1325 10.6929 19.1154 10.6624 19.1137 10.5551C19.0563 10.4616 18.8337 10.3637 18.7278 10.3086Z" fill="#01010C"/>
<path d="M18.9001 13.3439C18.8069 13.3072 18.8367 13.303 18.7535 13.3246C18.6692 13.456 18.742 14.6616 18.6896 14.9876C18.6193 15.4258 18.6253 15.6376 18.4495 16.1052C18.132 16.9502 17.4878 17.5114 16.9869 18.2361C16.6369 18.7425 16.4424 19.1931 16.1949 19.7598C15.6207 19.3684 15.0419 18.9846 14.4585 18.6087C14.4097 18.5439 14.351 18.4486 14.3048 18.3785C14.2876 18.5339 14.277 18.5922 14.2365 18.7425C14.7328 18.9928 15.1694 19.3187 15.6371 19.6199C15.7937 19.7208 16.1197 19.9416 16.2829 20.0145L16.3099 19.9883C16.2477 19.8839 15.2907 19.3775 15.1473 19.2263C15.0112 19.0827 14.5641 18.9252 14.4333 18.7516L14.4464 18.7316C14.7723 18.7002 16.0519 19.9689 16.334 19.7268C16.3049 19.4708 16.5161 19.2082 16.6178 18.974C17.1307 17.7922 18.3351 17.0545 18.6201 15.739C18.7559 15.1122 18.807 14.4287 18.7775 13.7861C18.7721 13.6781 18.7516 13.421 18.811 13.3456L18.8598 13.3945L18.9001 13.3439ZM28.4058 42.443C27.4906 42.8128 26.5726 43.1747 25.6517 43.5285C25.2943 43.6625 24.9289 43.7732 24.5785 43.9038C24.9409 44.0272 27.12 42.8998 27.3254 43.03C27.2485 43.1095 25.4214 43.7399 25.2103 43.8616C25.1682 43.886 24.8266 43.9569 24.7237 44.0068L24.7195 44.0358L24.8201 44.0653C26.0228 43.6346 27.2154 43.1732 28.397 42.6814C28.4663 42.5466 28.4536 42.581 28.4058 42.443Z" fill="#02021F"/>
<path d="M16.2325 22.2471C16.1364 22.3585 16.0883 22.4345 16.0081 22.5585C16.4384 22.7249 16.6827 22.9249 17.0664 23.1185C17.0705 22.7599 17.2487 22.5441 16.9452 22.4516C16.6997 22.419 16.4597 22.3502 16.2325 22.2471Z" fill="#FDFDFD"/>
<path d="M6.443 27.6138C6.50744 27.5211 6.43648 26.9955 6.43349 26.8135C6.4025 26.8836 6.39787 26.9329 6.33561 26.9532C6.15481 27.012 5.90794 26.9689 5.72007 26.9706L5.75487 27.0127L5.73829 27.0204C5.68527 27.0453 5.67222 27.0478 5.63116 27.0932L5.72306 27.0744C5.65998 27.1312 5.66705 27.1136 5.5689 27.128C5.81088 27.147 6.1771 27.1658 6.40603 27.2081C6.41201 27.3197 6.41609 27.5151 6.443 27.6138ZM36.5424 40.124C36.5078 40.1119 36.4929 40.1128 36.4564 40.1079C36.4666 40.2037 36.6302 40.2981 36.716 40.4617L36.6997 40.5082C36.5924 40.4821 36.3452 40.0479 36.1708 40.0075C36.2547 40.1148 36.6115 40.5248 36.6184 40.6201C36.7061 40.6915 36.7896 40.7793 36.8937 40.7925L36.9235 40.7664L36.8578 40.7073L36.8713 40.6568L36.8646 40.6557L36.845 40.6858L36.8527 40.6545C36.9175 40.6723 36.9126 40.6752 36.9571 40.73L37.0264 40.7277C36.8996 40.5963 36.6647 40.2809 36.5424 40.124Z" fill="#02021F"/>
<path d="M24.6305 24.7078L24.6616 24.7063C24.6284 24.6477 24.6249 24.6529 24.5742 24.6091C24.5256 24.61 24.4988 24.6103 24.4501 24.6048L24.4126 24.6005L24.3175 24.6194L24.2894 24.583C23.7892 24.848 23.4391 25.212 23.1441 25.7102C23.109 25.7874 23.06 25.8869 23.0299 25.9637L23.246 26.0398C23.124 26.4232 23.1162 26.8111 23.1655 27.2098C23.2697 28.0532 23.5827 28.8754 23.8448 29.6757C24.1825 30.7067 24.5289 31.7397 24.8277 32.7838C24.9815 33.3216 25.151 33.8791 25.1988 34.4415C25.2419 34.9488 25.1596 35.4776 25.0626 35.9732C24.7848 37.3932 23.7236 41.2994 22.5907 42.0712C22.1558 42.3677 21.587 42.458 21.0784 42.454C19.6412 42.4431 18.1549 41.982 16.78 41.5659L12.1071 40.1129C11.2877 39.8523 10.3782 39.5097 9.55876 39.3166C9.5487 39.6354 9.53511 40.0294 9.69062 40.3143C10.1129 41.0873 13.9794 42.2767 14.8921 42.5809C16.0408 42.9642 17.1926 43.3613 18.3583 43.6827C18.9156 43.8328 19.4745 43.976 20.035 44.112C21.6038 44.489 22.873 44.6442 24.3145 43.7464C25.7826 42.8316 26.3029 41.1275 26.9546 39.5459C27.3717 38.5582 27.7529 37.5539 28.0975 36.5353C28.2355 36.1296 28.385 35.7169 28.4916 35.3009C28.8346 33.9491 28.2841 32.5299 27.8172 31.2872C27.0927 29.3589 26.2366 27.4563 25.2557 25.6592C25.0774 25.3325 24.8008 25.0254 24.6305 24.7078Z" fill="#FF2347"/>
<path d="M24.631 24.7078L24.6621 24.7063C24.6289 24.6477 24.6254 24.6529 24.5747 24.6091C24.5261 24.61 24.4993 24.6103 24.4506 24.6048L24.4132 24.6005L24.318 24.6194L24.29 24.583C23.7898 24.848 23.4396 25.212 23.1446 25.7102C23.2297 25.7189 23.2775 25.7194 23.358 25.748C23.5535 25.4421 24.2693 24.6149 24.631 24.7078Z" fill="#01010C"/>
<path d="M23.144 25.7109C23.1089 25.7882 23.06 25.8876 23.0299 25.9645L23.246 26.0405C23.2734 25.9563 23.3242 25.8351 23.3574 25.7487C23.277 25.7201 23.2292 25.7196 23.144 25.7109Z" fill="#02021F"/>
<path d="M16.0217 22.6973C15.6462 22.676 15.2838 22.9982 14.8782 23.1473C13.7499 23.5622 11.6697 23.4664 10.5441 23.1221C10.5129 24.3962 10.7252 25.9492 11.894 26.6034C12.3723 26.871 12.8638 27.0907 13.363 27.3114C14.4353 27.7855 15.5171 28.2347 16.5702 28.7558C16.9499 28.9446 17.5827 29.2573 17.8389 29.6126C17.9671 29.7913 17.9596 30.1225 17.9088 30.3334C17.7196 31.1179 17.4026 31.8711 17.1805 32.6493C16.7806 34.0504 16.5037 35.4621 16.2325 36.8948C16.2043 37.1821 16.0278 37.8802 15.9453 38.1608C16.6728 38.3855 16.9569 38.4509 17.715 38.4544C17.8295 37.8658 18.0296 37.3201 18.1834 36.7431C18.5216 35.4736 18.8692 34.1927 19.2681 32.9425C19.5407 32.088 19.8846 31.2404 20.0889 30.3586C20.1665 29.9997 20.2336 29.6315 20.1775 29.2631C20.0139 28.1873 19.2108 27.5658 18.4145 27.0135C17.4352 26.3343 16.4474 25.7576 15.4238 25.1597C15.1334 24.9901 14.762 24.8087 14.5016 24.6099L14.4979 24.5803C14.6243 24.5948 14.6956 24.6384 14.8086 24.6952C15.1399 24.2783 16.0314 23.2335 16.0217 22.6973Z" fill="#405782"/>
<path d="M28.4119 24.0739C28.11 24.0627 27.6193 24.112 27.3147 24.1401C26.8644 24.2469 25.9866 24.3581 25.4831 24.4496C25.2431 24.4984 25.0123 24.5487 24.7693 24.5781C24.9635 24.7801 25.334 25.3944 25.4787 25.6555C26.4893 27.4771 27.3483 29.404 28.0751 31.3695C28.5264 32.5899 29.0387 33.9833 28.7236 35.3115C29.4518 34.8458 30.2519 34.5193 31.0875 34.3462C31.3341 34.2929 33.3494 34.0077 33.3768 33.9847C33.5862 33.8094 33.7089 33.3838 33.7366 33.1135C33.7741 32.7471 33.5133 32.2648 33.3662 31.9374C32.6457 30.3342 31.6929 28.8091 30.731 27.358C29.9957 26.2341 29.2222 25.1387 28.4119 24.0739Z" fill="#FF2347"/>
<path d="M31.3974 30.2205C29.5462 30.0162 30.1442 33.1441 32.0651 33.8288C34.0628 34.2354 33.2814 30.6587 31.3974 30.2205Z" fill="#01010C"/>
<path d="M30.5151 31.4736L30.4878 31.521C30.5835 32.024 30.8084 32.5204 31.1192 32.9149C31.5154 33.4182 32.4496 34.0575 32.932 33.3066C33.1264 32.607 32.9814 32.3221 32.7154 31.6495C32.0734 32.2355 31.1336 31.9434 30.5151 31.4736Z" fill="#FDFDFD"/>
<path d="M32.707 32.8213L32.692 32.823C32.4826 32.848 32.2391 33.0543 32.0615 33.0563C31.9212 33.058 31.678 32.9805 31.5045 32.9728L31.4799 33.0118L31.5265 33.1145C31.8691 33.25 32.6336 33.3547 32.707 32.8213Z" fill="#01010C"/>
<path d="M31.389 30.4185C30.8054 30.3789 30.6266 30.6432 30.4591 31.1823C30.91 31.5252 31.1274 31.6756 31.6687 31.7907C32.0677 31.8363 32.2734 31.7186 32.6055 31.5163C32.3766 30.9387 31.9644 30.5631 31.389 30.4185ZM16.3346 31.4119C13.7735 30.8765 11.1656 30.3095 8.74203 29.2624C8.21485 29.0349 6.77876 28.3186 6.46092 27.8252C5.6151 28.4674 3.94328 29.3608 3.24971 30.0997C3.89815 29.974 4.80733 29.7824 5.46094 29.7634C7.25183 29.7118 9.07699 30.2283 10.5536 31.3141C11.6134 32.0937 12.2134 33.0816 12.4617 34.4167C12.6645 35.5074 12.659 36.8299 12.056 37.7834C11.7164 38.3203 11.1324 38.8167 10.5351 38.9946C11.1506 39.0916 11.7705 39.256 12.4016 39.3527C13.2504 39.4827 13.9278 39.5051 14.782 39.4807C14.9233 39.1062 15.1515 38.5008 15.3784 38.1699C15.2882 38.1034 15.1998 38.0411 15.1153 37.9665C15.203 36.8586 15.4695 35.6822 15.581 34.5763C15.6044 34.3441 15.9451 32.4985 15.9463 32.5026C15.8878 32.5115 15.868 32.541 15.8242 32.5838C15.9221 32.3645 15.992 32.4529 16.0062 32.2311C16.1564 32.0323 16.2401 31.6455 16.3346 31.4119Z" fill="#FF2347"/>
<path d="M16.0059 32.2314C15.3486 32.6007 14.6542 33.405 14.4491 34.1657C14.1706 35.1981 14.2927 36.3617 14.4082 37.4119C14.4296 37.6061 14.4355 37.8773 14.503 38.0506C14.5298 38.1198 14.5465 38.1091 14.6084 38.1292L14.6632 38.1097C14.735 37.8925 14.6097 37.2271 14.5908 36.9668C14.4961 35.6592 14.3482 34.2102 15.2654 33.1591C15.348 33.0644 15.7958 32.651 15.8238 32.5841C15.9217 32.3649 15.9917 32.4533 16.0059 32.2314Z" fill="url(#paint3_linear_300_10145)"/>
<path d="M14.4041 9.62989C14.2064 9.62794 13.6009 10.0015 13.3752 10.0864C12.9619 10.2417 12.5489 10.6114 12.2686 10.9654C11.9959 11.3075 11.786 11.6999 11.649 12.1227C11.2722 13.322 11.431 15.1868 11.5413 16.4361C11.671 16.4372 11.8072 16.4478 11.9367 16.4596C12.8178 16.5401 13.6903 16.5314 14.5736 16.5254C14.7392 14.9936 14.7868 13.1356 14.4958 11.6096C14.4174 11.1983 13.9366 10.7242 13.922 10.5122L13.9542 10.4736C14.0525 10.4907 14.3024 10.7965 14.3758 10.8876C15.0852 11.9052 14.8609 13.657 14.8986 14.8472C14.9114 15.2522 14.8808 15.8578 14.7883 16.2443C15.0017 16.0452 15.1919 15.7818 15.3797 15.5564C16.198 14.5742 16.8405 13.4937 17.4146 12.3381C17.5704 12.0245 17.7861 11.5762 17.8931 11.2413C17.5494 11.3847 16.4713 11.9878 16.1473 12.1892C15.5695 11.2611 14.9774 10.5049 14.4041 9.62989ZM27.2155 19.0589C26.784 19.0115 26.4274 18.8579 25.9709 18.8457C23.953 18.7919 23.0496 20.6686 21.1483 21.161C21.6288 21.3569 21.8916 21.5556 22.1061 22.0725C22.1629 22.2095 22.2889 22.5961 22.3074 22.781C22.3086 22.793 22.3555 22.8121 22.3757 22.8172C22.459 22.926 22.4612 22.9376 22.6165 22.9548C22.639 22.9573 22.6616 22.9594 22.6841 22.9613C22.8516 22.9538 23.0607 22.9239 23.2102 22.9926C23.2605 23.0523 23.2591 23.05 23.2887 23.1235C23.6629 23.8645 23.8024 23.9655 24.29 24.5833L24.318 24.6197L24.4132 24.6008C24.4772 24.5543 24.5693 24.5056 24.648 24.5139C24.8739 24.3185 25.6049 24.3296 25.7584 24.1822C25.765 24.1782 26.7729 23.9762 26.8958 23.9405C26.6861 23.8992 26.4662 23.8477 26.2564 23.8018C26.3316 23.7766 26.4084 23.7552 26.4845 23.7333L26.5116 23.6453C26.5171 23.6311 26.5227 23.6169 26.5283 23.6027C26.4247 23.4869 26.3209 23.2919 26.2385 23.1724C25.8833 22.6579 25.8375 21.8294 25.8909 21.1919C25.9411 20.5295 26.2381 19.9152 26.7169 19.4837C26.8716 19.3469 27.0732 19.2403 27.2266 19.1041L27.2155 19.0589Z" fill="#FF2347"/>
<path d="M23.4975 23.0392C23.3738 23.0309 23.4105 23.0334 23.2884 23.123C23.6626 23.864 23.8021 23.9651 24.2897 24.5828L24.3177 24.6192L24.4129 24.6003C24.4769 24.5538 24.569 24.5051 24.6477 24.5134C24.8736 24.3181 25.6046 24.3291 25.7581 24.1818C25.7647 24.1777 26.7726 23.9757 26.8955 23.94C26.6858 23.8987 26.466 23.8472 26.2561 23.8013C25.596 23.6327 24.93 23.3795 24.2737 23.1931C24.0587 23.132 23.7298 23.0875 23.4975 23.0392Z" fill="#FF2347"/>
<path d="M23.4973 23.0392C23.3735 23.0309 23.4102 23.0334 23.2881 23.123C23.6623 23.864 23.8018 23.9651 24.2894 24.5828L24.3175 24.6192L24.4126 24.6003C24.4766 24.5538 24.5687 24.5051 24.6474 24.5134C24.8734 24.3181 25.6043 24.3291 25.7578 24.1818C25.4092 24.1955 24.8474 24.3445 24.5318 24.4902C24.2643 24.2209 23.569 23.4116 23.4973 23.0392Z" fill="#02021F"/>
<path d="M24.4695 22.9802C24.4702 22.9353 24.4705 22.8904 24.4705 22.8455C24.4702 22.084 24.2973 21.6159 23.7809 21.0517C23.6834 20.9452 23.5141 20.7828 23.3704 20.7842C23.3834 20.8812 24.3427 21.39 24.3062 22.9306C23.665 22.7519 23.0287 22.7057 22.3748 22.8174C22.4581 22.9263 22.4604 22.9378 22.6157 22.955C22.6382 22.9575 22.6607 22.9597 22.6833 22.9615C22.8507 22.9541 23.0598 22.9241 23.2093 22.9929C23.2596 23.0525 23.2583 23.0502 23.2878 23.1237C23.4099 23.0341 23.3732 23.0316 23.497 23.0399C23.7292 23.0882 24.0581 23.1327 24.2731 23.1938C24.9294 23.3802 25.5954 23.6334 26.2555 23.802C26.3308 23.7768 26.4075 23.7554 26.4837 23.7335L26.5107 23.6455C26.0199 23.5351 24.9653 23.1598 24.4695 22.9802Z" fill="url(#paint4_linear_300_10145)"/>
<path d="M9.75672 22.9062L9.72028 22.9114C9.66509 23.1193 9.58325 23.4942 9.51936 23.6749C9.23742 24.4489 8.89512 25.09 9.12431 25.9425C9.35977 26.8195 10.1681 27.263 10.8989 27.6197C11.5615 27.9432 12.2504 28.2069 12.935 28.4716C13.8818 28.84 14.8343 29.1918 15.7922 29.5267C16.0983 29.636 16.9363 29.9137 17.1863 30.0696L17.2145 30.0876C16.0442 32.2701 15.9258 33.8721 15.5908 36.3071C15.5278 36.765 15.457 37.3782 15.3706 37.8267L15.3743 37.8643C15.4499 37.9343 15.6123 37.9943 15.7128 38.0379C16.1042 36.3237 16.3721 34.6115 16.853 32.9083C16.9668 32.3605 17.7689 30.333 17.728 29.9146C17.6669 29.2894 14.0323 27.872 13.5005 27.6226C12.0185 26.9277 10.8092 26.6485 10.4429 24.7725C10.3198 24.1414 10.3328 23.6839 10.3288 23.0692C10.1053 22.9873 9.9851 22.9576 9.75672 22.9062Z" fill="#405782"/>
<path d="M9.35726 39.2965C8.19605 39.0205 7.04326 38.7849 5.87879 38.5264C5.39103 38.4182 4.89702 38.1892 4.41306 38.1074C4.22628 38.1855 4.14961 38.2162 4.00524 38.3625C3.84592 38.5243 3.70291 38.8414 3.72303 39.0784C3.77631 39.7057 4.01584 40.2893 4.4552 40.7243C4.5645 40.8325 4.80213 41.0552 4.93127 41.0968C5.62974 41.322 6.56584 41.4927 7.28714 41.6265C8.02041 41.7628 9.49674 42.1432 10.1696 42.1303C10.2115 42.0913 10.2523 42.0517 10.2925 42.011C10.4116 41.8893 10.4478 41.817 10.4606 41.6385C10.472 41.4793 10.2191 41.2517 10.1174 41.1464C9.98314 41.0075 9.53018 40.5292 9.38227 40.4738C9.06254 40.3539 8.53074 40.2546 8.18844 40.1794C7.28741 39.9811 6.38748 39.7768 5.48863 39.5665C5.24666 39.5091 4.41089 39.3559 4.27033 39.2233C4.24015 39.135 4.24341 39.1797 4.26516 39.0847C4.41116 39.0208 5.3603 39.302 5.58706 39.3611C5.78798 39.4041 5.98808 39.4515 6.1871 39.5034C7.18247 39.7172 8.3986 40.044 9.36868 40.2035C9.35943 40.1522 9.32056 39.9243 9.30805 39.8922C9.29745 39.6804 9.32409 39.504 9.35726 39.2965Z" fill="#FF2347"/>
<path d="M9.30753 39.8915C9.27382 39.946 9.2015 39.9354 9.14821 39.9271C8.22272 39.7856 7.14443 39.4267 6.22384 39.3535C6.19502 39.4215 6.18768 39.4264 6.18659 39.5027C7.18195 39.7165 8.39808 40.0433 9.36816 40.2029C9.35892 40.1515 9.32004 39.9237 9.30753 39.8915Z" fill="#FF2347"/>
<path d="M6.22363 39.3537C5.94169 39.2711 5.84789 39.2243 5.58634 39.3606C5.78726 39.4037 5.98737 39.451 6.18638 39.5029C6.18747 39.4266 6.19481 39.4217 6.22363 39.3537Z" fill="#FF2347"/>
<path d="M5.16082 40.4141C5.12602 40.4261 5.13472 40.4307 5.10373 40.4726L5.11488 40.5443C5.23342 40.6884 6.52215 40.9314 6.76902 40.9854C7.73311 41.1965 8.70265 41.4367 9.67083 41.6227C9.71215 41.5701 9.70862 41.5722 9.72656 41.5059C9.68034 41.4247 9.45577 41.3684 9.37067 41.3486C8.30353 41.1016 7.23067 40.8806 6.16407 40.6307C5.83346 40.5532 5.49551 40.4669 5.16082 40.4141Z" fill="#02021F"/>
<path d="M10.4184 7.3517C9.81103 7.28788 8.89016 7.38854 8.27897 7.43066L5.29994 7.62065C5.60907 7.82595 6.43859 8.20076 6.79557 8.36931C7.84232 8.86121 8.89288 9.34376 9.94751 9.81686C10.6626 10.1361 10.7169 10.24 11.5057 10.1811C12.8126 10.0835 13.5247 9.78071 14.6992 9.21659C14.4905 9.10706 14.1545 8.97567 13.9278 8.87515L12.3376 8.17132C11.9529 8.00171 10.7398 7.43758 10.4184 7.3517Z" fill="#FF2347"/>
<path d="M20.6758 36.4367C20.6454 35.0441 20.6793 33.6241 20.7062 32.2292C20.7248 31.2671 20.829 30.2809 20.7633 29.3128C20.7366 28.9191 20.5652 28.7842 20.2462 28.6309C20.6266 29.6296 20.3582 30.5001 20.0109 31.4502C19.3093 33.3695 18.8506 35.3345 18.2806 37.2935C18.668 37.5015 20.2247 38.3178 20.5509 38.3606C20.7374 38.1428 20.5367 38.0455 20.8541 38.061C20.8882 37.927 20.9419 37.7698 20.984 37.6358C20.9448 37.5227 20.9339 37.4794 20.8635 37.3798C20.8863 37.311 20.9262 37.2246 20.9553 37.156C20.9919 36.9813 21.0254 36.8011 21.0801 36.6323C20.9207 36.5902 20.812 36.5374 20.6758 36.4367Z" fill="#FDFDFD"/>
<path d="M20.8629 37.3799C20.7579 37.5816 20.5705 38.1337 20.5503 38.3606C20.7368 38.1429 20.5361 38.0456 20.8535 38.0611C20.8876 37.9271 20.9413 37.7698 20.9834 37.6358C20.9442 37.5228 20.9333 37.4795 20.8629 37.3799Z" fill="#01010C"/>
<path d="M20.3342 31.6377C20.255 31.7048 19.6081 33.8704 19.5479 34.1212L19.7499 34.2041C19.9135 34.2801 20.1646 34.3699 20.3379 34.4379L20.3342 31.6377Z" fill="white"/>
<path d="M11.1992 12.6221C10.9216 12.6913 10.6198 12.761 10.3349 12.7702C10.1957 13.3069 9.98363 13.9462 9.8224 14.4849L9.03693 17.1684C8.7259 18.2642 8.40371 19.3563 8.07038 20.4447C7.88822 21.0595 7.68812 21.7793 7.48475 22.3799C7.78545 22.3847 8.08643 22.3858 8.38713 22.3831C8.37163 22.2354 8.35124 22.0834 8.3333 21.9355C8.72725 21.7177 9.32077 21.2939 9.6609 21.0071C9.80799 20.4741 9.91539 19.3315 10.0057 18.7277C10.3121 16.6734 10.5339 14.5936 11.1992 12.6221Z" fill="#FF2347"/>
<path d="M22.1055 20.4931C21.6104 20.3402 21.0082 20.155 20.5803 19.8444C20.1825 19.5558 18.653 17.493 18.2521 16.9404C17.354 18.062 16.9382 18.4454 16.3972 19.8405C16.7964 20.1257 17.264 20.3469 17.6368 20.6042C18.3859 21.1212 18.8687 21.1396 19.7422 21.1507C19.8818 21.1524 20.464 21.2876 20.5525 21.2588C20.6038 21.1304 20.6386 21.1439 20.7518 21.1219C21.0747 21.0194 21.8283 20.6745 22.1055 20.4931Z" fill="white"/>
<path d="M22.1053 20.4931C21.6102 20.3402 21.008 20.155 20.5801 19.8444C20.1823 19.5558 18.6528 17.493 18.2519 16.9404C17.3538 18.062 16.938 18.4454 16.397 19.8405C16.7962 20.1257 17.2638 20.3469 17.6366 20.6042C18.3857 21.1212 18.8685 21.1396 19.742 21.1507C19.8816 21.1524 20.4638 21.2876 20.5523 21.2588C20.5404 21.1038 20.1348 21.0464 19.9879 20.9869C19.5622 20.8143 19.0245 20.8024 18.6025 20.6587C18.0312 20.4642 17.3855 20.0395 16.867 19.7122C17.222 18.7794 17.6504 18.2933 18.2839 17.5755C18.9048 18.4085 19.5315 19.2821 20.2209 20.0526C20.4304 20.2868 21.1395 20.4884 21.2513 20.6537C21.2008 20.8807 20.8077 20.9367 20.7516 21.1219C21.0745 21.0194 21.8281 20.6745 22.1053 20.4931ZM23.2877 23.123C23.2582 23.0495 23.2596 23.0518 23.2093 22.9922C23.0598 22.9235 22.8506 22.9534 22.6832 22.9609C22.5503 22.9833 22.4076 23.0045 22.2773 23.0354C21.9895 23.3239 21.5264 23.564 21.1204 23.5738C21.0056 23.5766 20.9555 23.5268 20.8687 23.4557L20.8153 23.4125C20.071 23.5926 19.2567 24.0225 18.5809 23.4995C18.2564 23.2484 18.2058 23.3908 17.8452 23.4521C18.2033 23.5978 18.5953 23.84 18.9668 24.0162C20.2461 24.6231 21.6579 25.1179 22.8289 25.9308C22.9076 25.9855 22.9485 26.024 23.0184 25.9934L23.0295 25.9636C23.0597 25.8868 23.1086 25.7873 23.1437 25.7101C23.4387 25.2119 23.7889 24.8479 24.2891 24.5829C23.8014 23.9651 23.662 23.864 23.2877 23.123Z" fill="#FDFDFD"/>
<path d="M22.9281 23.3541C22.4593 23.3381 22.1019 23.6371 21.6414 23.7926C21.2866 23.9124 20.2172 23.8152 20.046 23.9774L20.049 24.0374C20.1857 24.203 21.2366 24.631 21.5212 24.7597C21.9684 24.9767 22.4135 25.2357 22.8448 25.4868C23.0703 25.1285 23.4162 24.7878 23.7275 24.5136C23.4791 24.2519 23.1133 23.6629 22.9281 23.3541Z" fill="white"/>
<path d="M3.50478 39.4453C3.29761 39.6932 3.40663 40.5222 3.45774 40.8453C3.63882 41.9847 4.23859 43.0025 5.12656 43.6783C6.49142 44.6978 7.92696 44.3692 8.8704 42.9423C9.00498 42.7061 9.10802 42.4946 9.22656 42.249C9.01177 42.2395 8.14555 42.0143 8.08438 42.0981C7.45851 42.9535 6.52595 43.5293 5.36718 42.8433C4.78916 42.5024 4.3536 41.9451 4.14588 41.2815C4.09042 41.1021 3.9909 40.6473 3.93027 40.5067C3.74322 40.0714 3.62713 39.9173 3.50478 39.4453Z" fill="#2F2F2F"/>
<path d="M11.1923 13.4531C10.9713 13.6665 10.3253 17.944 10.2592 18.4717C10.1787 19.1157 10.0422 20.1636 9.90303 20.85C10.0395 20.7632 10.2124 20.6242 10.3454 20.5235L11.8755 19.2848C11.8301 18.8577 11.757 18.4087 11.7007 17.9797C11.6529 17.6126 11.6246 17.0032 11.5319 16.6696C11.4669 16.6292 11.4332 16.6229 11.3622 16.6015C11.2081 16.3593 11.2035 13.8981 11.1923 13.4531ZM23.2782 36.6675C23.0217 36.7722 22.8541 36.8199 22.5877 36.893C22.4816 37.1054 22.4072 37.3409 22.2024 37.4586C21.9538 37.6015 21.2183 37.093 21.1023 37.3527C21.0496 37.2153 21.055 37.229 20.9553 37.1559C20.9262 37.2245 20.8863 37.3108 20.8635 37.3797C20.9339 37.4793 20.9448 37.5226 20.984 37.6356C20.9418 37.7696 20.8882 37.9269 20.854 38.0609L20.7972 38.3234L20.744 38.3556C20.7433 38.4325 20.7506 38.4164 20.801 38.4945C20.5286 39.0276 21.364 39.064 21.655 39.085C22.3961 39.1389 23.1862 39.1679 23.9279 39.1409L24.0775 38.7857C23.9658 38.7728 23.8139 38.7602 23.7064 38.7406C23.8074 38.7378 24.0618 38.7251 24.1127 38.6359L24.0892 38.6092C24.0201 38.6075 23.9697 38.6109 23.9055 38.5785C23.9953 38.5794 24.0297 38.5897 24.1012 38.5412C24.2984 38.2833 24.3744 37.7392 24.3457 37.4181L23.9675 37.5321L23.8424 37.7438C23.7361 37.6881 23.7146 37.6896 23.5948 37.6836C23.5537 37.7527 23.4995 37.8508 23.4519 37.9117C23.4263 37.9002 23.3897 37.8982 23.3598 37.8939L23.4271 37.6767L23.4066 37.6029C23.4441 37.4927 23.4572 37.4732 23.4541 37.3599L23.4145 37.2706C23.3879 37.1645 23.4095 37.0907 23.3524 37.027C23.2718 37.0196 23.312 37.0153 23.2298 37.0543C23.117 37.0615 23.1059 37.0818 23.0197 37.0282C23.0272 36.887 23.181 36.7837 23.2782 36.6675Z" fill="#FF2347"/>
<path d="M20.8006 38.4941C20.5282 39.0273 21.3636 39.0637 21.6546 39.0847C22.3957 39.1386 23.1859 39.1676 23.9275 39.1406L24.0771 38.7854C23.9654 38.7725 23.8135 38.7598 23.7061 38.7403C23.1853 38.7392 21.2755 38.6095 20.8006 38.4941Z" fill="#FF2347"/>
<path d="M20.7968 38.3232L20.7436 38.3554C20.7429 38.4323 20.7502 38.4162 20.8006 38.4943C21.2755 38.6096 23.1853 38.7393 23.7061 38.7405C23.807 38.7376 24.0615 38.725 24.1123 38.6357L24.0888 38.609C24.0197 38.6073 23.9693 38.6108 23.9051 38.5783C22.9226 38.5384 21.784 38.3646 20.7968 38.3232Z" fill="#01010C"/>
<path d="M23.4141 37.271C23.3874 37.1649 23.409 37.0911 23.352 37.0274C23.2714 37.02 23.3115 37.0157 23.2293 37.0547L23.2338 37.1184C23.1208 37.2082 23.056 37.2088 22.9515 37.3258L22.949 37.3726C23.1278 37.4288 23.2108 37.3855 23.3648 37.2991C23.3813 37.29 23.3977 37.2805 23.4141 37.271Z" fill="#02021F"/>
<path d="M23.4535 37.3604C23.3351 37.42 23.246 37.5296 23.2079 37.6622C23.1946 37.7078 23.1986 37.7426 23.2018 37.7893C23.2504 37.8679 23.2531 37.8679 23.3592 37.8943L23.4265 37.6771L23.406 37.6034C23.4435 37.4932 23.4566 37.4737 23.4535 37.3604ZM23.8418 37.7443C23.7355 37.6886 23.714 37.69 23.5942 37.684C23.5531 37.7532 23.4989 37.8513 23.4513 37.9121C23.5341 37.9839 23.5733 37.9862 23.6687 37.9701C23.7647 37.9012 23.7828 37.8496 23.8418 37.7443Z" fill="#01010C"/>
<path d="M21.1025 37.3531C21.0498 37.2156 21.0553 37.2294 20.9555 37.1562C20.9264 37.2248 20.8866 37.3112 20.8637 37.3801C20.9341 37.4796 20.945 37.523 20.9842 37.636C21.0281 37.5425 21.0641 37.4495 21.1025 37.3531Z" fill="#02021F"/>
<path d="M17.629 38.8553C17.2335 38.7577 17.1521 38.7683 16.7562 38.7985C16.7072 38.9442 16.6516 39.1003 16.6076 39.2469C16.0018 39.3261 15.7688 39.2062 15.1996 38.9921C15.0743 39.3072 14.9839 39.7379 14.8996 40.0782C15.4976 40.2685 16.0976 40.3623 16.6819 40.5106C18.224 40.9017 18.922 41.1152 20.4854 40.8283C19.8505 40.2725 19.1536 40.0507 18.5879 39.5677C18.3572 39.7195 18.0245 40.0507 17.8361 40.0871L17.772 40.067L17.7415 40.0062C17.8112 39.8228 17.948 39.8742 17.9681 39.694C18.0494 39.6389 18.0323 39.6676 18.0633 39.5847L18.018 39.5465C17.9352 39.5482 17.9358 39.5439 17.8641 39.5824C17.7847 39.5844 17.7497 39.5901 17.674 39.5686C17.6372 39.4223 17.8507 39.3812 17.9276 39.3416L17.7827 39.2842C17.8246 39.2774 17.9436 39.261 17.9781 39.2472L17.9945 39.1898L18.0265 39.1921C17.8594 39.127 17.5062 39.2633 17.3693 39.3663C17.2545 39.4518 17.2963 39.4435 17.1792 39.4556L17.1123 39.4191C17.0936 39.2303 17.2573 39.2203 17.1599 39.127L17.0004 39.1204L16.983 39.0946C17.1536 38.96 17.4207 38.9069 17.629 38.8553Z" fill="#FF2347"/>
<path d="M17.7826 39.2839C17.8245 39.277 17.9435 39.2606 17.9779 39.2469L17.9943 39.1895L18.0264 39.1918C17.8593 39.1266 17.5061 39.2629 17.3691 39.3659L17.4259 39.4124C17.4181 39.5321 17.3847 39.704 17.4306 39.7912C17.5217 39.8351 17.547 39.8147 17.6613 39.7961C17.7505 39.7149 17.7873 39.6816 17.864 39.582C17.7846 39.584 17.7496 39.5898 17.6739 39.5682C17.637 39.4219 17.8505 39.3809 17.9274 39.3413L17.7826 39.2839Z" fill="#01010C"/>
<path d="M17.7826 39.2839C17.8245 39.277 17.9435 39.2606 17.9779 39.2469L17.9943 39.1895L18.0264 39.1918C17.8593 39.1266 17.5061 39.2629 17.3691 39.3659L17.4259 39.4124C17.5927 39.3734 17.6327 39.3659 17.7826 39.2839Z" fill="#C04F4D"/>
<path d="M17.9673 39.6944C18.0486 39.6393 18.0315 39.668 18.0625 39.585L18.0172 39.5469C17.9343 39.5486 17.935 39.5443 17.8633 39.5827C17.7866 39.6823 17.7498 39.7156 17.6606 39.7968C17.7871 39.7773 17.8511 39.7446 17.9673 39.6944Z" fill="#01010C"/>
<path d="M27.602 19.6572C26.4756 19.7218 26.2942 22.8968 27.5145 23.316C28.7302 23.2168 28.8765 20.0257 27.602 19.6572ZM24.1867 31.3853C24.1012 31.5101 23.9995 33.4033 23.9741 33.7104C23.9295 34.2073 23.8797 34.7037 23.8246 35.1999C23.8058 35.3692 23.6777 36.3597 23.7187 36.4615C24.032 36.595 24.2663 36.9499 24.5234 37.2282C24.7633 36.3387 25.117 35.0931 24.9491 34.1832C24.7804 33.2693 24.4403 32.2851 24.1867 31.3853Z" fill="#FDFDFD"/>
<path d="M24.4302 33.1934C24.3377 33.2984 24.0322 35.9434 24.0242 36.2146L24.2387 36.3598L24.3093 36.393L24.3507 36.3758C24.737 35.5405 24.6165 34.0794 24.4302 33.1934Z" fill="white"/>
<path d="M32.606 44.1712C31.3333 44.2314 31.3876 46.4262 32.7043 46.6237C33.3047 46.6248 33.6617 46.2394 33.7146 45.6142C33.7455 45.2449 33.6351 44.8779 33.4081 44.595C33.1739 44.3043 32.9538 44.1984 32.606 44.1712ZM5.45415 42.2851C4.78178 41.8917 4.81468 41.2823 4.31333 40.9629C4.56917 41.9557 5.16704 42.7264 6.18443 42.8756C6.66892 42.9468 7.08789 42.7623 7.46391 42.4527C7.56124 42.3723 7.80567 42.1442 7.82008 42.0131L7.7763 41.966C7.61181 41.9152 7.43019 41.8406 7.27604 41.8653C6.67137 41.781 5.69177 41.5422 5.06345 41.4111C5.11076 41.5041 5.15698 41.5979 5.20266 41.692C5.22985 42.0246 5.64039 42.1525 5.81956 42.3855C5.63604 42.3927 5.61075 42.2682 5.45415 42.2851Z" fill="#B0C1D3"/>
<path d="M5.45438 42.2851C4.78202 41.8917 4.81491 41.2823 4.31356 40.9629C4.5694 41.9557 5.16727 42.7264 6.18466 42.8756C6.66916 42.9468 7.08813 42.7623 7.46415 42.4527C7.56148 42.3723 7.8059 42.1442 7.82031 42.0131L7.77654 41.966C7.44185 42.0906 7.17812 42.4576 6.76568 42.5482C6.29722 42.6515 5.84209 42.5835 5.45438 42.2851Z" fill="#B0C1D3"/>
<path d="M7.2761 41.8657C7.31362 41.8783 7.33863 41.8924 7.37452 41.9096C7.36773 41.942 7.37398 41.9515 7.34897 41.9704C6.51619 42.5977 5.84273 42.4536 5.20272 41.6924C5.22991 42.0249 5.64045 42.1529 5.81962 42.3859C5.6361 42.3931 5.61082 42.2686 5.45421 42.2855C5.84192 42.5839 6.29705 42.6519 6.7655 42.5486C7.17795 42.4579 7.44168 42.0909 7.77637 41.9664C7.61188 41.9156 7.43026 41.841 7.2761 41.8657Z" fill="#02021F"/>
<path d="M12.7041 10.1855C12.1734 10.321 11.5644 10.3645 11.0092 10.4738C10.908 10.9345 10.6008 11.725 10.5407 12.0766C10.4581 12.3241 10.3999 12.5174 10.3352 12.7708C10.6201 12.7615 10.9219 12.6918 11.1995 12.6226C11.308 12.4104 11.3874 12.1596 11.4673 11.9321C11.8942 11.0608 12.029 10.8642 12.7041 10.1855Z" fill="#FF2347"/>
<path d="M11.4668 11.9316C11.1109 11.937 10.8431 12.0579 10.5402 12.0762C10.4575 12.3237 10.3993 12.517 10.3346 12.7703C10.6196 12.7611 10.9214 12.6913 11.1989 12.6222C11.3074 12.4099 11.3868 12.1592 11.4668 11.9316ZM33.272 43.5963C33.1421 43.5839 32.9579 43.606 32.8235 43.6175C32.877 43.7323 32.927 43.8872 32.97 44.0098C33.8245 44.3937 34.1887 45.332 33.7485 46.2545C33.6935 46.3699 33.5493 46.4832 33.5174 46.5965C33.596 46.6364 33.6361 46.6149 33.7337 46.6049C34.2651 46.5159 34.5665 46.0089 34.6194 45.4769C34.6676 44.9937 34.5309 44.5102 34.2397 44.1337C33.9779 43.7994 33.6754 43.637 33.272 43.5963Z" fill="#FF2347"/>
<path d="M14.9649 40.3178C14.9339 40.3078 14.928 40.3141 14.8918 40.319C14.847 40.3939 14.833 40.552 14.848 40.6318C15.1844 40.9417 16.905 41.1675 17.4157 41.3408C18.1729 41.5979 19.4321 41.649 20.186 41.3534C20.2764 41.3029 20.4044 41.2272 20.4619 41.1411C20.3787 41.0297 19.6265 41.1632 19.4534 41.1695C18.4829 41.2039 17.5251 40.933 16.5846 40.7124C16.0468 40.5861 15.4933 40.4765 14.9649 40.3178Z" fill="#FF2347"/>
<path d="M15.617 38.2798L15.5787 38.2884C15.4846 38.396 15.3823 38.6436 15.3173 38.7839C15.6319 38.9561 15.9349 39.0275 16.2797 39.0777L16.3659 39.0731C16.4503 38.9888 16.5567 38.7119 16.6088 38.5914C16.2072 38.5549 15.9778 38.4439 15.617 38.2798ZM21.5411 36.74C21.5199 36.7372 21.4987 36.7346 21.4774 36.7326C21.3913 36.724 21.2955 36.724 21.2258 36.7851C21.1387 37.0832 21.7476 37.1785 21.925 37.2138C22.2371 37.2439 22.2298 37.1544 22.3389 36.8548C22.0732 36.8146 21.8073 36.7765 21.5411 36.74Z" fill="#E9946B"/>
<path d="M23.8099 37.1727C23.7138 37.1437 23.7017 37.1331 23.6097 37.1601C23.5375 37.237 23.4978 37.3351 23.4542 37.3601C23.4573 37.4734 23.4443 37.4929 23.4068 37.6031L23.4273 37.6769L23.6712 37.3991C23.7563 37.3753 23.7593 37.3747 23.8132 37.305C23.899 37.2981 24.0218 37.3044 24.083 37.2556C24.0155 37.202 23.8982 37.1911 23.8099 37.1727Z" fill="#02021F"/>
<path d="M23.8099 37.1729L23.6684 37.2297L23.6654 37.2586C23.7166 37.2764 23.7602 37.2925 23.8132 37.3051C23.899 37.2982 24.0218 37.3046 24.083 37.2558C24.0155 37.2021 23.8982 37.1912 23.8099 37.1729Z" fill="#7D3B4B"/>
<path d="M4.08295 37.6777C3.96822 37.6872 3.9152 37.8634 3.97801 37.975C4.08214 37.9899 4.06202 37.9779 4.17485 37.9291L4.53809 37.8117C4.35429 37.7724 4.25315 37.7555 4.08295 37.6777Z" fill="#FF2347"/>
<path d="M23.6708 37.3994L23.4268 37.6772L23.3595 37.8944C23.3895 37.8987 23.4261 37.9007 23.4517 37.9122C23.4993 37.8513 23.5534 37.7532 23.5946 37.6841C23.6432 37.5931 23.7191 37.536 23.7246 37.4376L23.6708 37.3994Z" fill="#FF2347"/>
<path d="M33.2715 34.2086C33.1551 34.2034 32.8326 34.2364 32.702 34.2459L32.6906 34.2651L32.7409 34.2679C32.897 34.3202 33.0102 34.4286 33.169 34.3681C33.2361 34.3007 33.2408 34.2984 33.2715 34.2086Z" fill="#C04F4D"/>
<path d="M22.351 5.02879L22.3757 5.045C22.7618 5.29309 24.4954 5.26881 24.7898 4.8471C24.7999 4.79198 24.8164 4.71436 24.767 4.6675C24.3201 4.24354 23.6444 3.98252 23.1702 3.61612C22.9549 3.41213 22.8712 3.06884 22.7121 2.81632C22.0165 1.71228 20.9132 1.00089 19.6747 0.841521C17.7551 0.594488 15.4669 1.94491 15.2716 4.11632C15.1894 5.02996 15.5371 6.33158 16.0358 7.08142C16.1729 7.3252 16.5754 7.67912 16.4474 7.88439C16.4888 7.9264 16.5328 7.97865 16.5833 8.00393C16.4631 8.16809 16.1852 8.5709 16.0482 8.681L16.0507 8.66324C16.0012 8.69535 15.9639 8.72519 15.9177 8.76154C15.949 8.8189 16.009 8.93942 16.0491 8.98209C16.2242 9.25852 16.9542 10.1571 17.1834 10.3634C17.4406 10.4108 17.6357 10.8419 17.8742 10.9767L17.9084 10.939C17.8887 10.8674 17.8697 10.828 17.8404 10.7617C17.8943 10.8073 17.9491 10.8523 18.0009 10.9005C18.0224 10.9979 18.0227 11.004 18.1209 11.0427C18.2368 10.8041 18.4286 10.5436 18.5807 10.3243L18.6377 10.2726L18.8119 9.95111C19.2961 10.3388 19.1989 9.75502 19.8338 9.89789C19.8919 9.92859 20.0627 9.94253 20.136 9.95186C20.7681 9.68004 20.9532 9.10556 21.405 8.53575C21.4213 8.4311 21.4308 8.30864 21.4417 8.20178C21.7864 8.07188 21.9307 8.00422 22.2148 7.7633C22.0087 6.93525 21.6353 6.7906 22.0499 5.94588C22.2107 5.53834 22.0978 5.35512 22.351 5.02879Z" fill="#FF2347"/>
<path d="M21.1984 4.01953L20.8825 4.15689C20.7807 4.15744 20.7377 4.19046 20.6391 4.20538C20.471 4.22857 20.3049 4.26558 20.1423 4.31608C20.2712 4.3626 20.3767 4.38211 20.5151 4.364L20.4303 4.41014C20.4496 4.45666 20.4372 4.44458 20.4714 4.47301L20.5347 4.47973L20.4271 4.52816C20.4195 4.57789 20.4138 4.56085 20.4271 4.60073C20.3228 4.60779 20.2194 4.61594 20.1149 4.61798C19.8808 4.72457 19.6767 4.67496 19.5364 4.83938L19.5142 4.92176C19.5767 4.95522 19.6734 4.91774 19.7701 4.92885C19.4833 5.02316 19.2294 5.14029 19.0837 5.43607C18.7055 6.2037 19.6983 7.4378 18.6223 8.39125C18.8148 9.14059 19.0695 9.47904 19.7817 9.71712L19.6863 9.78245C19.7387 9.82894 19.7901 9.85324 19.8334 9.89783C19.8915 9.92853 20.0623 9.94248 20.1356 9.9518C20.7677 9.67998 20.9528 9.1055 21.4046 8.53569C21.4209 8.43105 21.4304 8.30858 21.4413 8.20172C21.786 8.07182 21.9303 8.00416 22.2144 7.76325C22.0083 6.93519 21.6349 6.79055 22.0494 5.94582C22.2103 5.53828 22.0974 5.35507 22.3506 5.02873C22.2431 4.95969 22.2219 4.96328 22.121 4.98001C21.954 4.88219 21.8 4.83278 21.6331 4.97679L21.5854 4.93926L21.5707 4.86621L21.6214 4.81668L21.6797 4.80535C21.7272 4.73992 21.7073 4.69508 21.7037 4.59462C21.5962 4.48076 21.5186 4.30311 21.442 4.15812C21.3549 4.18266 21.2676 4.20662 21.1803 4.22997C21.2263 4.09789 21.2228 4.15342 21.1984 4.01953Z" fill="#E9946B"/>
<path d="M21.1986 4.01953L20.8826 4.15689C20.7809 4.15744 20.7378 4.19046 20.6392 4.20538C20.4711 4.22857 20.305 4.26558 20.1424 4.31608C20.2713 4.3626 20.3768 4.38211 20.5152 4.364L20.4304 4.41014C20.4497 4.45666 20.4373 4.44458 20.4716 4.47301L20.5349 4.47973L20.4273 4.52816C20.4197 4.57789 20.4139 4.56085 20.4273 4.60073C20.323 4.60779 20.2195 4.61594 20.115 4.61798C19.8809 4.72457 19.6768 4.67496 19.5366 4.83938L19.5144 4.92176C19.5768 4.95522 19.6735 4.91774 19.7703 4.92885C20.2404 4.93625 20.4234 5.07808 20.8759 5.2019C21.1075 5.26529 21.3597 5.27039 21.5979 5.27206C21.8408 5.18012 22.0814 5.28092 22.1211 4.98001C21.9541 4.88219 21.8001 4.83278 21.6332 4.97679L21.5855 4.93926L21.5708 4.86621L21.6216 4.81668L21.6798 4.80535C21.7273 4.73992 21.7075 4.69508 21.7039 4.59462C21.5964 4.48076 21.5187 4.30311 21.4421 4.15812C21.355 4.18266 21.2678 4.20662 21.1804 4.22997C21.2265 4.09789 21.2229 4.15342 21.1986 4.01953Z" fill="url(#paint5_linear_300_10145)"/>
<path d="M21.1985 4.01953L20.8825 4.15689C20.7808 4.15744 20.7377 4.19046 20.6391 4.20538C20.4711 4.22857 20.305 4.26558 20.1424 4.31608C20.2713 4.3626 20.3767 4.38211 20.5151 4.364L20.4303 4.41014C20.4497 4.45666 20.4373 4.44458 20.4715 4.47301L20.5348 4.47973L20.4272 4.52816C20.4196 4.57789 20.4138 4.56085 20.4272 4.60073L20.6091 4.68305C20.7163 4.70552 20.8756 4.7411 20.9801 4.74394C21.1154 4.71898 21.1098 4.74498 21.1822 4.65711C21.3404 4.63987 21.4627 4.59858 21.5692 4.74351L21.5845 4.76414C21.5969 4.78165 21.6092 4.79918 21.6215 4.81668L21.6797 4.80535C21.7272 4.73992 21.7074 4.69508 21.7038 4.59462C21.5963 4.48076 21.5186 4.30311 21.442 4.15812C21.3549 4.18266 21.2677 4.20662 21.1803 4.22997C21.2264 4.09789 21.2228 4.15342 21.1985 4.01953Z" fill="#FF2347"/>
<path d="M21.1982 4.01953L20.8823 4.15689C20.7805 4.15744 20.7375 4.19046 20.6389 4.20538C20.4708 4.22857 20.3047 4.26558 20.1421 4.31608C20.271 4.3626 20.3765 4.38211 20.5149 4.364C20.7958 4.35431 20.913 4.27901 21.1801 4.22997C21.2261 4.09789 21.2226 4.15342 21.1982 4.01953ZM21.1819 4.65711C20.9327 4.61608 20.7634 4.59338 20.5345 4.47973L20.4269 4.52816C20.4193 4.57789 20.4136 4.56085 20.4269 4.60073L20.6089 4.68305C20.7161 4.70552 20.8753 4.7411 20.9798 4.74394C21.1151 4.71898 21.1096 4.74498 21.1819 4.65711Z" fill="#01010C"/>
<path d="M21.6211 4.81712C21.6088 4.79961 21.5965 4.78208 21.5841 4.76458L21.5688 4.74395C21.4623 4.59901 21.34 4.6403 21.1818 4.65755C21.1094 4.74541 21.115 4.71941 20.9796 4.74438L20.9844 4.81723C21.0329 4.89204 21.023 4.85212 21.018 4.9403C21.207 4.94426 21.3961 4.94406 21.585 4.9397L21.5703 4.86664L21.6211 4.81712Z" fill="#02021F"/>
<path d="M20.4274 4.60059C20.3231 4.60764 20.2197 4.61579 20.1152 4.61783C19.8811 4.72443 19.677 4.67482 19.5367 4.83923C19.7479 4.80532 20.2145 4.86276 20.3306 4.76506C20.4092 4.73335 20.4074 4.73671 20.4934 4.73886L20.6094 4.68291L20.4274 4.60059Z" fill="#FF2347"/>
<path d="M20.9798 4.74351C20.8753 4.74067 20.716 4.70508 20.6088 4.68262L20.4928 4.73857C20.4069 4.73642 20.4087 4.73306 20.3301 4.76477C20.5 4.93492 20.6516 4.92218 20.8799 4.93306L21.0181 4.93943C21.0231 4.85125 21.033 4.89117 20.9845 4.81636L20.9798 4.74351Z" fill="#01010C"/>
<path d="M20.9796 4.74351C20.8751 4.74067 20.7159 4.70508 20.6087 4.68262L20.4927 4.73857C20.7201 4.8122 20.8342 4.77573 20.9844 4.81636L20.9796 4.74351Z" fill="#7D3B4B"/>
<path d="M21.0181 4.93996L20.8799 4.93359L20.76 4.96338L20.7485 4.99718C20.8606 5.07287 21.5622 5.07144 21.6328 4.97689L21.5851 4.93936C21.3962 4.94372 21.2071 4.94392 21.0181 4.93996Z" fill="#FF2347"/>
<path d="M22.0499 5.94614C22.027 5.88152 22.029 5.87704 21.9844 5.82324L21.881 5.92123C21.4524 6.68174 21.839 7.00403 22.0373 7.74402C21.553 8.04703 21.3049 7.8617 21.2239 8.51853C20.8081 9.01971 20.4834 9.93792 19.7821 9.71743L19.6867 9.78277C19.7391 9.82925 19.7905 9.85356 19.8338 9.89815C19.8919 9.92885 20.0627 9.94279 20.136 9.95212C20.7681 9.6803 20.9532 9.10582 21.405 8.53601C21.4214 8.43136 21.4308 8.3089 21.4417 8.20204C21.7864 8.07214 21.9307 8.00448 22.2148 7.76356C22.0087 6.93551 21.6353 6.79086 22.0499 5.94614Z" fill="#01010C"/>
<path d="M22.3506 5.02864C22.2431 4.9596 22.2219 4.96318 22.121 4.97991C22.0813 5.28083 21.8407 5.18003 21.5978 5.27196C21.722 5.27035 21.8708 5.27262 21.9927 5.26539C21.9984 5.55827 21.9802 5.64648 21.8806 5.92082L21.984 5.82283C22.0286 5.87663 22.0266 5.88111 22.0494 5.94573C22.2103 5.53818 22.0974 5.35497 22.3506 5.02864Z" fill="url(#paint6_linear_300_10145)"/>
<path d="M21.3609 5.74121C21.196 5.76385 21.121 5.8066 20.9897 5.91432L20.9865 5.95696C21.0639 5.99332 21.3024 5.97068 21.4128 5.97048C21.5236 6.00591 21.6187 6.05369 21.7237 6.01963L21.7393 5.97369C21.6376 5.82643 21.5217 5.80058 21.3609 5.74121ZM20.4985 8.20233C20.4564 8.2316 20.475 8.21788 20.4482 8.27685C20.4958 8.4326 20.6259 8.49929 20.7557 8.57748C20.8251 8.50098 20.8225 8.52821 20.8259 8.44652C20.7546 8.33929 20.6112 8.26979 20.4985 8.20233Z" fill="#01010C"/>
<path d="M22.351 5.02879L22.3757 5.045C22.7618 5.29309 24.4954 5.26881 24.7898 4.8471C24.7999 4.79198 24.8164 4.71436 24.767 4.6675C24.3201 4.24354 23.6444 3.98252 23.1702 3.61612C22.9549 3.41213 22.8712 3.06884 22.7121 2.81632C22.0165 1.71228 20.9132 1.00089 19.6747 0.841521C17.7551 0.594488 15.4669 1.94491 15.2716 4.11632C15.1894 5.02996 15.5371 6.33158 16.0358 7.08142C16.0695 6.99539 15.9848 6.86762 15.9395 6.78266C14.9021 4.8355 15.083 2.62616 17.0939 1.48208C17.2799 1.37623 17.3514 1.21431 17.5637 1.33389C17.4601 1.38262 17.3696 1.42119 17.2753 1.48937C17.7619 1.48634 18.169 1.46841 18.6454 1.59711C19.5726 1.84764 20.2055 2.53351 20.5962 3.43056C20.6639 3.58605 20.7914 4.05112 20.8829 4.15695L21.1988 4.01959C21.2232 4.15347 21.2267 4.09795 21.1807 4.23003C21.2681 4.20667 21.3553 4.18271 21.4424 4.15818C21.519 4.30317 21.5966 4.48082 21.7041 4.59467C21.7077 4.69513 21.7276 4.73998 21.6801 4.8054L21.6219 4.81674L21.5711 4.86626L21.5858 4.93932L21.6335 4.97685C21.8004 4.83284 21.9544 4.88225 22.1214 4.98006C22.2223 4.96334 22.2435 4.95975 22.351 5.02879Z" fill="#FF2347"/>
<path d="M20.585 1.19122C19.4382 0.911898 18.6954 0.852852 17.5635 1.33401C17.4599 1.38274 17.3694 1.42131 17.2751 1.48949C17.7617 1.48646 18.1688 1.46853 18.6452 1.59723C19.5724 1.84775 20.2052 2.53362 20.596 3.43067C20.6637 3.58617 20.7912 4.05124 20.8827 4.15706L21.1986 4.01971C21.223 4.15359 21.2265 4.09807 21.1805 4.23015C21.2678 4.20679 21.3551 4.18283 21.4422 4.1583L21.5908 4.12154C21.5059 4.06705 21.4978 4.0653 21.44 3.98298L21.4597 3.95084C21.4489 3.75139 20.9455 2.8782 20.8481 2.65056C20.6067 2.08637 20.6136 1.85612 20.8019 1.29198C20.7092 1.22802 20.6921 1.22253 20.585 1.19122Z" fill="#FF2347"/>
<path d="M20.8019 1.29217C20.7092 1.22821 20.6921 1.22273 20.585 1.19141C19.9904 2.5801 21.2658 3.61201 21.1986 4.0199C21.223 4.15378 21.2265 4.09826 21.1805 4.23034C21.2678 4.20698 21.3551 4.18302 21.4422 4.15849L21.5908 4.12173C21.5059 4.06724 21.4978 4.06549 21.44 3.98317L21.4597 3.95103C21.4489 3.75158 20.9455 2.87839 20.8481 2.65075C20.6067 2.08656 20.6136 1.85631 20.8019 1.29217Z" fill="#02021F"/>
<path d="M20.8015 1.29199C20.6132 1.85614 20.6064 2.08638 20.8477 2.65057C20.9451 2.87821 21.4485 3.7514 21.4594 3.95085C21.8001 3.95415 22.5113 3.70623 22.8218 3.54121C22.8415 3.48113 22.8441 3.45508 22.8241 3.39143C22.5886 2.63977 21.7781 1.80034 21.1298 1.43599C21.0483 1.39181 20.891 1.3299 20.8015 1.29199Z" fill="#FF2347"/>
<path d="M21.1298 1.43555C21.1069 1.95733 21.258 2.507 21.5984 2.89547C21.6712 2.97736 21.7465 3.05667 21.8242 3.13326C21.9962 3.02169 22.1831 2.86075 22.3765 2.88841C22.5605 2.98425 22.6621 3.42421 22.8218 3.54077C22.8415 3.48068 22.8441 3.45463 22.8241 3.39099C22.5886 2.63932 21.7781 1.7999 21.1298 1.43555Z" fill="#FF2347"/>
<path d="M22.351 5.02879L22.3757 5.045C22.7618 5.29309 24.4954 5.26881 24.7898 4.8471C24.7999 4.79198 24.8164 4.71436 24.767 4.6675C24.3201 4.24354 23.6444 3.98252 23.1702 3.61612C22.9549 3.41213 22.8712 3.06884 22.7121 2.81632C22.0165 1.71228 20.9132 1.00089 19.6747 0.841521C17.7551 0.594488 15.4669 1.94491 15.2716 4.11632C15.1894 5.02996 15.5371 6.33158 16.0358 7.08142C16.0695 6.99539 15.9848 6.86762 15.9395 6.78266C14.9021 4.8355 15.083 2.62616 17.0939 1.48208C17.2799 1.37623 17.3514 1.21431 17.5637 1.33389C18.6956 0.852734 19.4384 0.911781 20.5852 1.1911C20.6923 1.22242 20.7094 1.2279 20.8021 1.29186C20.8915 1.32977 21.0489 1.39168 21.1304 1.43586C21.7787 1.80021 22.5891 2.63964 22.8247 3.3913C22.8447 3.45495 22.842 3.481 22.8224 3.54109C22.5119 3.7061 21.8007 3.95402 21.4599 3.95072L21.4402 3.98286C21.498 4.06518 21.5061 4.06693 21.591 4.12142C22.0619 3.96332 22.4712 3.85006 22.9285 3.64513C23.3207 3.89936 24.4074 4.51912 24.6941 4.77611C23.7848 5.20617 22.5669 5.11051 21.7041 4.59467C21.7077 4.69513 21.7276 4.73998 21.6801 4.8054L21.6219 4.81674L21.5711 4.86626L21.5858 4.93932L21.6335 4.97685C21.8004 4.83284 21.9544 4.88225 22.1214 4.98006C22.2223 4.96334 22.2435 4.95975 22.351 5.02879Z" fill="#01010C"/>
<path d="M17.5636 1.33417C17.3514 1.21459 17.2798 1.37652 17.0938 1.48236C15.083 2.62644 14.9021 4.83578 15.9395 6.78294C15.9848 6.8679 16.0694 6.99567 16.0358 7.0817C16.1729 7.32548 16.5753 7.6794 16.4474 7.88467C16.4887 7.92668 16.5327 7.97893 16.5832 8.00421C16.463 8.16837 16.1851 8.57118 16.0482 8.68128L16.0506 8.66352C16.0011 8.69563 15.9638 8.72547 15.9177 8.76182C15.9489 8.81918 16.009 8.9397 16.049 8.98237C16.2242 9.2588 16.9542 10.1574 17.1833 10.3637C17.4406 10.4111 17.6356 10.8422 17.8742 10.977L17.9083 10.9392C17.8886 10.8677 17.8697 10.8283 17.8403 10.762C17.8943 10.8076 17.9491 10.8525 18.0008 10.9007C18.0223 10.9982 18.0226 11.0043 18.1209 11.043C18.2367 10.8044 18.4285 10.5439 18.5806 10.3246L18.6376 10.2729L18.8119 9.95139C19.296 10.3391 19.1988 9.7553 19.8337 9.89817C19.7904 9.85357 19.739 9.82927 19.6867 9.78279L19.782 9.71745C19.0699 9.47938 18.8151 9.14093 18.6227 8.39158C19.6987 7.43814 18.7059 6.20403 19.084 5.43641C19.2297 5.14063 19.4836 5.0235 19.7705 4.92918C19.6737 4.91808 19.577 4.95555 19.5146 4.9221L19.5368 4.83972C19.677 4.6753 19.8811 4.72491 20.1152 4.61831C20.2197 4.61627 20.3232 4.60813 20.4275 4.60107C20.4141 4.56118 20.4199 4.57823 20.4275 4.5285L20.5351 4.48006L20.4718 4.47335C20.4376 4.44491 20.4499 4.45699 20.4306 4.41048L20.5154 4.36434C20.377 4.38245 20.2715 4.36293 20.1426 4.31642C19.9105 4.37217 19.1702 4.53272 18.98 4.62907C17.7889 5.2332 18.8338 6.6632 18.4724 7.62029C18.2407 8.23377 17.6772 8.04131 17.2265 7.85965C16.4508 7.54706 16.0976 6.92067 15.8021 6.14946C15.4348 5.1911 15.301 4.16971 15.7072 3.19247C15.9331 2.63277 16.3847 2.02606 16.9359 1.81639C17.4849 1.60754 18.4176 1.67363 18.945 1.92766C19.9404 2.40719 20.2768 3.2111 20.6394 4.20572C20.738 4.1908 20.7811 4.15777 20.8828 4.15723C20.7914 4.0514 20.6639 3.58633 20.5961 3.43084C20.2054 2.53379 19.5726 1.84792 18.6453 1.59739C18.1689 1.46869 17.7618 1.48662 17.2752 1.48965C17.3695 1.42147 17.46 1.3829 17.5636 1.33417Z" fill="#02021F"/>
<path d="M18.0324 8.59038C17.5727 8.56206 17.2066 8.43727 16.8409 8.14499C16.7573 8.07808 16.6892 8.01822 16.583 8.00391C16.4628 8.16807 16.1849 8.57087 16.0479 8.68097L16.0504 8.66321C16.0009 8.69532 15.9636 8.72516 15.9175 8.76152C15.9487 8.81888 16.0088 8.93939 16.0488 8.98206C16.224 9.2585 16.954 10.1571 17.1831 10.3634C17.4404 10.4108 17.6354 10.8419 17.874 10.9767L17.9081 10.9389C17.8884 10.8674 17.8694 10.828 17.8401 10.7617C17.8941 10.8073 17.9488 10.8522 18.0006 10.9004C18.0221 10.9979 18.0224 11.004 18.1206 11.0427C18.2365 10.804 18.4283 10.5436 18.5804 10.3243C18.5422 10.2716 18.5037 10.1998 18.4703 10.1417C18.5076 10.0687 18.6312 9.88704 18.6807 9.81003C18.3658 9.48994 18.0943 9.05445 18.0324 8.59038Z" fill="#E9946B"/>
<path d="M16.299 9.03037C16.1531 9.0553 16.1574 9.04891 16.0489 8.98242C16.2241 9.25886 16.9541 10.1575 17.1832 10.3637C17.4405 10.4111 17.6355 10.8422 17.8741 10.9771L17.9082 10.9393C17.8885 10.8678 17.8696 10.8283 17.8402 10.762C17.8036 10.698 17.5503 10.4483 17.4852 10.38C17.0707 9.94419 16.668 9.51071 16.299 9.03037Z" fill="#02021F"/>
<path d="M18.4706 10.1421C18.3241 10.3461 18.1047 10.6699 18.0009 10.9008C18.0224 10.9983 18.0227 11.0044 18.1209 11.0431C18.2368 10.8044 18.4286 10.544 18.5807 10.3247C18.5426 10.272 18.5041 10.2002 18.4706 10.1421ZM16.0482 8.68137L16.0507 8.66361C16.0012 8.69572 15.9639 8.72556 15.9178 8.76191C15.949 8.81927 16.0091 8.93979 16.0491 8.98246C16.1576 9.04894 16.1533 9.05534 16.2991 9.0304C16.2139 8.91537 16.1302 8.79901 16.0482 8.68137ZM20.4718 4.47344C20.3437 4.46856 20.2469 4.46222 20.1365 4.53246L20.1153 4.6184C20.2198 4.61636 20.3233 4.60821 20.4275 4.60116C20.4142 4.56127 20.42 4.57832 20.4275 4.52859L20.5352 4.48015L20.4718 4.47344Z" fill="#01010C"/>
<path d="M28.2617 43.1699C27.426 43.5249 26.5072 43.7946 25.6562 44.1954C25.8163 44.266 26.1865 44.3774 26.3653 44.4371C26.9465 44.635 27.6587 44.8675 28.2479 45.0167C28.133 44.3329 28.1738 43.8488 28.2617 43.1699Z" fill="#65595F"/>
<path d="M38.4917 48.1113C38.3444 48.3635 37.8427 49.1463 37.6037 49.2516C37.3698 49.2422 37.45 49.0706 37.2815 48.9974C37.2012 49.0376 37.2061 49.037 37.1616 49.1208C37.1765 49.2846 37.2943 49.3386 37.4148 49.4298C37.3882 49.5618 36.9461 49.8815 36.8163 49.9701C35.9514 50.5509 34.9455 50.8542 33.9205 50.8436C33.9897 50.9058 34.0114 50.9165 34.1005 50.9354L34.0759 50.9414C33.9794 50.9664 33.9731 50.9664 33.8931 51.0232C34.3491 51.0789 34.9317 50.9767 35.3782 50.8665C36.6905 50.5426 37.936 49.4904 38.6279 48.2772L38.4917 48.1113Z" fill="url(#paint7_linear_300_10145)"/>
<path d="M39.3486 44.2373C39.2913 43.6677 38.7474 41.4491 38.2006 41.3271L38.1581 41.3567C38.1294 41.4953 38.1738 41.5834 38.2397 41.6953L38.259 41.7274C38.2021 41.8666 38.1723 41.9346 38.0615 42.0316L37.9779 42.1059L38.0595 42.1472C38.0665 42.2218 38.0241 42.2594 37.9776 42.3357C38.2311 42.2012 38.263 42.13 38.4334 41.8812C38.6584 42.3926 38.8904 42.9062 39.0147 43.4583C38.6386 44.3613 38.4728 43.7265 38.1471 43.9044C38.1374 43.9461 38.1259 43.9466 38.1554 43.9836C38.4988 44.4169 38.8669 44.1171 39.1334 43.788C39.1517 44.0207 39.1767 44.2792 39.1875 44.5102C39.2458 44.5185 39.2177 44.5168 39.2822 44.4878C39.3437 44.4109 39.3384 44.3406 39.3486 44.2373Z" fill="#01010C"/>
<path d="M39.108 47.1739C39.4464 46.2356 39.4691 45.2207 39.3483 44.2373C39.3381 44.3406 39.3434 44.4109 39.2819 44.4878C39.2174 44.5168 39.2455 44.5185 39.1872 44.5102C39.2142 44.8924 39.2411 45.2264 39.1435 45.6006C39.2159 45.7478 39.1568 45.7199 39.1818 45.8255C39.2012 46.0978 39.0446 46.7087 38.9643 46.9764C38.9955 47.0703 39.0289 47.113 39.108 47.1739Z" fill="url(#paint8_linear_300_10145)"/>
<path d="M38.9637 46.9766C38.8686 47.2362 38.7936 47.471 38.564 47.6299C38.5851 47.7189 38.6012 47.7487 38.5753 47.8314C38.6073 47.9487 38.5519 48.005 38.4911 48.1111L38.6274 48.277C38.8236 47.9281 38.9845 47.5585 39.1074 47.174C39.0283 47.1131 38.995 47.0704 38.9637 46.9766Z" fill="#02021F"/>
<path d="M38.5642 47.63L38.5288 47.6326C38.1626 47.6573 38.184 47.379 37.9813 47.4544C37.9057 47.8042 38.3584 47.9198 38.5755 47.8315C38.6014 47.7488 38.5853 47.719 38.5642 47.63Z" fill="#02021F"/>
<path d="M37.9775 42.1064C37.6539 42.1676 37.6338 41.9099 37.44 42.0181C37.398 42.3033 37.776 42.3733 37.9772 42.3363C38.0236 42.26 38.066 42.2224 38.0591 42.1478L37.9775 42.1064ZM38.901 45.8318C38.814 45.8877 38.7832 45.9219 38.6789 45.9113C38.5792 45.8542 38.3738 45.6857 38.3048 45.6883C38.1596 45.9971 38.6299 46.1101 38.8687 46.0657C38.9356 45.9451 38.9214 45.9595 38.901 45.8318Z" fill="#01010C"/>
<path d="M39.1433 45.6006C39.0501 45.701 39.0084 45.7452 38.901 45.8313C38.9214 45.959 38.9356 45.9446 38.8686 46.0651C39.0289 45.9948 39.0742 45.9584 39.1816 45.8256C39.1566 45.72 39.2157 45.7478 39.1433 45.6006Z" fill="#02021F"/>
<path d="M6.63988 14.9554L7.07783 15.7504L7.16303 15.9045L7.02384 15.8161L6.55809 15.5163L6.54782 15.7822L7.56271 16.4595L7.60777 16.2431L6.98139 15.0613L6.90285 14.9125L7.03516 14.9966L7.68229 15.4069L7.61306 15.1012L6.64394 14.5189L6.63988 14.9554Z" fill="white" stroke="white" stroke-width="0.096"/>
<path d="M6.06735 14.7343C5.9508 14.679 5.85112 14.6553 5.76772 14.6601C5.68319 14.665 5.61699 14.6934 5.5675 14.7425C5.51682 14.7928 5.48136 14.8605 5.46124 14.9457C5.42817 15.0862 5.44411 15.2143 5.50503 15.3338C5.56504 15.4513 5.67774 15.5547 5.85404 15.6383C5.85971 15.641 5.86578 15.6419 5.87137 15.6444L5.59418 15.0481L5.57252 15.0017L5.6095 14.9831L6.08401 14.7432C6.07847 14.7405 6.07303 14.737 6.06735 14.7343ZM6.25491 15.3253L6.37362 15.5801C6.40399 15.5353 6.42705 15.4791 6.44307 15.4113C6.45856 15.3457 6.46341 15.2824 6.45809 15.2221L6.25491 15.3253Z" fill="white" stroke="white" stroke-width="0.096"/>
<path d="M5.11107 13.8339C5.1003 13.994 5.091 14.1268 5.08272 14.2321C5.0725 14.3622 5.06445 14.4591 5.05838 14.5219C5.05328 14.6013 5.04445 14.722 5.03174 14.8838C5.01871 15.0496 5.00714 15.1769 4.99856 15.2649L5.29999 15.4069L5.31113 15.2435C5.32806 14.999 5.34223 14.81 5.35263 14.6775C5.36251 14.5516 5.37794 14.3734 5.39823 14.1442L5.4125 13.9759L5.11107 13.8339Z" fill="white" stroke="white" stroke-width="0.096"/>
<path d="M5.01343 14.5096C5.00836 14.5886 4.99945 14.7093 4.9867 14.8716C4.97137 15.0666 4.95915 15.2074 4.95006 15.294L5.34047 15.478L5.35625 15.2553C5.37319 15.0109 5.38684 14.8225 5.39722 14.6904C5.40709 14.5647 5.4222 14.3872 5.4425 14.1579L5.46082 13.9467L5.0704 13.7628C5.05799 13.9497 5.04718 14.102 5.03791 14.2198C5.02763 14.3507 5.01947 14.4472 5.01343 14.5096Z" fill="white" stroke="white" stroke-width="0.288" stroke-miterlimit="2.61313"/>
<path d="M4.4426 13.8183C4.47538 13.8838 4.50871 13.9438 4.54686 13.9962L4.65431 14.1438L4.3238 13.987L4.35223 14.2393C4.41005 14.2622 4.38683 14.2528 4.45664 14.2825L4.49596 14.3001L4.49273 14.3431L4.4768 14.5489L4.47769 14.5494C4.47158 14.6243 4.45193 14.6854 4.41315 14.7225C4.36753 14.7661 4.30017 14.7559 4.23033 14.7228C4.22474 14.7202 4.21938 14.7158 4.2139 14.7129C4.213 14.7406 4.21234 14.7686 4.2101 14.796C4.20845 14.8161 4.20415 14.856 4.19776 14.9154C4.23064 14.9378 4.25836 14.9571 4.28168 14.9701C4.31243 14.9873 4.35315 15.0083 4.40427 15.0325C4.52568 15.0901 4.59892 15.0882 4.64019 15.0543C4.68644 15.016 4.71834 14.9412 4.72848 14.8181L4.75342 14.4902L4.75804 14.4287L4.81156 14.4573C4.84569 14.4753 4.88067 14.4945 4.9166 14.5146L4.93596 14.2732C4.88604 14.2413 4.84379 14.1968 4.81045 14.1394C4.77743 14.0824 4.75729 14.0238 4.74912 13.9638L4.4426 13.8183Z" fill="white" stroke="white" stroke-width="0.096"/>
</g>
<defs>
<linearGradient id="paint0_linear_300_10145" x1="35.4729" y1="39.5738" x2="35.1529" y2="41.0493" gradientUnits="userSpaceOnUse">
<stop/>
<stop offset="1" stop-color="#020015"/>
</linearGradient>
<linearGradient id="paint1_linear_300_10145" x1="29.9632" y1="45.379" x2="30.8464" y2="45.2093" gradientUnits="userSpaceOnUse">
<stop/>
<stop offset="1" stop-color="#05031B"/>
</linearGradient>
<linearGradient id="paint2_linear_300_10145" x1="33.8567" y1="40.5844" x2="33.5916" y2="41.2206" gradientUnits="userSpaceOnUse">
<stop stop-color="#000003"/>
<stop offset="1" stop-color="#020218"/>
</linearGradient>
<linearGradient id="paint3_linear_300_10145" x1="15.8759" y1="35.197" x2="14.354" y2="35.1233" gradientUnits="userSpaceOnUse">
<stop/>
<stop offset="1" stop-color="#03021D"/>
</linearGradient>
<linearGradient id="paint4_linear_300_10145" x1="25.1152" y1="21.4431" x2="24.3003" y2="23.5742" gradientUnits="userSpaceOnUse">
<stop stop-color="#090000"/>
<stop offset="1" stop-color="#000120"/>
</linearGradient>
<linearGradient id="paint5_linear_300_10145" x1="20.7973" y1="5.14839" x2="20.8238" y2="4.90917" gradientUnits="userSpaceOnUse">
<stop stop-color="#010009"/>
<stop offset="1" stop-color="#04041D"/>
</linearGradient>
<linearGradient id="paint6_linear_300_10145" x1="21.9867" y1="5.75543" x2="22.2368" y2="5.00988" gradientUnits="userSpaceOnUse">
<stop stop-color="#12111C"/>
<stop offset="1" stop-color="#000228"/>
</linearGradient>
<linearGradient id="paint7_linear_300_10145" x1="36.8975" y1="50.1957" x2="35.9144" y2="49.2044" gradientUnits="userSpaceOnUse">
<stop stop-color="#02000F"/>
<stop offset="1" stop-color="#030530"/>
</linearGradient>
<linearGradient id="paint8_linear_300_10145" x1="38.9798" y1="45.7931" x2="39.4202" y2="45.7712" gradientUnits="userSpaceOnUse">
<stop stop-color="#030009"/>
<stop offset="1" stop-color="#0B0D3B"/>
</linearGradient>
<clipPath id="clip0_300_10145">
<rect width="41" height="51.6493" fill="white" transform="matrix(-1 0 0 1 41 0)"/>
</clipPath>
</defs>
</svg>
