<svg width="28" height="26" viewBox="0 0 28 26" fill="none" xmlns="http://www.w3.org/2000/svg">
<path d="M12.2148 24.3241C11.4238 24.3241 10.5908 24.1351 9.72982 23.7711C8.88984 23.4141 8.04286 22.9241 7.21687 22.3292C6.39789 21.7272 5.6069 21.0552 4.85792 20.3202C4.11593 19.5712 3.44395 18.7802 2.84896 17.9682C2.24697 17.1283 1.76398 16.2883 1.42099 15.4763C1.057 14.6083 0.875 13.7683 0.875 12.9773C0.875 12.4314 0.972998 11.9134 1.16199 11.4304C1.35799 10.9334 1.67298 10.4714 2.09998 10.0724C2.63896 9.54041 3.25495 9.27441 3.91294 9.27441C4.18593 9.27441 4.46593 9.33741 4.70392 9.44941C4.97692 9.57541 5.20791 9.7644 5.37591 10.0164L6.99988 12.3054C7.14687 12.5083 7.25887 12.7043 7.33587 12.9003C7.42687 13.1103 7.47587 13.3203 7.47587 13.5233C7.47587 13.7893 7.39887 14.0483 7.25187 14.2933C7.14687 14.4823 6.98588 14.6853 6.78288 14.8883L6.30689 15.3853C6.31389 15.4063 6.32089 15.4203 6.32789 15.4343C6.41189 15.5813 6.57989 15.8333 6.90188 16.2113C7.24487 16.6033 7.56687 16.9603 7.88886 17.2893C8.30185 17.6952 8.64484 18.0172 8.96684 18.2832C9.36583 18.6192 9.62482 18.7872 9.77882 18.8642L9.76482 18.8992L10.2758 18.3952C10.4928 18.1782 10.7028 18.0172 10.9058 17.9122C11.2908 17.6742 11.7808 17.6322 12.2708 17.8352C12.4528 17.9122 12.6488 18.0172 12.8588 18.1642L15.1827 19.8162C15.4417 19.9912 15.6307 20.2152 15.7427 20.4812C15.8477 20.7472 15.8967 20.9922 15.8967 21.2372C15.8967 21.5732 15.8197 21.9092 15.6727 22.2242C15.5257 22.5391 15.3437 22.8121 15.1127 23.0641C14.7137 23.5051 14.2797 23.8201 13.7757 24.0231C13.2928 24.2191 12.7678 24.3241 12.2148 24.3241ZM3.91294 10.3244C3.52795 10.3244 3.17095 10.4924 2.82796 10.8284C2.50597 11.1294 2.28197 11.4584 2.14197 11.8154C1.99498 12.1794 1.92498 12.5643 1.92498 12.9773C1.92498 13.6283 2.07898 14.3353 2.38697 15.0633C2.70196 15.8053 3.14295 16.5753 3.70294 17.3453C4.26293 18.1152 4.89992 18.8642 5.59991 19.5712C6.29989 20.2642 7.05588 20.9082 7.83286 21.4752C8.58884 22.0282 9.36583 22.4761 10.1358 22.7981C11.3328 23.3091 12.4528 23.4281 13.3767 23.0431C13.7337 22.8961 14.0487 22.6721 14.3357 22.3502C14.4967 22.1752 14.6227 21.9862 14.7277 21.7622C14.8117 21.5872 14.8537 21.4052 14.8537 21.2232C14.8537 21.1112 14.8327 20.9992 14.7767 20.8732C14.7557 20.8312 14.7137 20.7542 14.5807 20.6632L12.2568 19.0112C12.1168 18.9132 11.9908 18.8432 11.8718 18.7942C11.7178 18.7312 11.6548 18.6682 11.4168 18.8152C11.2768 18.8852 11.1508 18.9902 11.0108 19.1302L10.4788 19.6552C10.2058 19.9212 9.78582 19.9842 9.46383 19.8652L9.27483 19.7812C8.98784 19.6272 8.65184 19.3892 8.28085 19.0742C7.94486 18.7872 7.58086 18.4512 7.13987 18.0172C6.79688 17.6672 6.45389 17.2963 6.0969 16.8833C5.7679 16.4983 5.52991 16.1693 5.38291 15.8963L5.29891 15.6863C5.25691 15.5253 5.24291 15.4343 5.24291 15.3363C5.24291 15.0843 5.33391 14.8603 5.50891 14.6853L6.0339 14.1393C6.17389 13.9993 6.27889 13.8663 6.34889 13.7473C6.40489 13.6563 6.42589 13.5793 6.42589 13.5093C6.42589 13.4533 6.40489 13.3693 6.36989 13.2853C6.32089 13.1733 6.24389 13.0473 6.14589 12.9143L4.52193 10.6184C4.45193 10.5204 4.36793 10.4504 4.26293 10.4014C4.15093 10.3524 4.03194 10.3244 3.91294 10.3244ZM9.76482 18.9062L9.65282 19.3822L9.84182 18.8922C9.80682 18.8852 9.77882 18.8922 9.76482 18.9062Z" fill="white"/>
<path d="M18.1931 15.9456C17.7731 15.9456 17.3741 15.7356 17.1011 15.3646L16.2611 14.2446C16.2611 14.2516 16.2261 14.2306 16.2121 14.2306H15.9531C13.5592 14.2306 12.0752 13.5796 12.0752 10.3527V7.55273C12.0752 4.60579 13.8742 3.83581 15.3861 3.70281C15.5541 3.68181 15.7501 3.6748 15.9531 3.6748H20.433C22.967 3.6748 24.311 5.01878 24.311 7.55273V10.3527C24.311 10.5557 24.3039 10.7517 24.2759 10.9407C24.1499 12.4316 23.38 14.2306 20.433 14.2306H20.153L19.285 15.3646C19.012 15.7356 18.6131 15.9456 18.1931 15.9456ZM15.9531 4.72478C15.7921 4.72478 15.6381 4.73178 15.4911 4.74578C13.8672 4.88578 13.1252 5.77477 13.1252 7.55273V10.3527C13.1252 12.7536 13.8672 13.1806 15.9531 13.1806H16.2331C16.5481 13.1806 16.9051 13.3556 17.1011 13.6076L17.9411 14.7346C18.0951 14.9446 18.2911 14.9446 18.4451 14.7346L19.285 13.6146C19.488 13.3416 19.81 13.1806 20.153 13.1806H20.433C22.211 13.1806 23.1 12.4316 23.233 10.8357C23.254 10.6677 23.261 10.5137 23.261 10.3527V7.55273C23.261 5.59977 22.386 4.72478 20.433 4.72478H15.9531Z" fill="white"/>
<path d="M18.1931 9.93317C17.8012 9.93317 17.4932 9.61818 17.4932 9.23319C17.4932 8.8482 17.8082 8.5332 18.1931 8.5332C18.5781 8.5332 18.8931 8.8482 18.8931 9.23319C18.8931 9.61818 18.5851 9.93317 18.1931 9.93317Z" fill="white"/>
<path d="M20.4334 9.93317C20.0414 9.93317 19.7334 9.61818 19.7334 9.23319C19.7334 8.8482 20.0484 8.5332 20.4334 8.5332C20.8184 8.5332 21.1334 8.8482 21.1334 9.23319C21.1334 9.61818 20.8184 9.93317 20.4334 9.93317Z" fill="white"/>
<path d="M15.9598 9.93317C15.5678 9.93317 15.2598 9.61818 15.2598 9.23319C15.2598 8.8482 15.5748 8.5332 15.9598 8.5332C16.3447 8.5332 16.6597 8.8482 16.6597 9.23319C16.6597 9.61818 16.3447 9.93317 15.9598 9.93317Z" fill="white"/>
<path d="M23.758 11.4028C23.618 11.4028 23.478 11.3468 23.38 11.2418C23.268 11.1298 23.219 10.9688 23.24 10.8148C23.261 10.6678 23.268 10.5138 23.268 10.3528V7.55287C23.268 5.59991 22.393 4.72492 20.44 4.72492H15.9601C15.7991 4.72492 15.6451 4.73192 15.4981 4.74592C15.3441 4.76692 15.1831 4.71091 15.0711 4.60592C14.9591 4.49392 14.8961 4.33994 14.9101 4.18594C15.0361 2.67397 15.8131 0.875 18.7601 0.875H23.24C25.7739 0.875 27.1179 2.21898 27.1179 4.75293V7.55287C27.1179 10.4998 25.3189 11.2698 23.807 11.4028C23.786 11.4028 23.772 11.4028 23.758 11.4028ZM16.0441 3.67494H20.433C22.967 3.67494 24.311 5.01892 24.311 7.55287V10.2618C25.5009 9.96782 26.0609 9.09284 26.0609 7.55287V4.75293C26.0609 2.79997 25.1859 1.92498 23.233 1.92498H18.7531C17.2131 1.92498 16.3451 2.48497 16.0441 3.67494Z" fill="white"/>
</svg>
