<svg width="18" height="20" viewBox="0 0 18 20" fill="none" xmlns="http://www.w3.org/2000/svg">
<path d="M0.75 18.7503H16.75M2.416 10.9373C1.98962 11.3647 1.75011 11.9437 1.75 12.5473V15.7503H4.973C5.577 15.7503 6.156 15.5103 6.583 15.0823L16.083 5.57734C16.5092 5.14993 16.7486 4.57095 16.7486 3.96734C16.7486 3.36372 16.5092 2.78474 16.083 2.35734L15.145 1.41734C14.9335 1.20569 14.6823 1.03781 14.4058 0.923304C14.1294 0.808798 13.833 0.749907 13.5338 0.75C13.2346 0.750093 12.9383 0.809167 12.6619 0.923845C12.3855 1.03852 12.1344 1.20656 11.923 1.41834L2.416 10.9373Z" stroke="black" stroke-width="1.5" stroke-linecap="round" stroke-linejoin="round"/>
</svg>
