<svg width="22" height="22" viewBox="0 0 22 22" fill="none" xmlns="http://www.w3.org/2000/svg">
<path d="M9.15717 20.8817C8.60717 20.8817 8.08467 20.6067 7.72717 20.1208L6.62718 18.6542C6.62718 18.6633 6.58134 18.6358 6.56301 18.6358H6.22385C3.08885 18.6358 1.14551 17.7833 1.14551 13.5575V9.89084C1.14551 6.03167 3.50135 5.02334 5.48135 4.84917C5.70135 4.82167 5.95802 4.8125 6.22385 4.8125H12.0905C15.4088 4.8125 17.1689 6.57251 17.1689 9.89084V13.5575C17.1689 13.8233 17.1597 14.08 17.123 14.3275C16.958 16.28 15.9497 18.6358 12.0905 18.6358H11.7238L10.5872 20.1208C10.2297 20.6067 9.70717 20.8817 9.15717 20.8817ZM6.22385 6.1875C6.01302 6.1875 5.81135 6.19667 5.61885 6.215C3.49218 6.39833 2.52051 7.56251 2.52051 9.89084V13.5575C2.52051 16.7017 3.49218 17.2608 6.22385 17.2608H6.59051C7.00301 17.2608 7.4705 17.49 7.72717 17.82L8.82718 19.2958C9.02885 19.5708 9.28551 19.5708 9.48718 19.2958L10.5872 17.8292C10.853 17.4717 11.2747 17.2608 11.7238 17.2608H12.0905C14.4188 17.2608 15.583 16.28 15.7572 14.19C15.7847 13.97 15.7939 13.7683 15.7939 13.5575V9.89084C15.7939 7.33334 14.648 6.1875 12.0905 6.1875H6.22385V6.1875Z" fill="black"/>
<path d="M9.15788 13.0072C8.64454 13.0072 8.24121 12.5947 8.24121 12.0905C8.24121 11.5863 8.65371 11.1738 9.15788 11.1738C9.66204 11.1738 10.0745 11.5863 10.0745 12.0905C10.0745 12.5947 9.67121 13.0072 9.15788 13.0072Z" fill="black"/>
<path d="M12.0905 13.0072C11.5772 13.0072 11.1738 12.5947 11.1738 12.0905C11.1738 11.5863 11.5863 11.1738 12.0905 11.1738C12.5947 11.1738 13.0072 11.5863 13.0072 12.0905C13.0072 12.5947 12.5947 13.0072 12.0905 13.0072Z" fill="black"/>
<path d="M6.23307 13.0072C5.71974 13.0072 5.31641 12.5947 5.31641 12.0905C5.31641 11.5863 5.72891 11.1738 6.23307 11.1738C6.73724 11.1738 7.14974 11.5863 7.14974 12.0905C7.14974 12.5947 6.73724 13.0072 6.23307 13.0072Z" fill="black"/>
<path d="M16.4447 14.9322C16.2613 14.9322 16.078 14.8588 15.9497 14.7213C15.803 14.5747 15.7389 14.3639 15.7664 14.1622C15.7939 13.9697 15.803 13.768 15.803 13.5572V9.89052C15.803 7.33302 14.6572 6.18717 12.0997 6.18717H6.233C6.02216 6.18717 5.82052 6.19634 5.62802 6.21467C5.42635 6.24217 5.21551 6.16883 5.06884 6.03133C4.92217 5.88466 4.83966 5.68302 4.858 5.48135C5.023 3.50135 6.0405 1.14551 9.89966 1.14551H15.7664C19.0847 1.14551 20.8447 2.90552 20.8447 6.22385V9.89052C20.8447 13.7497 18.4888 14.758 16.5088 14.9322C16.4813 14.9322 16.463 14.9322 16.4447 14.9322ZM6.34302 4.81217H12.0905C15.4088 4.81217 17.1689 6.57218 17.1689 9.89052V13.438C18.7272 13.053 19.4605 11.9072 19.4605 9.89052V6.22385C19.4605 3.66635 18.3147 2.52051 15.7572 2.52051H9.89052C7.87385 2.52051 6.73719 3.25384 6.34302 4.81217Z" fill="black"/>
</svg>
