<svg width="21" height="19" viewBox="0 0 21 19" fill="none" xmlns="http://www.w3.org/2000/svg">
<path d="M14.25 0.75H5.75C4.42392 0.75 3.15215 1.27678 2.21447 2.21447C1.27678 3.15215 0.75 4.42392 0.75 5.75V12.75C0.75 13.4066 0.879329 14.0568 1.1306 14.6634C1.38188 15.27 1.75017 15.8212 2.21447 16.2855C3.15215 17.2232 4.42392 17.75 5.75 17.75H14.25C14.9066 17.75 15.5568 17.6207 16.1634 17.3694C16.77 17.1181 17.3212 16.7498 17.7855 16.2855C18.2498 15.8212 18.6181 15.27 18.8694 14.6634C19.1207 14.0568 19.25 13.4066 19.25 12.75V5.75C19.25 5.09339 19.1207 4.44321 18.8694 3.83658C18.6181 3.22995 18.2498 2.67876 17.7855 2.21447C17.3212 1.75017 16.77 1.38188 16.1634 1.1306C15.5568 0.879329 14.9066 0.75 14.25 0.75Z" stroke="black" stroke-width="1.5" stroke-linecap="round" stroke-linejoin="round"/>
<path d="M1 14.2496L3.75 11.0496C4.10984 10.6922 4.58211 10.4701 5.08688 10.4209C5.59165 10.3717 6.09792 10.4984 6.52 10.7796C6.94208 11.0608 7.44835 11.1875 7.95312 11.1383C8.45789 11.0891 8.93016 10.867 9.29 10.5096L11.62 8.17961C12.2895 7.50784 13.1759 7.09582 14.121 7.01705C15.0662 6.93829 16.0086 7.19792 16.78 7.74961L19.27 9.67961M6 7.41961C6.21799 7.41961 6.43385 7.37667 6.63525 7.29325C6.83666 7.20983 7.01965 7.08755 7.1738 6.93341C7.32794 6.77926 7.45022 6.59626 7.53364 6.39486C7.61706 6.19346 7.66 5.9776 7.66 5.75961C7.66 5.54162 7.61706 5.32576 7.53364 5.12435C7.45022 4.92295 7.32794 4.73996 7.1738 4.58581C7.01965 4.43167 6.83666 4.30939 6.63525 4.22597C6.43385 4.14255 6.21799 4.09961 6 4.09961C5.55974 4.09961 5.13751 4.2745 4.8262 4.58581C4.51489 4.89712 4.34 5.31935 4.34 5.75961C4.34 6.19987 4.51489 6.6221 4.8262 6.93341C5.13751 7.24472 5.55974 7.41961 6 7.41961Z" stroke="black" stroke-width="1.5" stroke-linecap="round" stroke-linejoin="round"/>
</svg>
