<svg width="21" height="21" viewBox="0 0 21 21" fill="none" xmlns="http://www.w3.org/2000/svg">
<path fill-rule="evenodd" clip-rule="evenodd" d="M6.42454 3.79362C6.65027 2.68608 7.63607 1.90234 8.76475 1.90234H11.5277C12.6564 1.90234 13.6413 2.68608 13.8679 3.79362C13.8929 3.91558 13.9581 4.02558 14.0532 4.10594C14.1483 4.1863 14.2676 4.23233 14.3921 4.23663H14.42C15.6061 4.28905 16.5175 4.43447 17.2784 4.93413C17.7578 5.24864 18.1704 5.65276 18.4917 6.12537C18.8916 6.71211 19.0674 7.38678 19.152 8.2018C19.2348 8.99906 19.2348 9.99753 19.2348 11.2623V11.3342C19.2348 12.599 19.2348 13.5983 19.152 14.3947C19.0674 15.2097 18.8916 15.8844 18.4917 16.472C18.1686 16.9442 17.7565 17.3489 17.2784 17.6632C16.6841 18.053 16.0018 18.2255 15.175 18.3075C14.365 18.3886 13.3496 18.3886 12.0595 18.3886H8.23296C6.9428 18.3886 5.92741 18.3886 5.11747 18.3075C4.29062 18.2255 3.60834 18.0538 3.01399 17.6632C2.53584 17.3486 2.12372 16.9437 1.80077 16.4712C1.40087 15.8844 1.22502 15.2097 1.14047 14.3947C1.05762 13.5983 1.05762 12.599 1.05762 11.3342V11.2623C1.05762 9.99753 1.05762 8.99906 1.14047 8.2018C1.22502 7.38678 1.40087 6.71211 1.80077 6.12537C2.12372 5.65282 2.53584 5.24788 3.01399 4.93328C3.7749 4.43447 4.68629 4.28905 5.87246 4.23748L5.88683 4.23663H5.90036C6.02477 4.23233 6.14412 4.1863 6.2392 4.10594C6.33428 4.02558 6.39956 3.91558 6.42454 3.79362ZM8.76475 3.17052C8.22366 3.17052 7.76965 3.54505 7.66735 4.04641C7.50249 4.85804 6.78216 5.4972 5.91558 5.50481C4.77591 5.55554 4.16549 5.69504 3.70895 5.99433C3.3703 6.21746 3.07828 6.50432 2.84913 6.83893C2.61578 7.18134 2.47544 7.62013 2.40104 8.33284C2.32664 9.05655 2.32579 9.98993 2.32579 11.2987C2.32579 12.6074 2.32579 13.54 2.40188 14.2637C2.47544 14.9764 2.61578 15.4152 2.84997 15.7584C3.07655 16.0915 3.36823 16.379 3.7098 16.603C4.06235 16.8338 4.51382 16.9733 5.24344 17.0461C5.98237 17.1196 6.93434 17.1205 8.26762 17.1205H12.0248C13.3572 17.1205 14.3092 17.1205 15.049 17.0461C15.7786 16.9733 16.2301 16.8347 16.5826 16.603C16.9242 16.379 17.2167 16.0915 17.4433 15.7576C17.6766 15.4152 17.817 14.9764 17.8914 14.2637C17.9658 13.54 17.9666 12.6066 17.9666 11.2987C17.9666 9.99077 17.9666 9.05655 17.8905 8.33284C17.817 7.62013 17.6766 7.18134 17.4424 6.83893C17.2134 6.50402 16.9214 6.21687 16.5826 5.99348C16.1278 5.69504 15.5174 5.55554 14.376 5.50481C13.5103 5.49635 12.7899 4.85888 12.6251 4.04641C12.571 3.79638 12.4322 3.57269 12.2323 3.41311C12.0324 3.25354 11.7835 3.16785 11.5277 3.17052H8.76475ZM10.1462 9.08867C9.6417 9.08867 9.15785 9.28909 8.80111 9.64583C8.44436 10.0026 8.24395 10.4864 8.24395 10.9909C8.24395 11.4955 8.44436 11.9793 8.80111 12.336C9.15785 12.6928 9.6417 12.8932 10.1462 12.8932C10.6507 12.8932 11.1346 12.6928 11.4913 12.336C11.8481 11.9793 12.0485 11.4955 12.0485 10.9909C12.0485 10.4864 11.8481 10.0026 11.4913 9.64583C11.1346 9.28909 10.6507 9.08867 10.1462 9.08867ZM6.97577 10.9909C6.97577 10.1501 7.3098 9.34367 7.90437 8.7491C8.49894 8.15453 9.30536 7.8205 10.1462 7.8205C10.9871 7.8205 11.7935 8.15453 12.3881 8.7491C12.9826 9.34367 13.3167 10.1501 13.3167 10.9909C13.3167 11.8318 12.9826 12.6382 12.3881 13.2328C11.7935 13.8274 10.9871 14.1614 10.1462 14.1614C9.30536 14.1614 8.49894 13.8274 7.90437 13.2328C7.3098 12.6382 6.97577 11.8318 6.97577 10.9909ZM14.5848 8.45459C14.5848 8.28642 14.6516 8.12513 14.7705 8.00622C14.8895 7.8873 15.0507 7.8205 15.2189 7.8205H16.0644C16.2325 7.8205 16.3938 7.8873 16.5127 8.00622C16.6316 8.12513 16.6985 8.28642 16.6985 8.45459C16.6985 8.62276 16.6316 8.78404 16.5127 8.90295C16.3938 9.02187 16.2325 9.08867 16.0644 9.08867H15.2189C15.0507 9.08867 14.8895 9.02187 14.7705 8.90295C14.6516 8.78404 14.5848 8.62276 14.5848 8.45459Z" fill="black"/>
</svg>
