<svg width="17" height="17" viewBox="0 0 17 17" fill="none" xmlns="http://www.w3.org/2000/svg">
<path d="M9.20191 2.1386C8.75778 1.3314 7.58887 1.3314 7.14406 2.1386C6.55912 3.2015 6.07693 4.31779 5.70405 5.4723C5.68646 5.51746 5.65553 5.5562 5.61537 5.58334C5.57521 5.61048 5.52773 5.62473 5.47926 5.6242C4.47995 5.65017 3.48389 5.74944 2.4991 5.92119C1.58836 6.07991 1.18715 7.17252 1.87923 7.84893C1.96642 7.93431 2.05452 8.01923 2.14352 8.10369C2.81027 8.73503 3.51624 9.32361 4.25722 9.86591C4.29089 9.88825 4.31639 9.92092 4.3299 9.95899C4.34341 9.99707 4.3442 10.0385 4.33215 10.0771C3.95808 11.1994 3.69078 12.3546 3.53381 13.5272C3.40439 14.4972 4.43161 15.0926 5.23335 14.6812C6.20668 14.1823 7.13735 13.6043 8.01597 12.953C8.06199 12.9205 8.11696 12.903 8.17333 12.903C8.22969 12.903 8.28467 12.9205 8.33068 12.953C9.20878 13.6051 10.1395 14.1831 11.1133 14.6812C11.915 15.0926 12.9423 14.4972 12.8128 13.5272C12.6561 12.3547 12.389 11.1995 12.0152 10.0771C12.0031 10.0385 12.0039 9.99707 12.0174 9.95899C12.0309 9.92092 12.0564 9.88825 12.0901 9.86591C12.9297 9.2514 13.7241 8.57758 14.4674 7.84961C15.1595 7.17252 14.7583 6.07991 13.8476 5.92119C12.8625 5.7494 11.8663 5.65014 10.8667 5.6242C10.8184 5.62459 10.771 5.61027 10.731 5.58314C10.691 5.55601 10.6601 5.51735 10.6426 5.4723C10.2709 4.31735 9.78798 3.20095 9.20191 2.1386Z" fill="#FFC107"/>
</svg>
