<svg width="22" height="22" viewBox="0 0 22 22" fill="none" xmlns="http://www.w3.org/2000/svg">
<path d="M19.2494 6.16894C19.231 6.16894 19.2035 6.16894 19.176 6.16894C14.3269 5.68311 9.48687 5.49977 4.69271 5.98561L2.82271 6.16894C2.43771 6.20561 2.09854 5.93061 2.06187 5.54561C2.02521 5.16061 2.30021 4.83061 2.67604 4.79394L4.54604 4.61061C9.42271 4.11561 14.3635 4.30811 19.3135 4.79394C19.6894 4.83061 19.9644 5.16977 19.9277 5.54561C19.9002 5.90311 19.5977 6.16894 19.2494 6.16894Z" fill="#FF2347"/>
<path d="M7.7917 5.24301C7.75503 5.24301 7.71836 5.24301 7.67253 5.23384C7.30586 5.16967 7.0492 4.81217 7.11336 4.44551L7.31503 3.24467C7.4617 2.36467 7.66336 1.14551 9.7992 1.14551H12.2009C14.3459 1.14551 14.5475 2.41051 14.685 3.25384L14.8867 4.44551C14.9509 4.82134 14.6942 5.17884 14.3275 5.23384C13.9517 5.29801 13.5942 5.04134 13.5392 4.67467L13.3375 3.48301C13.2092 2.68551 13.1817 2.52967 12.21 2.52967H9.80836C8.8367 2.52967 8.81836 2.65801 8.68086 3.47384L8.47003 4.66551C8.41503 5.00467 8.1217 5.24301 7.7917 5.24301Z" fill="#FF2347"/>
<path d="M13.9422 20.8546H8.0572C4.85804 20.8546 4.7297 19.0854 4.62887 17.6554L4.03304 8.4246C4.00554 8.04877 4.29887 7.71877 4.6747 7.69127C5.0597 7.67294 5.38054 7.9571 5.40804 8.33294L6.00387 17.5638C6.1047 18.9571 6.14137 19.4796 8.0572 19.4796H13.9422C15.8672 19.4796 15.9039 18.9571 15.9955 17.5638L16.5914 8.33294C16.6189 7.9571 16.9489 7.67294 17.3247 7.69127C17.7005 7.71877 17.9939 8.0396 17.9664 8.4246L17.3705 17.6554C17.2697 19.0854 17.1414 20.8546 13.9422 20.8546Z" fill="#FF2347"/>
<path d="M12.5212 15.8125H9.46875C9.09292 15.8125 8.78125 15.5008 8.78125 15.125C8.78125 14.7492 9.09292 14.4375 9.46875 14.4375H12.5212C12.8971 14.4375 13.2087 14.7492 13.2087 15.125C13.2087 15.5008 12.8971 15.8125 12.5212 15.8125Z" fill="#FF2347"/>
<path d="M13.2923 12.1455H8.70898C8.33315 12.1455 8.02148 11.8338 8.02148 11.458C8.02148 11.0822 8.33315 10.7705 8.70898 10.7705H13.2923C13.6682 10.7705 13.9798 11.0822 13.9798 11.458C13.9798 11.8338 13.6682 12.1455 13.2923 12.1455Z" fill="#FF2347"/>
</svg>
