<svg width="21" height="21" viewBox="0 0 21 21" fill="none" xmlns="http://www.w3.org/2000/svg">
<path fill-rule="evenodd" clip-rule="evenodd" d="M7.60981 5.28418C7.30449 5.28418 7.00215 5.34432 6.72007 5.46116C6.43799 5.578 6.18169 5.74926 5.96579 5.96515C5.7499 6.18105 5.57864 6.43735 5.4618 6.71943C5.34496 7.00151 5.28482 7.30385 5.28482 7.60917C5.28482 7.91449 5.34496 8.21682 5.4618 8.4989C5.57864 8.78098 5.7499 9.03729 5.96579 9.25319C6.18169 9.46908 6.43799 9.64034 6.72007 9.75718C7.00215 9.87402 7.30449 9.93416 7.60981 9.93416C8.22643 9.93416 8.8178 9.68921 9.25382 9.25319C9.68984 8.81716 9.9348 8.22579 9.9348 7.60917C9.9348 6.99254 9.68984 6.40117 9.25382 5.96515C8.8178 5.52913 8.22643 5.28418 7.60981 5.28418ZM6.55299 7.60917C6.55299 7.32888 6.66434 7.06008 6.86253 6.86189C7.06072 6.6637 7.32952 6.55236 7.60981 6.55236C7.89009 6.55236 8.1589 6.6637 8.35709 6.86189C8.55528 7.06008 8.66662 7.32888 8.66662 7.60917C8.66662 7.88945 8.55528 8.15826 8.35709 8.35645C8.1589 8.55464 7.89009 8.66598 7.60981 8.66598C7.32952 8.66598 7.06072 8.55464 6.86253 8.35645C6.66434 8.15826 6.55299 7.88945 6.55299 7.60917ZM7.60981 10.3569C6.59865 10.3569 5.65259 10.5598 4.9348 10.9191C4.25591 11.259 3.59392 11.8457 3.59392 12.6819V12.7351C3.59223 13.1663 3.59054 13.8934 4.27873 14.3914C4.59831 14.6222 5.02019 14.7701 5.54268 14.864C6.0694 14.9587 6.74491 15.0069 7.60981 15.0069C8.4747 15.0069 9.15022 14.9587 9.67693 14.864C10.1994 14.7701 10.6213 14.6222 10.9409 14.3905C11.6291 13.8926 11.6274 13.1663 11.6257 12.7343V12.6819C11.6257 11.8449 10.9637 11.259 10.2848 10.9191C9.56703 10.5606 8.62097 10.3569 7.60981 10.3569ZM4.86209 12.6819C4.86209 12.5846 4.95763 12.3259 5.5021 12.0537C6.00937 11.8001 6.75337 11.6251 7.60981 11.6251C8.46625 11.6251 9.21109 11.8001 9.71752 12.0537C10.262 12.3259 10.3575 12.5846 10.3575 12.6819C10.3575 13.1925 10.3246 13.2712 10.1969 13.3642C10.0937 13.4386 9.88153 13.5383 9.45289 13.6161C9.02847 13.6922 8.43581 13.7387 7.60981 13.7387C6.7838 13.7387 6.19114 13.6922 5.76673 13.6161C5.33808 13.5383 5.12587 13.4386 5.02273 13.3642C4.89422 13.2712 4.86209 13.1925 4.86209 12.6819Z" fill="black"/>
<path d="M16.0635 10.7791C16.2317 10.7791 16.3929 10.7123 16.5119 10.5934C16.6308 10.4745 16.6976 10.3132 16.6976 10.145C16.6976 9.97688 16.6308 9.8156 16.5119 9.69668C16.3929 9.57777 16.2317 9.51096 16.0635 9.51096H12.6817C12.5135 9.51096 12.3522 9.57777 12.2333 9.69668C12.1144 9.8156 12.0476 9.97688 12.0476 10.145C12.0476 10.3132 12.1144 10.4745 12.2333 10.5934C12.3522 10.7123 12.5135 10.7791 12.6817 10.7791H16.0635ZM16.6976 7.6087C16.6976 7.77687 16.6308 7.93815 16.5119 8.05706C16.3929 8.17598 16.2317 8.24279 16.0635 8.24279H11.8362C11.6681 8.24279 11.5068 8.17598 11.3879 8.05706C11.269 7.93815 11.2021 7.77687 11.2021 7.6087C11.2021 7.44053 11.269 7.27924 11.3879 7.16033C11.5068 7.04142 11.6681 6.97461 11.8362 6.97461H16.0635C16.2317 6.97461 16.3929 7.04142 16.5119 7.16033C16.6308 7.27924 16.6976 7.44053 16.6976 7.6087ZM16.0635 13.3155C16.2317 13.3155 16.3929 13.2487 16.5119 13.1298C16.6308 13.0109 16.6976 12.8496 16.6976 12.6814C16.6976 12.5132 16.6308 12.3519 16.5119 12.233C16.3929 12.1141 16.2317 12.0473 16.0635 12.0473H13.5271C13.359 12.0473 13.1977 12.1141 13.0788 12.233C12.9599 12.3519 12.893 12.5132 12.893 12.6814C12.893 12.8496 12.9599 13.0109 13.0788 13.1298C13.1977 13.2487 13.359 13.3155 13.5271 13.3155H16.0635Z" fill="black"/>
<path fill-rule="evenodd" clip-rule="evenodd" d="M8.40712 2.74707H11.8836C13.4376 2.74707 14.6685 2.74707 15.6315 2.87642C16.6224 3.01001 17.4247 3.29069 18.0579 3.92309C18.6903 4.55633 18.971 5.35867 19.1046 6.34954C19.234 7.31335 19.234 8.54348 19.234 10.0974V10.1921C19.234 11.746 19.234 12.977 19.1046 13.94C18.971 14.9309 18.6903 15.7332 18.0579 16.3664C17.4247 16.9988 16.6224 17.2795 15.6315 17.4131C14.6677 17.5425 13.4376 17.5425 11.8836 17.5425H8.40796C6.85403 17.5425 5.62305 17.5425 4.66008 17.4131C3.66921 17.2795 2.86688 16.9988 2.23364 16.3664C1.60124 15.7332 1.32055 14.9309 1.18697 13.94C1.05762 12.9762 1.05762 11.746 1.05762 10.1921V10.0974C1.05762 8.54348 1.05762 7.3125 1.18697 6.34954C1.32055 5.35867 1.60124 4.55633 2.23364 3.92309C2.86688 3.29069 3.66921 3.01001 4.66008 2.87642C5.6239 2.74707 6.85318 2.74707 8.40712 2.74707ZM4.82748 4.13361C3.97696 4.24775 3.4866 4.46249 3.12813 4.82012C2.77135 5.17774 2.5566 5.6681 2.44247 6.51863C2.32579 7.38775 2.3241 8.53249 2.3241 10.1448C2.3241 11.757 2.32579 12.9026 2.44247 13.7717C2.5566 14.6214 2.77135 15.1118 3.12897 15.4694C3.4866 15.827 3.97696 16.0418 4.82748 16.1559C5.6966 16.2726 6.84134 16.2743 8.45362 16.2743H11.8354C13.4477 16.2743 14.5933 16.2726 15.4624 16.1559C16.3121 16.0418 16.8024 15.827 17.1601 15.4694C17.5177 15.1118 17.7324 14.6214 17.8466 13.7709C17.9632 12.9018 17.9649 11.757 17.9649 10.1448C17.9649 8.53249 17.9632 7.38775 17.8466 6.51778C17.7324 5.6681 17.5177 5.17774 17.1601 4.82012C16.8024 4.46249 16.3121 4.24775 15.4616 4.13361C14.5933 4.01694 13.4477 4.01525 11.8354 4.01525H8.45362C6.84134 4.01525 5.69745 4.01694 4.82748 4.13361Z" fill="black"/>
</svg>
