<svg width="58" height="74" viewBox="0 0 58 74" fill="none" xmlns="http://www.w3.org/2000/svg">
<g clip-path="url(#clip0_274_10106)">
<path d="M0 0H58V49.4873V51.661V73.0649H0V0Z" fill="#2F2F2F"/>
<path d="M0 0H58V49.4873C57.6035 48.0556 57.3854 46.6536 56.6742 45.3254C56.38 44.7766 55.9719 44.4693 55.6808 43.9457C55.3912 43.0426 55.7165 41.7728 54.6881 41.2046C54.2196 40.9456 53.4592 40.7901 52.9104 40.739C53.0331 40.086 53.3269 38.66 53.1181 38.0724C52.6242 36.6834 50.6023 36.9925 49.4758 37.0233C49.1546 34.9567 48.0312 34.1883 46.0958 34.059C46.0092 33.4669 45.9258 33.0403 45.7469 32.47C46.3996 32.4799 47.3212 32.592 47.9435 32.4129C48.5823 32.229 56.1062 28.1877 56.3354 27.9637C56.4958 27.807 56.5665 27.6023 56.6396 27.3921C56.2304 25.6446 55.4573 23.2026 54.9138 21.496L53.5242 17.0054C53.1 15.6603 52.68 14.3117 52.255 12.9644C52.1077 12.4984 52.3088 12.3692 52.2835 12.12C52.2388 11.6811 51.9285 10.5744 51.6677 10.1984C51.6288 10.1419 51.2138 10.0638 51.1154 10.056C50.115 9.97633 49.2688 9.90326 48.2504 9.85731C46.6246 9.78396 44.6292 9.48789 43.0435 9.60962C42.9154 9.61944 41.2808 10.3583 41.0704 10.4513L36.9434 12.273C36.0833 11.9031 35.6857 11.8325 35.216 10.9902C37.2178 8.50715 37.7006 4.51411 35.0557 2.28813C33.7157 1.16044 31.9707 0.553597 30.259 0.719499C28.5508 0.872265 26.9732 1.74581 25.8833 3.14238C25.4809 3.65392 25.2164 4.17436 24.9157 4.75389C24.206 5.17198 22.6506 5.95183 22.3205 6.65991C22.9843 8.3072 24.8387 7.78803 26.1631 7.78941C26.2092 8.38388 26.3332 8.59637 26.6267 9.11311C26.4946 9.72198 26.2187 10.3473 26.0576 10.9644C26.4 11.658 26.8563 11.6138 27.143 11.9774C27.7548 12.753 28.2239 14.1212 29.2251 14.4969C29.5853 14.6321 29.8559 14.5383 30.2095 14.429L30.5357 14.683C30.3977 15.1449 30.0992 15.6159 29.8591 16.0334C29.1598 17.2493 28.6283 18.5531 28.0381 19.8287C27.7793 20.388 27.4365 20.9124 27.1727 21.4672L27.6842 21.9621C27.3371 22.5243 26.5228 24.3398 26.0831 24.6422C25.6691 24.9269 25.102 25.074 24.6354 25.2486C23.9721 25.4969 23.2937 25.8015 22.604 25.9534C22.3563 26.008 22.1433 26.0128 21.8927 25.989C21.4315 24.8976 20.8197 23.8438 20.3401 22.7579C20.2497 22.5532 20.1425 22.3294 20.0383 22.1333C21.3688 20.9584 20.5192 17.6684 19.603 16.3998C19.3589 16.0619 19.0448 15.8882 18.6752 15.7484C16.6758 16.2959 16.8477 19.4042 17.5443 20.937C17.8677 21.6487 18.3384 21.9031 18.756 22.5062C19.3268 23.601 19.7907 24.816 20.3744 25.9134C20.1527 25.9922 19.3233 26.3258 19.1418 26.3487C17.3792 26.571 16.8841 27.2125 16.5372 29.0731C16.1754 28.9249 15.9684 28.8322 15.5809 29.0179C14.7988 29.3927 14.8442 30.3147 15.6652 30.6113C15.9214 30.7038 16.2105 30.7344 16.4717 30.8073C16.8009 31.8201 16.8688 32.4523 17.6654 33.2438C16.9652 33.7162 16.5262 34.3958 16.0262 35.0838C13.8381 38.0943 11.7683 41.2732 10.1427 44.6634C9.36992 46.2753 8.99112 46.7879 9.98269 48.408C10.0015 48.4388 10.0207 48.4692 10.0403 48.4997C5.85946 50.041 3.19423 52.4606 1.41811 56.7459C1.11293 57.4822 1.67623 57.7209 2.2281 58.0026C2.47843 58.1305 2.88277 58.2819 3.14866 58.346C1.81293 60.9021 1.31125 63.6249 2.05343 66.5021C2.42683 67.95 3.39326 69.6008 4.53796 70.5166C4.22265 70.7735 3.5407 71.2716 3.92169 71.7652C4.20773 72.1358 4.87692 72.2775 5.29908 72.3668C6.94169 72.7142 8.59642 72.5056 10.2497 72.5916C12.3157 72.6988 14.4037 72.9188 16.472 72.9777C18.0206 73.0215 19.5686 72.8746 21.1112 72.7759C28.1672 72.3944 35.1157 70.7898 41.6777 68.0263C43.3088 67.3151 44.9169 66.5467 46.4992 65.7219C49.2288 64.3207 52.1219 62.8249 54.4865 60.7921C55.0535 60.3054 56.1131 59.2439 56.2888 58.4767C56.4265 57.8747 55.2958 57.7696 54.93 57.7599C54.8304 57.7298 54.5123 57.714 54.385 57.7038L54.3592 57.6539C54.8185 57.5516 55.7415 57.3357 55.685 56.6347C55.6473 56.1695 55.4462 55.5363 55.3339 55.0658C55.1704 54.3826 55.0285 53.6435 54.8292 52.9741C55.9 52.5057 56.9308 52.1931 58 51.661V73.0649H0V0Z" fill="white"/>
<path d="M54.9302 57.7594C54.6594 57.763 54.1564 57.78 53.9141 57.7199C54.0621 57.6724 54.2048 57.6684 54.3594 57.6543L54.3852 57.7038C54.5125 57.7139 54.8306 57.7296 54.9302 57.7594Z" fill="#ABA3A8"/>
<path d="M36.9384 12.8485C37.4097 12.6694 37.9988 12.3865 38.4681 12.1791L41.3854 10.8863C41.8124 10.6953 42.8997 10.1765 43.3055 10.0993C43.7235 10.0199 44.7993 10.1375 45.2758 10.1723L47.9928 10.3479C49.0708 10.414 50.1697 10.5212 51.2493 10.5797C51.3228 10.5837 51.3551 10.6925 51.3866 10.7557L51.8385 12.1807C51.7239 12.2639 51.6162 12.3429 51.4974 12.4196C52.6666 15.9893 53.7758 19.5805 54.8247 23.1916C55.1781 24.3851 55.6374 25.6325 55.9481 26.8431C56.022 27.0918 56.0535 27.2285 56.0978 27.4854C55.5297 27.8442 54.8793 28.1756 54.2862 28.4949L50.8647 30.3127L48.8689 31.386C47.2862 32.2213 47.6439 31.8727 45.9497 31.9958C45.8847 32.1397 45.8197 32.2814 45.7597 32.4277C45.4597 32.1559 45.3612 31.9244 44.9212 32.001L44.9085 32.0614C44.9597 32.1424 45.2055 32.5334 45.2274 32.6021C45.4301 33.2374 45.5485 33.9167 45.5501 34.5753C47.4962 34.6374 48.9639 35.1433 48.9735 37.5157C49.3989 37.5144 51.0062 37.4866 51.3181 37.5404C53.2281 37.5423 52.5704 39.3135 52.3962 40.5972L52.2851 41.2167C56.7743 41.9636 53.9016 42.4718 55.5616 44.7323C56.9151 46.3475 57.4654 49.0724 57.6974 51.1669C56.6958 51.6398 55.4501 52.0997 54.4135 52.5109L54.1254 52.6497C54.3966 53.5452 55.0108 55.925 55.0931 56.7901C54.5966 56.9825 53.9131 57.1302 53.3824 57.1777C53.342 59.899 51.1216 62.9937 48.3904 62.9304C47.5497 62.9109 45.9485 62.7396 45.1362 62.494C44.5662 62.3219 43.7516 61.1009 43.3712 60.5614C41.7439 60.5598 39.9589 60.6008 38.3463 60.5566L38.142 60.1746C37.3796 60.3784 36.6338 60.6731 35.8795 60.9129C33.1752 61.7719 30.4667 62.7018 27.6543 63.07C25.9608 63.2916 24.5056 62.7688 22.8894 62.3365C21.188 61.7272 19.5009 61.0745 17.8295 60.3788L17.3584 60.1892C17.7557 62.3738 17.7738 64.345 16.9876 66.448C15.9099 69.3312 13.169 72.193 10.0542 72.1783C9.94107 72.098 9.93214 72.098 9.79557 72.0627L9.76076 72.0541C9.88687 72.0273 9.91749 72.0123 10.0155 71.9242C10.8121 71.8195 11.3788 71.7071 12.1289 71.4213C14.0073 70.7053 15.7268 68.6984 16.5156 66.7849C17.6335 64.073 17.5956 61.7292 16.6193 59.0027C16.2809 58.8363 15.929 58.7243 15.5743 58.6009L15.2649 59.2057C15.4599 59.3542 15.6561 59.6546 15.7469 59.8864C16.401 60.9742 16.5113 62.6754 16.3858 63.9427C16.0464 67.3723 13.1638 70.9602 9.64099 70.4252C6.59953 69.9637 5.12241 66.3823 5.52487 63.4349C5.76791 61.655 6.61676 59.7118 8.00422 58.5984C9.25711 57.3417 11.8803 56.637 13.3931 57.6392L13.4855 57.6177C13.719 57.4054 13.8738 57.3104 13.7554 56.9804C12.6182 55.5622 8.64968 56.9167 7.21818 57.4139C5.53141 57.9993 4.38995 58.4413 2.64861 57.5723C2.53704 57.5166 2.28556 57.3855 2.17945 57.347C2.04526 57.2751 2.01752 57.2735 1.95125 57.1412C1.89422 56.7206 3.05371 54.7073 3.31801 54.2977C4.75449 52.0717 6.80807 50.4444 9.16372 49.4393C9.67187 49.2226 10.3074 48.9104 10.8478 48.8004C10.4796 48.3101 9.86499 47.2604 9.93414 46.6369C9.98007 46.2224 10.3415 45.4565 10.5315 45.0579C12.1744 41.61 14.3426 38.3408 16.5592 35.2741C16.8416 34.8834 17.302 34.2423 17.633 33.9254C17.9167 33.6538 18.8331 33.8017 19.2275 33.8515C19.1926 33.7339 18.7774 33.4568 18.6594 33.3682C17.5575 32.5404 17.2271 31.7931 17.0198 30.4315C16.5934 30.3558 15.6171 30.2088 15.4973 29.705C15.638 29.1981 16.6621 29.5339 16.9796 29.615C17.0758 28.9698 17.152 28.2576 17.5206 27.7205C17.9985 27.0242 18.5402 26.9751 19.2757 26.85C19.5781 26.6152 20.7371 26.4119 21.1414 26.3614C20.5454 24.9386 19.7468 23.4074 19.093 21.992C18.9337 21.6471 18.3223 21.4142 18.0601 20.8267C17.5723 19.7334 17.4709 18.6213 17.753 17.4458C18.1263 16.1046 18.9196 15.9972 19.5203 17.2625C20.0393 18.3558 20.7291 21.2522 19.4274 21.9158L19.376 21.9417C19.7286 22.6338 20.071 23.4346 20.4134 24.1434C20.7429 24.8255 21.1659 25.6626 21.4194 26.3596C21.6494 26.3754 22.4967 26.5254 22.606 26.5036C23.8099 26.2635 25.3011 25.4523 26.4724 25.1292L26.5252 25.115C26.8589 24.7537 27.3386 23.6629 27.6284 23.1512C27.802 22.7635 28.0398 22.3345 28.2519 21.9697C28.0786 21.8021 27.9094 21.63 27.7444 21.4534C27.957 21.0987 28.2291 20.6521 28.4063 20.2828C29.2033 18.6218 29.7611 16.9365 30.8248 15.426C30.8699 15.2987 30.925 15.069 30.9621 14.9306C31.0434 14.7984 31.3582 14.66 31.5081 14.5819L31.6355 14.5313L31.7161 14.6046C31.9313 14.9148 32.2026 15.2832 32.3665 15.6208C32.5055 15.5661 32.5059 15.5574 32.5363 15.4196C32.6095 15.3514 32.687 15.2878 32.7633 15.2233C32.7218 15.3171 32.695 15.3728 32.6672 15.474L32.7155 15.5275C33.053 15.3367 33.3288 14.7269 33.6928 14.6598C34.0169 14.368 35.0496 13.0968 35.2974 12.7058C35.354 12.6454 35.439 12.4749 35.4832 12.3938C35.4179 12.3423 35.3652 12.3001 35.2951 12.2547L35.2986 12.2798C35.1049 12.1241 34.7118 11.5543 34.5417 11.322C34.6131 11.2863 34.6753 11.2124 34.7339 11.1529C34.8743 11.297 35.1871 11.8284 35.2994 11.9391C35.6345 12.2695 36.4931 12.6268 36.9384 12.8485Z" fill="#010327"/>
<path d="M51.7205 14.1357C51.9251 14.61 52.0805 15.2447 52.2439 15.7477C52.562 16.7273 52.8574 17.7608 53.2039 18.7268C53.2339 19.0269 53.8536 20.9031 53.9793 21.3134L55.8086 27.3268C55.4501 27.5408 55.0678 27.7475 54.6997 27.9425C52.3855 29.168 50.0701 30.4912 47.7216 31.6349C47.3612 30.3402 46.8574 28.8198 46.4639 27.5194C45.4862 24.311 44.5462 21.0901 43.6436 17.8573C43.8778 17.6968 45.5282 16.9898 45.9062 16.8217C47.4347 16.149 48.9555 15.4581 50.4689 14.7493C50.662 14.6603 51.6089 14.2473 51.7205 14.1357Z" fill="#FF2347"/>
<path d="M53.7261 24.8042C53.8596 24.7818 53.8811 24.8052 53.9781 24.8701C53.995 24.9494 54.0115 24.9821 53.9738 25.0583C53.7846 25.4424 51.0331 26.7396 50.4919 26.9547C50.3523 26.9445 50.3957 26.9676 50.2942 26.8864C50.2307 26.7267 50.2242 26.7731 50.2438 26.6225C50.4504 26.3903 53.3011 24.9431 53.7261 24.8042ZM53.9754 25.5701L54.0757 25.5614C54.1804 25.6403 54.2357 25.8077 54.2946 25.9385C53.8331 26.2362 53.1811 26.5628 52.6904 26.8211C52.1154 27.1237 51.3719 27.5307 50.7769 27.766C50.6292 27.7757 50.5634 27.7675 50.4638 27.6543L50.4769 27.5381C50.5419 27.4257 50.7219 27.2708 50.8338 27.2175C51.8807 26.7187 52.9319 26.0455 53.9754 25.5701ZM54.2346 26.4642C54.3896 26.4598 54.5342 26.5248 54.5769 26.6898C54.4569 26.9288 51.5188 28.3959 51.0688 28.6239L50.9815 28.6476C50.8392 28.5845 50.8465 28.6147 50.77 28.5024C50.7634 28.4468 50.7642 28.4028 50.7873 28.3517C50.9373 28.0193 53.7604 26.616 54.2346 26.4642ZM55.4931 45.2552C55.6373 45.1212 55.3365 44.9179 55.3496 44.7064C55.4588 44.6617 55.4188 44.6727 55.5615 44.7324C56.915 46.3475 57.4654 49.0724 57.6973 51.167C56.6957 51.6399 55.45 52.0998 54.4134 52.511C54.3484 52.405 54.3696 52.3612 54.3665 52.2199C53.4665 52.5702 52.3934 52.9489 51.4757 53.257C50.185 53.6909 48.1254 54.562 46.8307 54.6733C46.6846 54.5909 46.5519 54.5206 46.415 54.4212C46.3073 54.556 46.2973 54.5596 46.1384 54.6006C43.6792 52.2532 44.6034 48.811 47.2065 47.1529C49.255 45.8482 53.1292 44.7234 55.4931 45.2552Z" fill="#FF2347"/>
<path d="M55.4931 45.2558C55.6373 45.1219 55.3365 44.9185 55.3496 44.707C55.4588 44.6624 55.4188 44.6733 55.5615 44.733C56.915 46.3482 57.4654 49.0731 57.6973 51.1676C56.6957 51.6405 55.45 52.1004 54.4134 52.5116C54.3484 52.4056 54.3696 52.3618 54.3665 52.2205C55.33 51.8443 56.4688 51.4294 57.4092 51.0065C57.3077 50.5112 57.2584 49.9783 57.165 49.5029C56.9357 48.3408 56.5042 46.5954 55.895 45.5798C53.8369 45.2335 51.8746 45.5481 49.885 46.2235C47.8877 46.9018 45.5019 48.1675 45.1057 50.6078C44.8665 52.0813 45.3469 53.4273 46.415 54.4218C46.3073 54.5566 46.2973 54.5603 46.1384 54.6012C43.6792 52.2538 44.6034 48.8117 47.2065 47.1535C49.255 45.8489 53.1292 44.7241 55.4931 45.2558Z" fill="#01010C"/>
<path d="M53.1044 49.2916C52.2544 49.7937 47.8941 51.0439 46.8475 51.1198C46.7533 51.0573 46.7887 51.0999 46.751 50.9757C46.8698 50.7959 47.6802 50.6875 47.9641 50.6214C49.7448 50.2126 51.4917 49.6553 53.1891 48.9551L53.2748 49.0501C53.2367 49.18 53.1717 49.156 53.1044 49.2916Z" fill="#01010C"/>
<path d="M53.1891 48.9555C53.668 48.7558 54.1453 48.5512 54.6206 48.3421C55.0199 48.1619 56.1249 47.575 56.486 47.5498L56.5468 47.5774C56.5468 47.62 56.5464 47.6866 56.5072 47.7105C55.7599 48.1672 53.8722 49.0294 53.1045 49.292C53.1718 49.1564 53.2368 49.1804 53.2749 49.0505L53.1891 48.9555Z" fill="#01010C"/>
<path d="M46.4744 54.8494C45.1429 55.2675 44.2629 55.3726 42.9106 54.7686C39.5098 53.2489 40.081 47.5604 42.4194 45.2552C45.2817 42.434 50.0883 41.7639 53.7671 42.9918C54.144 43.1176 55.3702 44.8529 55.4925 45.2556C53.1287 44.7238 49.2544 45.8486 47.206 47.1532C44.6029 48.8114 43.6787 52.2536 46.1379 54.601C46.2171 54.6862 46.374 54.782 46.4744 54.8494Z" fill="#FF2347"/>
<path d="M6.83192 56.5961C9.25939 53.4629 11.9944 51.7836 15.8457 51.3793C16.4969 51.316 17.151 51.2924 17.8048 51.3087C18.6875 53.9175 19.835 56.9546 21.0428 59.4233C20.529 59.429 20.0228 59.4392 19.5122 59.369C18.5165 59.233 15.4305 58.4674 14.719 57.7445C14.461 57.4823 14.2381 57.1669 14.0134 56.8726L13.755 56.9805C12.6178 55.5623 8.64931 56.9168 7.21781 57.4141C5.53104 57.9994 4.38958 58.4414 2.64824 57.5724C2.53667 57.5168 2.28518 57.3857 2.17908 57.3471C2.17242 57.1863 2.12353 57.2318 2.18891 57.1056L2.22736 57.1157C2.45599 57.1782 2.91437 57.3755 3.13974 57.4664C4.28127 57.9284 4.55869 57.7725 5.62158 57.615L5.71958 57.6182C5.78254 57.5407 5.77566 57.5367 5.86727 57.5115L5.87816 57.5557L5.85046 57.5131L5.841 57.5147L5.86 57.5862L5.76708 57.6698L5.80927 57.7067C5.95654 57.6881 6.07458 57.5638 6.19869 57.4628C6.20846 57.328 6.71319 56.748 6.83192 56.5961Z" fill="#FF2347"/>
<path d="M6.19869 57.4629C7.90158 56.7245 12.6577 55.0903 14.0134 56.8727L13.755 56.9806C12.6178 55.5624 8.64931 56.9169 7.21781 57.4142C5.53104 57.9995 4.38958 58.4415 2.64824 57.5725C2.53667 57.5169 2.28518 57.3857 2.17908 57.3472C2.17242 57.1864 2.12353 57.2319 2.18891 57.1057L2.22736 57.1158C2.45599 57.1783 2.91437 57.3756 3.13974 57.4665C4.28127 57.9285 4.55869 57.7726 5.62158 57.6151L5.71958 57.6183C5.78254 57.5408 5.77566 57.5367 5.86727 57.5116L5.87816 57.5558L5.85046 57.5132L5.841 57.5148L5.86 57.5863L5.76708 57.6699L5.80927 57.7068C5.95654 57.6882 6.07458 57.5639 6.19869 57.4629Z" fill="url(#paint0_linear_274_10106)"/>
<path d="M13.2613 68.3199C12.1999 69.1265 10.8332 69.8137 9.50166 69.3566C5.05382 67.83 5.66885 60.8445 9.34159 58.7573C10.7066 57.9816 11.6377 58.0429 13.0736 58.4797C12.5291 59.4023 12.1825 60.5109 11.7035 61.3799C10.7289 61.3564 10.1199 61.3361 9.39216 62.1658C8.53439 63.1437 8.45701 64.9853 9.46989 65.873C10.1256 66.4474 11.0223 66.2964 11.8079 66.2266C12.267 66.1856 12.7555 65.8881 13.0265 65.4935C13.4805 64.8448 13.5064 64.154 13.4084 63.39C13.686 62.7816 13.9574 62.1699 14.2226 61.5553C14.3567 61.2391 14.6208 60.5588 14.78 60.2892C14.8887 60.3319 14.8634 60.3388 14.942 60.4703C15.0125 60.3745 15.0495 60.3205 15.1329 60.2385C16.4519 62.5441 15.6861 66.3264 13.8535 68.1068L13.7925 68.0504C13.9132 67.8766 14.0243 67.8312 14.0699 67.6879C13.7951 67.7216 13.4303 68.4567 13.2613 68.3199Z" fill="#B0C1D3"/>
<path d="M15.1333 60.2393C16.4523 62.5449 15.6865 66.3272 13.8539 68.1075L13.7929 68.0511C13.9136 67.8774 14.0247 67.8319 14.0703 67.6886C13.7955 67.7223 13.4307 68.4574 13.2617 68.3206C13.3312 68.2098 13.7546 67.8035 13.8735 67.6562C15.534 65.5982 16.0045 62.9134 14.9424 60.471C15.0129 60.3752 15.0499 60.3213 15.1333 60.2393Z" fill="url(#paint1_linear_274_10106)"/>
<path d="M2.18848 57.1062C2.35725 56.7981 2.60735 56.2087 2.76736 55.86C4.5675 51.9405 8.35488 49.5663 12.292 48.7305C12.5874 48.6676 13.4139 48.778 13.7463 48.8556C15.2395 49.2026 16.8192 49.5854 17.7418 50.9895C12.6484 50.9205 9.50127 52.7349 6.30584 56.7616C6.1328 56.9836 5.8005 57.4297 5.62115 57.6156C4.55826 57.7731 4.28084 57.929 3.13931 57.4671C2.91394 57.3761 2.45556 57.1789 2.22693 57.1164L2.18848 57.1062Z" fill="#FF2347"/>
<path d="M37.6897 23.6316C38.7694 23.6618 40.2813 23.6795 41.359 23.5762C41.1129 25.0284 41.1194 27.5602 40.1844 28.6199C39.5525 29.1292 39.1787 29.2996 38.5429 29.7239C38.5721 29.9918 38.479 29.8661 38.4206 30.1059C38.0441 30.385 35.9294 31.2817 35.4485 31.3487C35.2864 31.3194 35.1869 31.3887 35.0373 31.4723C34.7158 31.6181 34.3764 31.7155 34.0291 31.7616L33.9958 31.6934L34.0895 31.655C34.0429 31.5626 34.0319 31.5804 33.9261 31.5194C33.6829 31.5699 33.3253 31.6559 33.0871 31.6793C33.0828 31.5158 33.0955 31.337 33.0289 31.1967L32.9751 31.1998C32.9188 31.3804 32.9474 31.4879 32.8606 31.5659C32.3348 31.6603 31.216 30.8897 31.2223 32.657C31.2229 32.815 31.6171 32.9466 31.75 33.0187C29.9449 33.9428 31.107 31.6664 31.0383 31.3486C30.6412 31.4664 30.4765 32.6437 30.5994 33.09C30.6309 33.2019 30.6645 33.3132 30.7002 33.4237C30.2246 33.2754 29.9005 33.2155 29.8179 32.615C29.7087 32.8927 29.8428 32.8392 29.7774 33.014C29.6922 32.7319 29.6882 32.6755 29.6851 32.3771C29.6253 32.6256 29.6526 32.9267 29.6683 33.1805C29.1762 32.9566 29.0804 32.8836 29.0219 32.3184C28.9778 32.4659 28.9969 32.5011 28.904 32.5588C28.8591 32.517 28.8412 32.5023 28.8015 32.4549C28.8477 32.6456 28.9075 32.8502 28.9593 33.0408C28.3855 32.7595 28.223 32.5188 28.3625 31.8467C28.509 31.1412 28.6703 30.3872 29.4391 30.25C30.5032 30.0459 31.6312 30.3531 32.5961 29.7044C33.3218 29.2165 34.2732 28.8347 34.9658 28.3144C35.1967 28.2111 35.6578 27.8988 35.8793 27.7561C36.541 27.3301 37.1585 26.869 37.8607 26.515C37.8033 26.3023 37.7884 26.2199 37.764 26C37.7947 25.1657 37.6674 24.3923 37.6897 23.6316Z" fill="#E9946B"/>
<path d="M33.9264 31.5191C35.6971 31.0426 36.9048 30.581 38.5431 29.7236C38.5724 29.9915 38.4793 29.8658 38.4209 30.1056C38.0444 30.3847 35.9297 31.2814 35.4487 31.3484C35.2866 31.3191 35.1872 31.3884 35.0376 31.472C34.7161 31.6178 34.3766 31.7152 34.0294 31.7613L33.9961 31.6931L34.0898 31.6547C34.0431 31.5623 34.0321 31.5801 33.9264 31.5191ZM29.5431 30.6896C29.3284 31.352 29.1634 31.5552 29.0221 32.3181C28.9781 32.4656 28.9971 32.5008 28.9043 32.5585C28.8593 32.5167 28.8415 32.502 28.8018 32.4546C28.8159 31.7998 29.1582 31.1813 29.5431 30.6896ZM29.6854 32.3768C29.7658 31.9819 29.9771 31.4453 30.2023 31.1184C30.1158 31.6427 29.9643 32.1066 29.8181 32.6147C29.709 32.8924 29.8431 32.8389 29.7777 33.0137C29.6925 32.7316 29.6884 32.6752 29.6854 32.3768Z" fill="#01010C"/>
<path d="M30.8207 15.8838L30.8963 15.9167C30.9967 16.2524 30.937 16.5284 31.1744 16.7225L31.3033 16.717L31.4333 16.7431C31.6546 17.1149 31.8695 17.7316 32.0796 18.1292C32.4272 18.7868 32.7839 19.4623 33.1489 20.1079C33.9183 21.4735 34.8181 22.7526 35.8341 23.925C36.3762 24.543 36.9608 25.1154 37.5014 25.7198C37.5168 25.918 37.5364 26.1281 37.5467 26.3255C36.7214 26.8573 35.9026 27.4001 35.0903 27.9539C34.7403 27.1522 34.4651 26.5148 33.9699 25.7983C33.2614 24.7732 32.35 23.9793 31.9008 22.784C31.6523 22.1225 31.6607 21.8229 31.5612 21.2029C31.4871 20.7418 31.5901 19.0363 31.4709 18.8505C31.3531 18.8199 31.3954 18.8258 31.2635 18.8777C31.2153 19.1525 31.2391 19.5883 31.2309 19.8866C31.1997 21.0296 31.2887 22.4257 31.8718 23.429C31.668 23.3801 30.7807 23.1277 30.6766 23.1175C30.6187 23.0594 30.3054 22.9427 30.2134 22.9033C29.4211 22.5646 28.7571 22.0491 28.0967 21.4839C28.3188 20.9863 28.6067 20.4823 28.8359 19.9795C29.235 19.1044 29.6177 18.2033 30.0305 17.3371C30.258 16.8599 30.5952 16.3825 30.8207 15.8838Z" fill="#FF2347"/>
<path d="M28.4427 22.1846C29.1972 22.6128 29.4875 22.9494 30.3865 23.2931C30.829 23.5066 31.5511 23.6547 32.0401 23.7386L32.0064 23.7724C31.0322 24.7615 29.708 27.1249 28.5625 27.9679C28.2425 28.2035 26.842 28.6787 26.4 28.8701C25.4292 28.2472 24.1159 26.9232 23.0075 26.6853C23.4812 26.5538 26.3843 25.494 26.6914 25.2727C26.8799 25.1369 27.0302 24.8847 27.1428 24.6801C27.3733 24.2612 27.6554 23.7958 27.8222 23.3441C27.9432 23.1739 28.3242 22.4125 28.4427 22.1846ZM8.00336 58.5991C9.25624 57.3424 11.8794 56.6377 13.3922 57.6399C13.2493 57.7361 12.9649 57.4934 12.6792 57.4642L12.659 57.5072C12.8152 57.5786 12.9214 57.6176 13.0817 57.6724C13.1058 57.7536 13.1101 57.7146 13.0797 57.7922C13.2492 57.8859 13.2848 57.8997 13.2755 58.1283C13.2428 58.1624 13.2041 58.2192 13.1469 58.2009C12.7978 58.0921 12.479 57.976 12.1147 57.92C8.82886 57.4159 6.27593 60.7351 6.07689 63.954C5.91224 66.6164 7.34401 69.515 10.0985 69.7675C11.2613 69.8739 13.1679 69.1209 13.8534 68.1073C15.686 66.327 16.4517 62.5446 15.1327 60.239C15.092 60.1315 14.9787 59.9776 14.9114 59.8778C14.9955 59.7012 15.0507 59.5656 15.1208 59.3817C15.1314 59.318 15.2125 59.2559 15.264 59.2064C15.459 59.3549 15.6553 59.6553 15.746 59.8871C16.4001 60.9749 16.5104 62.6761 16.3849 63.9434C16.0455 67.373 13.163 70.9609 9.64012 70.4259C6.59866 69.9644 5.12155 66.383 5.52401 63.4356C5.76705 61.6557 6.61589 59.7125 8.00336 58.5991Z" fill="#E9946B"/>
<path d="M15.746 59.8866C16.4001 60.9745 16.5104 62.6757 16.3849 63.9429C16.0455 67.3725 13.163 70.9604 9.64012 70.4254C6.59866 69.9639 5.12155 66.3825 5.52401 63.4351C5.76705 61.6552 6.61589 59.7121 8.00336 58.5986C8.14178 58.7188 8.17666 58.6831 8.34659 58.6299C6.75051 60.1358 5.93389 61.7051 5.77459 63.9701C5.4247 68.943 9.93489 72.3308 13.8325 68.624C15.9756 66.5858 16.9496 62.6826 15.4578 59.9572C15.4968 59.8602 15.5119 59.8265 15.5622 59.736C15.6271 59.7945 15.6769 59.8338 15.746 59.8866Z" fill="#01010C"/>
<path d="M8.00391 58.5993C9.25679 57.3426 11.8799 56.6379 13.3928 57.6401C13.2499 57.7363 12.9654 57.4936 12.6798 57.4644L12.6595 57.5074C12.8157 57.5788 12.9219 57.6178 13.0823 57.6726C13.1064 57.7538 13.1107 57.7148 13.0802 57.7923C11.6376 57.2772 10.4921 57.3917 9.12371 58.0972C8.93137 58.1962 8.43775 58.5969 8.34714 58.6305C8.17721 58.6837 8.14233 58.7194 8.00391 58.5993Z" fill="url(#paint2_linear_274_10106)"/>
<path d="M15.1211 59.3814C15.1317 59.3177 15.2128 59.2556 15.2643 59.2061C15.4594 59.3546 15.6556 59.655 15.7464 59.8868C15.6772 59.834 15.6274 59.7946 15.5626 59.7362C15.5122 59.8267 15.4971 59.8604 15.4581 59.9574C15.3463 59.7577 15.2427 59.5746 15.1211 59.3814Z" fill="#02021F"/>
<path d="M38.5435 29.7232C39.1793 29.2988 39.5531 29.1284 40.185 28.6191C40.2408 28.7922 40.2247 28.8195 40.1393 29.0112C40.2693 28.9084 40.4435 28.7782 40.5639 28.6705C41.3004 29.3042 42.1373 29.8912 42.9139 30.4754C43.3131 30.7757 43.7531 31.0388 44.132 31.3682L44.2923 31.9508C42.0181 32.8616 38.8008 33.2457 36.5163 32.1705C36.3193 32.0778 35.4005 31.5882 35.335 31.4337C35.3843 31.374 35.379 31.3737 35.4491 31.348C35.93 31.281 38.0447 30.3843 38.4212 30.1052C38.4797 29.8654 38.5727 29.9911 38.5435 29.7232Z" fill="#FF2347"/>
<path d="M38.5427 29.7233C39.1785 29.2989 39.5523 29.1286 40.1842 28.6193C40.24 28.7923 40.2238 28.8196 40.1385 29.0114C39.6312 29.4195 39.0073 29.8422 38.4204 30.1053C38.4788 29.8655 38.5719 29.9912 38.5427 29.7233ZM21.1405 26.3618C20.5445 24.9389 19.746 23.4077 19.0922 21.9924C18.9328 21.6474 18.3215 21.4145 18.0593 20.8271C17.5714 19.7337 17.4701 18.6217 17.7522 17.4461C18.1255 16.105 18.9188 15.9976 19.5194 17.2628C20.0384 18.3561 20.7282 21.2525 19.4266 21.9161L19.3752 21.9421C19.7278 22.6342 20.0701 23.435 20.4125 24.1437C20.7421 24.8258 21.1651 25.6629 21.4186 26.3599C21.6486 26.3757 22.4959 26.5257 22.6052 26.5039C23.8091 26.2639 25.3002 25.4526 26.4715 25.1296L26.5244 25.1154L26.5787 25.1394C26.4027 25.249 26.3392 25.3166 26.1357 25.3473C25.8419 25.3959 25.5382 25.5524 25.2582 25.6619C24.5607 25.9347 23.8421 26.1871 23.1485 26.4689C22.6702 26.6632 22.3822 26.5817 21.8965 26.4718C21.7578 26.4405 21.4857 26.4717 21.3826 26.3882C21.2075 26.1077 21.0061 25.6138 20.8561 25.2908L19.9869 23.4402C19.9448 23.3499 19.5137 22.4812 19.5108 22.4691L19.4711 22.5143C19.5222 22.9834 20.7948 25.186 20.9818 25.7883C21.0158 25.898 21.1441 26.1761 21.2013 26.2832L21.1905 26.3573C20.8923 26.548 20.0766 26.5733 19.647 26.7903C19.5226 26.8247 19.4352 26.8516 19.3144 26.8979L19.2749 26.8503C19.5773 26.6156 20.7362 26.4122 21.1405 26.3618Z" fill="#01010C"/>
<path d="M18.554 16.6299C19.2934 16.6459 19.7937 18.7377 19.8269 19.3944C19.8569 19.9864 19.983 20.9542 19.6053 21.4574C19.4865 21.6156 19.3585 21.6123 19.1835 21.6194C17.8385 20.8254 17.5552 18.5632 18.1243 17.1748C18.2224 16.9357 18.3454 16.7679 18.554 16.6299Z" fill="#B0C1D3"/>
<path d="M43.1748 14.5704C44.0737 14.2086 45.1848 13.6445 46.074 13.2235C47.4721 12.5755 48.8733 11.9355 50.2779 11.3035C50.5248 11.1944 50.9794 10.9476 51.2106 11.0479C51.2179 11.2581 51.4006 11.8772 51.4594 12.1232C51.1371 12.2566 50.8798 12.3799 50.5675 12.5357C49.3848 13.1112 48.1363 13.6874 46.9413 14.2353C46.2367 14.5582 44.4633 15.4573 43.7629 15.6274L43.1748 14.5704Z" fill="#FF2347"/>
<path d="M43.3281 16.7859C43.4877 16.7616 44.3135 16.3504 44.5289 16.2572C45.942 15.6479 47.3454 15.014 48.7389 14.3556C49.4277 14.0288 50.6912 13.3619 51.38 13.127C51.5027 13.4596 51.6166 13.796 51.7208 14.1356C51.6093 14.2471 50.6624 14.6601 50.4693 14.7492C48.9558 15.458 47.435 16.1488 45.9066 16.8216C45.5285 16.9897 43.8781 17.6967 43.6439 17.8572C43.5139 17.5231 43.4216 17.1359 43.3281 16.7859Z" fill="#FF2347"/>
<path d="M35.4829 12.3945C35.8351 12.6349 36.9575 13.1975 37.3658 13.3976C37.0914 13.8908 36.6451 14.5104 36.3177 14.9814C35.8811 15.6047 35.4534 16.2349 35.0348 16.8717C34.4365 16.4634 33.4547 15.9693 32.8037 15.6244C33.0069 15.4035 33.5334 14.869 33.6925 14.6606C34.0166 14.3688 35.0493 13.0976 35.2971 12.7065C35.3537 12.6462 35.4387 12.4757 35.4829 12.3945Z" fill="#FF2347"/>
<path d="M16.9619 59.0674C18.7484 59.5805 19.3245 59.77 21.199 59.7514C21.5385 60.2997 21.7853 60.732 22.2156 61.2208C22.4023 61.4331 23.1915 61.994 23.2308 62.1085C22.7351 61.9238 22.2181 61.7671 21.7126 61.5776C20.4099 61.0771 19.1111 60.5652 17.8165 60.042L17.2798 59.8212C17.1285 59.5732 17.0583 59.3418 16.9619 59.0674Z" fill="#FF2347"/>
<path d="M50.8842 12.7432C51.0792 12.6837 51.0492 12.6584 51.213 12.7162C51.3146 12.8252 51.3376 12.9746 51.3799 13.1271C50.6911 13.3621 49.4276 14.029 48.7388 14.3558C47.3453 15.0141 45.9419 15.6481 44.5288 16.2574C44.3134 16.3506 43.4876 16.7618 43.328 16.786C43.2388 16.4942 42.7749 15.0861 42.8149 14.8821L42.8815 14.8849C43.2392 15.1745 43.3788 15.642 43.6776 16.019L43.7084 16.0572L50.8842 12.7432Z" fill="#FF2347"/>
<path d="M50.1223 38.3765C50.5488 38.3451 51.9504 38.119 51.85 38.9171C51.7669 39.5755 51.7146 40.2106 51.6688 40.874C50.7434 40.2431 49.7988 39.6788 48.8857 39.0638C48.9238 38.9241 48.9296 38.6478 48.938 38.4899C49.2619 38.43 49.78 38.4035 50.1223 38.3765Z" fill="#FDFDFD"/>
<path d="M49.9795 38.7969C50.3426 38.7919 50.9399 39.1075 51.228 39.3581C51.3437 39.4586 51.3276 39.4904 51.3295 39.6168C51.0033 39.5668 50.4876 39.2562 50.1922 39.0795C50.0153 38.9739 50.0203 38.9644 49.9795 38.7969Z" fill="#01010C"/>
<path d="M51.3179 37.541C53.2279 37.543 52.5702 39.3142 52.396 40.5979C52.1844 40.4007 52.221 40.337 52.2306 40.049C52.1363 40.454 52.189 40.6429 51.9544 41.0606L51.9106 41.0554C51.7848 40.3722 52.3636 38.8047 51.919 38.3091C51.6636 38.0243 50.3367 38.1247 49.9086 38.1543C49.6429 38.1519 49.2936 38.2128 49.0379 38.1297C48.9498 38.101 48.9433 38.0312 48.8994 37.932C49.0629 37.8051 49.8048 37.7939 50.0844 37.7539C49.9933 37.6748 49.9644 37.6776 49.8433 37.649L49.8052 37.6403L49.8044 37.6131C50.016 37.5493 50.9975 37.5663 51.3179 37.541Z" fill="#FDFDFD"/>
<path d="M51.3177 37.5412C53.2277 37.5431 52.57 39.3143 52.3957 40.598C52.1842 40.4008 52.2207 40.3372 52.2304 40.0492C52.2173 39.4971 52.6657 38.5445 52.2269 38.1101C51.7592 37.6473 50.6938 37.7458 50.0842 37.7541C49.993 37.675 49.9642 37.6777 49.843 37.6491L49.805 37.6404L49.8042 37.6132C50.0157 37.5495 50.9973 37.5664 51.3177 37.5412ZM27.7439 21.4542C27.9565 21.0995 28.2287 20.6529 28.4059 20.2835C29.2028 18.6226 29.7606 16.9373 30.8243 15.4268C30.9225 15.6617 30.7407 15.6535 30.8208 15.8838C30.5953 16.3825 30.2581 16.8599 30.0306 17.3371C29.6178 18.2033 29.2351 19.1044 28.836 19.9795C28.6068 20.4823 28.3189 20.9863 28.0968 21.4839C28.7572 22.0491 29.4212 22.5646 30.2135 22.9033C30.3055 22.9427 30.6188 23.0594 30.6767 23.1175L30.66 23.1756C30.5844 23.1188 30.5814 23.137 30.5012 23.1074C29.6563 22.7956 28.8347 22.2447 28.1601 21.6279C28.1 21.573 28.0856 21.5828 28.0158 21.6175C28.4091 22.0285 29.0377 22.5572 29.5646 22.7886C29.826 22.9035 30.2141 23.0764 30.4396 23.2487L30.3869 23.2932C29.4879 22.9495 29.1975 22.6129 28.443 22.1847C28.3246 22.4126 27.9435 23.174 27.8226 23.3442L27.7735 23.3396C27.8135 23.0512 28.3779 22.3446 28.3404 22.0139C28.2162 22.1318 27.8342 22.9783 27.6557 23.2357L27.6279 23.152C27.8015 22.7643 28.0394 22.3353 28.2514 21.9705C28.0782 21.8029 27.9089 21.6308 27.7439 21.4542Z" fill="#01010C"/>
<path d="M51.3858 10.7559L51.8378 12.1809C51.7232 12.2641 51.6155 12.343 51.4966 12.4198C52.6658 15.9895 53.7751 19.5807 54.8239 23.1918C55.1774 24.3853 55.6366 25.6327 55.9474 26.8433L55.9016 26.8894C55.8116 26.6795 55.8055 26.4952 55.7401 26.2999C55.2243 24.7646 54.7124 23.0392 54.2628 21.495C53.4447 18.7734 52.597 16.0619 51.7197 13.3608C51.6839 13.4608 51.7158 13.4316 51.6405 13.4707L51.6155 13.4154L51.6755 13.2767C51.6581 13.171 51.6524 13.0487 51.5862 12.9755C51.5485 13.0327 51.4732 13.1275 51.4874 13.1903C51.5658 13.5404 51.7866 13.8933 51.887 14.2361C52.0243 14.7064 52.1439 15.1687 52.2835 15.6365C52.4916 16.3095 52.707 16.9799 52.9297 17.6477C53.0032 17.8745 53.2539 18.5234 53.2039 18.7263C52.8574 17.7603 52.562 16.7267 52.2439 15.7472C52.0805 15.2441 51.9251 14.6095 51.7205 14.1352C51.6162 13.7956 51.5024 13.4593 51.3797 13.1266C51.3374 12.974 51.3143 12.8247 51.2128 12.7156C51.0489 12.6579 51.0789 12.6832 50.8839 12.7427C50.8785 12.7203 50.8816 12.6775 50.8824 12.6518C50.9897 12.6316 51.0005 12.5813 51.072 12.4832L51.0635 12.4303C50.7985 12.4527 50.8339 12.5724 50.5674 12.5353C50.8797 12.3794 51.137 12.2561 51.4593 12.1227C51.4005 11.8768 51.2178 11.2576 51.2105 11.0474L51.2443 11.0275C51.2912 10.8814 51.2908 10.8679 51.3858 10.7559Z" fill="#02021F"/>
<path d="M31.635 14.5322L31.7156 14.6055C31.9308 14.9157 32.2021 15.2841 32.366 15.6217C32.1279 15.8571 31.6128 16.3302 31.3236 16.4448C31.3915 16.6258 31.3475 16.5144 31.3034 16.7171L31.1745 16.7226C30.9371 16.5285 30.9968 16.2525 30.8964 15.9168L30.8208 15.8839C30.7407 15.6536 30.9225 15.6619 30.8243 15.4269C30.8694 15.2996 30.9246 15.0699 30.9617 14.9315C31.043 14.7993 31.3578 14.6609 31.5077 14.5828L31.635 14.5322Z" fill="#FF2347"/>
<path d="M30.9617 14.9307C30.9594 15.0824 30.9352 15.1257 31.0005 15.2433C31.0908 15.2286 31.085 15.2319 31.1556 15.1709C31.1309 15.4405 31.2192 16.203 31.3236 16.4439C31.3915 16.6249 31.3475 16.5135 31.3034 16.7162L31.1745 16.7218C30.9371 16.5277 30.9968 16.2517 30.8964 15.9159L30.8208 15.883C30.7407 15.6527 30.9225 15.661 30.8243 15.426C30.8694 15.2987 30.9246 15.0691 30.9617 14.9307Z" fill="#02021F"/>
<path d="M31.5073 14.582L31.5235 14.6703C31.3969 14.8264 31.2275 14.9939 31.1553 15.1709C31.0846 15.2319 31.0905 15.2287 31.0001 15.2433C30.9348 15.1257 30.959 15.0825 30.9614 14.9307C31.0427 14.7985 31.3574 14.66 31.5073 14.582Z" fill="#01010C"/>
<path d="M31.2637 18.8778C31.3956 18.8259 31.3534 18.82 31.4712 18.8506C31.5904 19.0364 31.4874 20.742 31.5614 21.203C31.6609 21.823 31.6525 22.1226 31.9011 22.7841C32.3502 23.9794 33.2617 24.7733 33.9702 25.7985C34.4654 26.5149 34.7405 27.1523 35.0906 27.954C35.9028 27.4002 36.7217 26.8574 37.547 26.3257C37.6159 26.2339 37.699 26.0991 37.7644 26C37.7887 26.2198 37.8037 26.3022 37.861 26.5149C37.1589 26.8689 36.5413 27.3301 35.8797 27.7561C35.6582 27.8987 35.197 28.2111 34.9661 28.3143L34.928 28.2773C35.0159 28.1296 36.3697 27.4132 36.5725 27.1993C36.7651 26.9961 37.3976 26.7733 37.5826 26.5278L37.5641 26.4995C37.1031 26.4551 35.2929 28.2498 34.8938 27.9074C34.9349 27.5451 34.6362 27.1737 34.4924 26.8424C33.7668 25.1705 32.0631 24.127 31.6598 22.266C31.4677 21.3793 31.3954 20.4125 31.4372 19.5033C31.4449 19.3506 31.4737 18.9869 31.3898 18.8803L31.3207 18.9495L31.2637 18.8778ZM17.8166 60.0424C19.1112 60.5656 20.41 61.0775 21.7127 61.5779C22.2182 61.7675 22.7352 61.9242 23.2309 62.1089C22.7182 62.2834 19.6355 60.6886 19.345 60.8729C19.4539 60.9853 22.0385 61.8771 22.3371 62.0492C22.3966 62.0837 22.8799 62.184 23.0255 62.2546L23.0314 62.2956L22.8891 62.3374C21.1877 61.7281 19.5006 61.0754 17.8291 60.3797C17.7311 60.1889 17.749 60.2376 17.8166 60.0424Z" fill="#02021F"/>
<path d="M35.0378 31.4717C35.1737 31.6294 35.2417 31.7369 35.3551 31.9122C34.7465 32.1476 34.4009 32.4306 33.858 32.7044C33.8522 32.1971 33.6002 31.8919 34.0296 31.761C34.3768 31.7149 34.7162 31.6175 35.0378 31.4717Z" fill="#FDFDFD"/>
<path d="M48.8854 39.0639C48.7942 38.9327 48.8946 38.1892 48.8988 37.9316C48.9427 38.0308 48.9492 38.1006 49.0373 38.1293C49.2931 38.2125 49.6423 38.1516 49.9081 38.154L49.8588 38.2135L49.8823 38.2243C49.9573 38.2595 49.9757 38.2632 50.0338 38.3274L49.9038 38.3008C49.9931 38.3812 49.9831 38.3563 50.1219 38.3765C49.7796 38.4035 49.2615 38.43 48.9377 38.4899C48.9292 38.6478 48.9234 38.9241 48.8854 39.0639ZM6.30579 56.7611C6.35467 56.7441 6.37575 56.7453 6.42732 56.7384C6.41302 56.874 6.18156 57.0075 6.06017 57.2389L6.08317 57.3046C6.23506 57.2677 6.58467 56.6536 6.83144 56.5963C6.71271 56.7481 6.20798 57.3282 6.19821 57.463C6.07409 57.564 5.95606 57.6882 5.80879 57.7069L5.76659 57.67L5.85952 57.5864L5.84052 57.5149L5.84998 57.5133L5.87767 57.5559L5.86679 57.5117C5.77517 57.5368 5.78206 57.5409 5.71909 57.6184L5.62109 57.6152C5.80044 57.4293 6.13275 56.9832 6.30579 56.7611Z" fill="#02021F"/>
<path d="M23.1564 34.9529L23.1125 34.9507C23.1595 34.8679 23.1644 34.8752 23.2361 34.8133C23.3048 34.8146 23.3428 34.815 23.4116 34.8073L23.4646 34.801L23.5993 34.8278L23.6389 34.7764C24.3465 35.1513 24.8418 35.6662 25.2592 36.371C25.3088 36.4802 25.378 36.6209 25.4207 36.7296L25.115 36.8372C25.2875 37.3796 25.2985 37.9283 25.2289 38.4923C25.0815 39.6855 24.6387 40.8485 24.2678 41.9806C23.7902 43.4391 23.3002 44.9004 22.8775 46.3775C22.6598 47.1382 22.4201 47.9269 22.3525 48.7225C22.2916 49.4402 22.408 50.1883 22.5452 50.8893C22.9381 52.8982 24.4394 58.4239 26.042 59.5158C26.6572 59.9351 27.4619 60.063 28.1813 60.0573C30.2145 60.0419 32.317 59.3896 34.262 58.801L40.8724 56.7454C42.0317 56.3769 43.3182 55.8922 44.4774 55.619C44.4917 56.07 44.5109 56.6273 44.2909 57.0304C43.6936 58.1239 38.2238 59.8065 36.9327 60.2367C35.3077 60.779 33.6783 61.3408 32.0292 61.7955C31.2409 62.0077 30.4502 62.2103 29.6574 62.4027C27.4381 62.9361 25.6427 63.1557 23.6035 61.8856C21.5266 60.5915 20.7906 58.1808 19.8686 55.9434C19.2786 54.5462 18.7393 53.1255 18.2519 51.6845C18.0567 51.1105 17.8452 50.5268 17.6944 49.9382C17.2092 48.026 17.9879 46.0183 18.6484 44.2603C19.6733 41.5325 20.8844 38.8411 22.2719 36.2988C22.5242 35.8366 22.9156 35.4022 23.1564 34.9529Z" fill="#FF2347"/>
<path d="M23.1563 34.9529L23.1123 34.9507C23.1593 34.8679 23.1642 34.8752 23.2359 34.8133C23.3047 34.8146 23.3426 34.815 23.4115 34.8073L23.4645 34.801L23.5991 34.8278L23.6388 34.7764C24.3463 35.1513 24.8417 35.6662 25.259 36.371C25.1386 36.3832 25.071 36.384 24.9572 36.4244C24.6805 35.9917 23.668 34.8215 23.1563 34.9529Z" fill="#01010C"/>
<path d="M25.2599 36.3711C25.3095 36.4803 25.3787 36.621 25.4214 36.7297L25.1157 36.8374C25.0769 36.7182 25.005 36.5467 24.958 36.4246C25.0718 36.3841 25.1394 36.3833 25.2599 36.3711Z" fill="#02021F"/>
<path d="M35.3351 32.1088C35.8662 32.0787 36.3788 32.5344 36.9526 32.7454C38.5488 33.3324 41.4915 33.1968 43.0838 32.7098C43.128 34.5122 42.8276 36.7091 41.1742 37.6345C40.4976 38.0131 39.8023 38.324 39.0961 38.6361C37.5793 39.3068 36.0488 39.9422 34.5591 40.6794C34.022 40.9465 33.1268 41.3889 32.7644 41.8914C32.583 42.1443 32.5936 42.6127 32.6655 42.9111C32.9331 44.0209 33.3816 45.0864 33.6958 46.1872C34.2615 48.1693 34.6532 50.1664 35.0369 52.1932C35.0767 52.5995 35.3263 53.5871 35.4431 53.9841C34.414 54.3019 34.012 54.3945 32.9396 54.3993C32.7777 53.5668 32.4946 52.7947 32.2771 51.9785C31.7986 50.1827 31.3069 48.3707 30.7426 46.6021C30.3569 45.3933 29.8704 44.1942 29.5815 42.9468C29.4717 42.439 29.3768 41.9182 29.4561 41.397C29.6875 39.8752 30.8237 38.9961 31.9501 38.2147C33.3355 37.2538 34.7329 36.4381 36.1809 35.5923C36.5917 35.3523 37.117 35.0958 37.4854 34.8145L37.4907 34.7726C37.3119 34.7931 37.211 34.8548 37.0511 34.9352C36.5825 34.3454 35.3214 32.8674 35.3351 32.1088Z" fill="#405782"/>
<path d="M17.8082 34.0551C18.2353 34.0391 18.9294 34.1089 19.3603 34.1487C19.9974 34.2998 21.2391 34.457 21.9514 34.5865C22.2908 34.6556 22.6173 34.7267 22.9612 34.7683C22.6863 35.0541 22.1623 35.9231 21.9575 36.2924C20.528 38.8693 19.3127 41.5952 18.2846 44.3757C17.6462 46.102 16.9215 48.0732 17.3673 49.9522C16.3371 49.2934 15.2052 48.8314 14.0232 48.5867C13.6744 48.5112 10.8234 48.1077 10.7846 48.0752C10.4884 47.8272 10.3149 47.2252 10.2757 46.8428C10.2226 46.3245 10.5915 45.6421 10.7996 45.179C11.8188 42.9111 13.1667 40.7537 14.5274 38.7008C15.5676 37.111 16.6619 35.5614 17.8082 34.0551Z" fill="#FF2347"/>
<path d="M13.5838 42.7508C16.2025 42.4618 15.3566 46.8867 12.6394 47.8552C9.81324 48.4304 10.9186 43.3707 13.5838 42.7508Z" fill="#01010C"/>
<path d="M14.8318 44.5234L14.8704 44.5904C14.735 45.302 14.4168 46.0042 13.9771 46.5624C13.4166 47.2743 12.0951 48.1787 11.4128 47.1164C11.1377 46.1268 11.3429 45.7237 11.7191 44.7723C12.6274 45.6011 13.9568 45.1879 14.8318 44.5234Z" fill="#FDFDFD"/>
<path d="M11.7314 46.4307L11.7528 46.4331C12.0489 46.4684 12.3933 46.7603 12.6446 46.7631C12.8431 46.7655 13.1871 46.6559 13.4325 46.645L13.4674 46.7002L13.4015 46.8455C12.9169 47.0371 11.8353 47.1853 11.7314 46.4307Z" fill="#01010C"/>
<path d="M13.5969 43.0309C14.4224 42.9749 14.6754 43.3487 14.9123 44.1114C14.2744 44.5965 13.9669 44.8092 13.2011 44.972C12.6367 45.0365 12.3457 44.8701 11.876 44.5839C12.1997 43.7668 12.7828 43.2355 13.5969 43.0309ZM34.8933 44.4362C38.5163 43.6787 42.2056 42.8766 45.634 41.3955C46.3798 41.0736 48.4113 40.0603 48.8609 39.3623C50.0575 40.2708 52.4225 41.5347 53.4036 42.5799C52.4863 42.4021 51.2002 42.131 50.2756 42.1042C47.7421 42.0311 45.1602 42.7618 43.0713 44.2978C41.5721 45.4006 40.7232 46.7982 40.3721 48.6869C40.0852 50.2298 40.0929 52.1007 40.9459 53.4495C41.4263 54.209 42.2525 54.9113 43.0975 55.1629C42.2267 55.3001 41.3498 55.5327 40.4571 55.6695C39.2563 55.8534 38.298 55.885 37.0896 55.8505C36.8898 55.3208 36.567 54.4643 36.2459 53.9963C36.3736 53.9021 36.4986 53.8141 36.6181 53.7085C36.4941 52.1413 36.1171 50.477 35.9593 48.9126C35.9262 48.5842 35.4442 45.9734 35.4427 45.9791C35.5253 45.9916 35.5534 46.0335 35.6153 46.0939C35.4769 45.7838 35.3779 45.9088 35.3578 45.5951C35.1453 45.3138 35.0269 44.7666 34.8933 44.4362Z" fill="#FF2347"/>
<path d="M35.3574 45.5957C36.2873 46.1181 37.2695 47.2559 37.5597 48.332C37.9537 49.7925 37.7809 51.4385 37.6175 52.9241C37.5872 53.1989 37.5788 53.5825 37.4835 53.8277C37.4455 53.9255 37.4218 53.9105 37.3343 53.9389L37.2568 53.9113C37.1552 53.604 37.3325 52.6627 37.3592 52.2945C37.4932 50.4448 37.7023 48.3949 36.4049 46.908C36.2881 46.7741 35.6546 46.1892 35.6149 46.0946C35.4765 45.7845 35.3775 45.9095 35.3574 45.5957Z" fill="url(#paint3_linear_274_10106)"/>
<path d="M37.6244 13.6231C37.9042 13.6203 38.7607 14.1488 39.08 14.2688C39.6646 14.4886 40.2488 15.0116 40.6454 15.5124C41.0311 15.9962 41.328 16.5513 41.5219 17.1495C42.055 18.846 41.8304 21.484 41.6742 23.2514C41.4907 23.2529 41.298 23.268 41.115 23.2846C39.8684 23.3984 38.6342 23.3862 37.3847 23.3777C37.1504 21.2107 37.0831 18.5824 37.4947 16.4237C37.6057 15.8418 38.2859 15.1711 38.3065 14.8712L38.2609 14.8166C38.1218 14.8408 37.7684 15.2734 37.6645 15.4023C36.661 16.8418 36.9783 19.3199 36.925 21.0036C36.9069 21.5765 36.9501 22.4333 37.0809 22.98C36.779 22.6983 36.51 22.3257 36.2444 22.0069C35.0868 20.6175 34.1779 19.0889 33.3656 17.4541C33.1452 17.0106 32.8402 16.3763 32.6888 15.9026C33.175 16.1055 34.7002 16.9586 35.1584 17.2436C35.9758 15.9307 36.8134 14.8609 37.6244 13.6231ZM19.501 26.9617C20.1114 26.8947 20.6158 26.6773 21.2617 26.6601C24.1163 26.5839 25.3943 29.2388 28.0839 29.9354C27.4041 30.2125 27.0324 30.4935 26.729 31.2248C26.6485 31.4187 26.4703 31.9656 26.4442 32.2271C26.4425 32.2441 26.3762 32.271 26.3476 32.2783C26.2297 32.4322 26.2266 32.4486 26.0069 32.4729C25.975 32.4764 25.9432 32.4795 25.9113 32.4821C25.6744 32.4716 25.3785 32.4292 25.1671 32.5265C25.0959 32.6108 25.0979 32.6076 25.056 32.7116C24.5267 33.7598 24.3294 33.9028 23.6395 34.7767L23.5999 34.8281L23.4652 34.8014C23.3747 34.7356 23.2445 34.6667 23.1331 34.6784C22.8135 34.4021 21.7795 34.4177 21.5623 34.2093C21.553 34.2036 20.1271 33.9179 19.9533 33.8673C20.2499 33.8089 20.5609 33.736 20.8578 33.6711C20.7514 33.6355 20.6428 33.6052 20.535 33.5742L20.4968 33.4497C20.4889 33.4296 20.481 33.4096 20.4732 33.3895C20.6197 33.2256 20.7665 32.9498 20.8832 32.7808C21.3856 32.0529 21.4504 30.881 21.3748 29.979C21.3038 29.042 20.8836 28.173 20.2064 27.5626C19.9875 27.3691 19.7024 27.2183 19.4854 27.0256L19.501 26.9617Z" fill="#FF2347"/>
<path d="M24.76 32.5923C24.935 32.5805 24.8832 32.584 25.0559 32.7108C24.5265 33.759 24.3292 33.902 23.6394 34.7759L23.5997 34.8274L23.4651 34.8006C23.3745 34.7348 23.2443 34.666 23.133 34.6776C22.8133 34.4013 21.7793 34.417 21.5622 34.2085C21.5528 34.2028 20.127 33.9171 19.9531 33.8665C20.2498 33.8081 20.5608 33.7352 20.8577 33.6703C21.7914 33.4318 22.7337 33.0736 23.6621 32.8099C23.9662 32.7236 24.4314 32.6605 24.76 32.5923Z" fill="#FF2347"/>
<path d="M24.7594 32.5923C24.9344 32.5805 24.8825 32.584 25.0553 32.7108C24.5259 33.759 24.3286 33.902 23.6388 34.7759L23.5991 34.8274L23.4644 34.8006C23.3739 34.7348 23.2437 34.666 23.1323 34.6776C22.8127 34.4013 21.7787 34.417 21.5615 34.2085C22.0547 34.228 22.8495 34.4387 23.2959 34.6448C23.6743 34.2639 24.6579 33.1191 24.7594 32.5923Z" fill="#02021F"/>
<path d="M23.3837 32.5079C23.3827 32.4444 23.3823 32.3808 23.3823 32.3173C23.3827 31.2402 23.6273 30.578 24.3579 29.7798C24.4957 29.6292 24.7352 29.3995 24.9385 29.4014C24.9202 29.5386 23.5631 30.2584 23.6147 32.4378C24.5217 32.1849 25.4219 32.1196 26.3469 32.2777C26.2291 32.4316 26.2259 32.448 26.0062 32.4723C25.9744 32.4758 25.9425 32.4789 25.9106 32.4815C25.6737 32.471 25.3779 32.4286 25.1664 32.5258C25.0952 32.6102 25.0972 32.6069 25.0554 32.7109C24.8826 32.5842 24.9345 32.5807 24.7595 32.5925C24.4309 32.6606 23.9657 32.7237 23.6616 32.8101C22.7331 33.0738 21.7909 33.432 20.8571 33.6705C20.7507 33.6349 20.6421 33.6046 20.5344 33.5735L20.4961 33.4491C21.1905 33.293 22.6823 32.762 23.3837 32.5079Z" fill="url(#paint4_linear_274_10106)"/>
<path d="M44.1975 32.4043L44.249 32.4115C44.3271 32.7056 44.4429 33.236 44.5333 33.4916C44.9321 34.5866 45.4164 35.4936 45.0921 36.6995C44.759 37.9401 43.6156 38.5674 42.5817 39.0721C41.6444 39.5297 40.6698 39.9028 39.7014 40.2772C38.362 40.7984 37.0145 41.2961 35.6595 41.7698C35.2265 41.9244 34.0411 42.3173 33.6873 42.5378L33.6475 42.5633C35.3031 45.6507 35.4705 47.917 35.9444 51.3616C36.0335 52.0094 36.1337 52.8768 36.256 53.5113L36.2507 53.5645C36.1437 53.6635 35.914 53.7484 35.7719 53.81C35.2181 51.3851 34.8392 48.963 34.1589 46.5535C33.9978 45.7786 32.8632 42.9104 32.9211 42.3186C33.0075 41.4341 38.1491 39.429 38.9014 39.0762C40.9979 38.0931 42.7087 37.6982 43.2267 35.0444C43.401 34.1516 43.3825 33.5045 43.3883 32.6349C43.7044 32.5189 43.8744 32.4769 44.1975 32.4043Z" fill="#405782"/>
<path d="M44.7634 55.5893C46.4061 55.1989 48.0369 54.8656 49.6842 54.4999C50.3742 54.3468 51.0731 54.0229 51.7577 53.9072C52.0219 54.0176 52.1304 54.0611 52.3346 54.2681C52.56 54.497 52.7623 54.9456 52.7338 55.2808C52.6584 56.1682 52.3196 56.9938 51.6981 57.6092C51.5434 57.7622 51.2073 58.0772 51.0246 58.1361C50.0365 58.4547 48.7123 58.6962 47.6919 58.8854C46.6546 59.0782 44.5661 59.6164 43.6142 59.5982C43.555 59.543 43.4973 59.4869 43.4404 59.4293C43.2719 59.2572 43.2208 59.1549 43.2027 58.9024C43.1865 58.6771 43.5442 58.3553 43.6881 58.2063C43.8781 58.0098 44.5188 57.3332 44.7281 57.2548C45.1804 57.0851 45.9327 56.9447 46.4169 56.8383C47.6915 56.5579 48.9646 56.2688 50.2361 55.9713C50.5784 55.8901 51.7608 55.6734 51.9596 55.4858C52.0023 55.3608 51.9977 55.4241 51.9669 55.2898C51.7604 55.1993 50.4177 55.5971 50.0969 55.6807C49.8127 55.7416 49.5296 55.8085 49.2481 55.882C47.84 56.1844 46.1196 56.6468 44.7473 56.8724C44.7604 56.7998 44.8154 56.4775 44.8331 56.432C44.8481 56.1325 44.8104 55.8828 44.7634 55.5893Z" fill="#FF2347"/>
<path d="M44.8328 56.433C44.8805 56.5101 44.9828 56.4951 45.0582 56.4833C46.3675 56.2832 47.8928 55.7754 49.1951 55.6719C49.2359 55.7681 49.2463 55.775 49.2478 55.8829C47.8398 56.1854 46.1194 56.6477 44.7471 56.8734C44.7601 56.8007 44.8151 56.4784 44.8328 56.433Z" fill="#FF2347"/>
<path d="M49.1953 55.6718C49.5942 55.5549 49.7269 55.4887 50.0969 55.6815C49.8126 55.7424 49.5295 55.8094 49.248 55.8829C49.2465 55.7749 49.2361 55.768 49.1953 55.6718Z" fill="#FF2347"/>
<path d="M50.6991 57.1709C50.7483 57.1879 50.736 57.1944 50.7799 57.2537L50.7641 57.3552C50.5964 57.559 48.7733 57.9028 48.4241 57.9791C47.0602 58.2778 45.6887 58.6176 44.3191 58.8806C44.2606 58.8063 44.2656 58.8092 44.2402 58.7154C44.3056 58.6005 44.6233 58.521 44.7437 58.493C46.2533 58.1435 47.771 57.8309 49.2799 57.4774C49.7475 57.3678 50.2256 57.2456 50.6991 57.1709Z" fill="#02021F"/>
<path d="M43.2618 10.4003C44.1211 10.31 45.4237 10.4524 46.2884 10.512L50.5026 10.7808C50.0653 11.0712 48.8918 11.6014 48.3868 11.8398C46.9061 12.5357 45.4199 13.2183 43.928 13.8876C42.9164 14.3392 42.8395 14.4862 41.7237 14.4029C39.8749 14.2648 38.8676 13.8365 37.2061 13.0384C37.5012 12.8835 37.9766 12.6976 38.2973 12.5554L40.5468 11.5598C41.0911 11.3198 42.8072 10.5218 43.2618 10.4003Z" fill="#FF2347"/>
<path d="M28.7516 51.5443C28.7945 49.5744 28.7466 47.5655 28.7086 45.5923C28.6823 44.2313 28.5349 42.8362 28.6278 41.4666C28.6655 40.9097 28.908 40.7189 29.3594 40.502C28.8212 41.9147 29.2009 43.1463 29.6921 44.4903C30.6846 47.2055 31.3336 49.9852 32.14 52.7564C31.5918 53.0507 29.3897 54.2055 28.9283 54.266C28.6645 53.9579 28.9484 53.8203 28.4994 53.8422C28.4511 53.6526 28.3752 53.4302 28.3156 53.2406C28.371 53.0807 28.3865 53.0194 28.486 52.8785C28.4538 52.7811 28.3973 52.6589 28.3562 52.5619C28.3045 52.3147 28.2571 52.0598 28.1797 51.8211C28.4051 51.7615 28.559 51.6868 28.7516 51.5443Z" fill="#FDFDFD"/>
<path d="M28.4859 52.8789C28.6345 53.1643 28.8995 53.9453 28.9282 54.2663C28.6643 53.9582 28.9482 53.8206 28.4992 53.8426C28.451 53.653 28.375 53.4305 28.3154 53.241C28.3709 53.0811 28.3863 53.0198 28.4859 52.8789Z" fill="#01010C"/>
<path d="M29.2347 44.7559C29.3468 44.8508 30.2618 47.9143 30.347 48.2691L30.0613 48.3864C29.8299 48.4939 29.4746 48.621 29.2295 48.7172L29.2347 44.7559Z" fill="white"/>
<path d="M42.1572 17.8564C42.5499 17.9543 42.9768 18.0529 43.3799 18.0661C43.5768 18.8252 43.8768 19.7295 44.1049 20.4917L45.2161 24.2879C45.6561 25.8379 46.1118 27.3829 46.5834 28.9226C46.8411 29.7923 47.1241 30.8106 47.4118 31.6602C46.9865 31.6671 46.5607 31.6686 46.1353 31.6648C46.1572 31.4559 46.1861 31.2408 46.2115 31.0316C45.6542 30.7235 44.8145 30.1238 44.3334 29.7182C44.1253 28.9642 43.9734 27.3479 43.8457 26.4937C43.4122 23.5875 43.0984 20.6454 42.1572 17.8564Z" fill="#FF2347"/>
<path d="M26.7285 28.9905C27.4289 28.7743 28.2807 28.5122 28.8861 28.073C29.4488 27.6646 31.6125 24.7466 32.1797 23.9648C33.4501 25.5514 34.0383 26.0938 34.8036 28.0674C34.2389 28.4709 33.5774 28.7837 33.0501 29.1477C31.9904 29.8791 31.3074 29.9051 30.0717 29.9208C29.8742 29.9233 29.0506 30.1145 28.9254 30.0737C28.8529 29.8921 28.8036 29.9112 28.6434 29.8801C28.1867 29.735 27.1207 29.2472 26.7285 28.9905Z" fill="white"/>
<path d="M26.7289 28.9905C27.4293 28.7743 28.2811 28.5122 28.8865 28.073C29.4492 27.6646 31.6129 24.7466 32.1801 23.9648C33.4505 25.5514 34.0387 26.0938 34.804 28.0674C34.2393 28.4709 33.5778 28.7837 33.0505 29.1477C31.9908 29.8791 31.3078 29.9051 30.0721 29.9208C29.8746 29.9233 29.051 30.1145 28.9258 30.0737C28.9426 29.8545 29.5165 29.7733 29.7242 29.6891C30.3265 29.445 31.0871 29.4281 31.6841 29.2249C32.4923 28.9497 33.4056 28.3489 34.1391 27.886C33.637 26.5664 33.0309 25.8786 32.1348 24.8633C31.2564 26.0417 30.3699 27.2775 29.3946 28.3675C29.0982 28.6988 28.0951 28.9839 27.937 29.2178C28.0084 29.5389 28.5645 29.6182 28.6438 29.8801C28.1871 29.735 27.1211 29.2472 26.7289 28.9905ZM25.0561 32.711C25.098 32.607 25.096 32.6102 25.1672 32.5259C25.3786 32.4286 25.6745 32.471 25.9114 32.4815C26.0994 32.5133 26.3012 32.5433 26.4855 32.587C26.8927 32.9951 27.5478 33.3347 28.1222 33.3487C28.2845 33.3526 28.3554 33.2822 28.4781 33.1815L28.5538 33.1204C29.6067 33.3752 30.7586 33.9834 31.7146 33.2435C32.1736 32.8883 32.2453 33.0898 32.7553 33.1765C32.2488 33.3825 31.6942 33.7253 31.1687 33.9745C29.359 34.833 27.3618 35.533 25.7053 36.683C25.5939 36.7603 25.536 36.8148 25.4372 36.7715L25.4215 36.7293C25.3788 36.6206 25.3096 36.4799 25.2599 36.3707C24.8426 35.6659 24.3472 35.151 23.6396 34.7761C24.3295 33.9022 24.5268 33.7592 25.0561 32.711Z" fill="#FDFDFD"/>
<path d="M25.5645 33.038C26.2277 33.0154 26.7332 33.4383 27.3847 33.6582C27.8866 33.8277 29.3995 33.6903 29.6417 33.9197L29.6374 34.0045C29.4441 34.2389 27.9574 34.8443 27.5548 35.0264C26.9221 35.3334 26.2925 35.6997 25.6823 36.0549C25.3634 35.548 24.8741 35.0661 24.4336 34.6782C24.785 34.308 25.3025 33.4747 25.5645 33.038Z" fill="white"/>
<path d="M53.0415 55.8008C53.3346 56.1515 53.1803 57.3242 53.108 57.7812C52.8519 59.3931 52.0034 60.8329 50.7473 61.7889C48.8165 63.2311 46.7857 62.7663 45.4511 60.7477C45.2607 60.4136 45.115 60.1145 44.9473 59.767C45.2511 59.7536 46.4765 59.435 46.563 59.5535C47.4484 60.7635 48.7676 61.5782 50.4069 60.6076C51.2246 60.1254 51.8407 59.3371 52.1346 58.3982C52.213 58.1445 52.3538 57.5012 52.4396 57.3023C52.7042 56.6865 52.8684 56.4685 53.0415 55.8008Z" fill="#2F2F2F"/>
<path d="M42.1673 19.0312C42.48 19.3331 43.3938 25.3842 43.4873 26.1307C43.6011 27.0417 43.7942 28.5241 43.9911 29.4952C43.7981 29.3723 43.5534 29.1757 43.3654 29.0333L41.2008 27.2809C41.265 26.6768 41.3685 26.0416 41.4481 25.4347C41.5158 24.9154 41.5558 24.0533 41.6869 23.5814C41.7788 23.5242 41.8265 23.5153 41.9269 23.485C42.145 23.1425 42.1515 19.6608 42.1673 19.0312ZM25.0701 51.8711C25.433 52.0193 25.6702 52.0866 26.047 52.1901C26.1971 52.4905 26.3023 52.8238 26.592 52.9902C26.9437 53.1924 27.9842 52.4731 28.1483 52.8404C28.2229 52.646 28.2151 52.6655 28.3563 52.562C28.3974 52.659 28.4538 52.7812 28.4861 52.8786C28.3865 53.0194 28.3711 53.0807 28.3157 53.2407C28.3753 53.4302 28.4512 53.6527 28.4995 53.8422L28.5799 54.2136L28.6552 54.2591C28.6561 54.3679 28.6458 54.3452 28.5745 54.4556C28.9599 55.2098 27.778 55.2613 27.3664 55.2909C26.318 55.3673 25.2003 55.4082 24.1511 55.3701L23.9394 54.8676C24.0975 54.8493 24.3124 54.8314 24.4644 54.8038C24.3216 54.7998 23.9616 54.7819 23.8897 54.6557L23.9229 54.6179C24.0207 54.6155 24.0919 54.6204 24.1828 54.5745C24.0558 54.5757 24.007 54.5903 23.9059 54.5217C23.6269 54.1568 23.5194 53.3872 23.5601 52.933L24.095 53.0941L24.272 53.3937C24.4224 53.3149 24.4529 53.317 24.6223 53.3084C24.6804 53.4063 24.7571 53.5451 24.8244 53.6311C24.8606 53.6149 24.9124 53.6121 24.9548 53.606L24.8595 53.2987L24.8885 53.1944C24.8354 53.0385 24.817 53.0109 24.8214 52.8506L24.8773 52.7243C24.915 52.5741 24.8844 52.4698 24.9652 52.3797C25.0792 52.3692 25.0224 52.3631 25.1387 52.4183C25.2982 52.4284 25.3139 52.4572 25.4359 52.3813C25.4253 52.1816 25.2077 52.0355 25.0701 51.8711Z" fill="#FF2347"/>
<path d="M28.5746 54.4561C28.96 55.2102 27.7781 55.2618 27.3664 55.2914C26.3181 55.3677 25.2003 55.4087 24.1512 55.3706L23.9395 54.8681C24.0976 54.8498 24.3124 54.8319 24.4644 54.8043C25.2011 54.8027 27.9028 54.6192 28.5746 54.4561Z" fill="#FF2347"/>
<path d="M28.5798 54.2139L28.6551 54.2593C28.6561 54.3681 28.6458 54.3454 28.5745 54.4558C27.9027 54.619 25.2011 54.8024 24.4643 54.8041C24.3215 54.8 23.9616 54.7822 23.8896 54.6559L23.9229 54.6182C24.0207 54.6157 24.0919 54.6206 24.1828 54.5747C25.5726 54.5183 27.1834 54.2723 28.5798 54.2139Z" fill="#01010C"/>
<path d="M24.877 52.7247C24.9146 52.5745 24.8841 52.4702 24.9648 52.3801C25.0788 52.3695 25.022 52.3634 25.1383 52.4186L25.132 52.5087C25.2919 52.6358 25.3835 52.6366 25.5314 52.8022L25.5348 52.8684C25.2819 52.9479 25.1645 52.8866 24.9466 52.7645C24.9233 52.7515 24.9001 52.7381 24.877 52.7247Z" fill="#02021F"/>
<path d="M24.8218 52.8506C24.9892 52.935 25.1153 53.0901 25.1692 53.2776C25.188 53.3422 25.1823 53.3913 25.1778 53.4574C25.109 53.5686 25.1053 53.5687 24.9552 53.606L24.86 53.2987L24.889 53.1944C24.8359 53.0385 24.8174 53.0109 24.8218 52.8506ZM24.2725 53.3937C24.4229 53.315 24.4533 53.317 24.6227 53.3085C24.6809 53.4063 24.7575 53.5451 24.8248 53.6312C24.7078 53.7326 24.6523 53.7359 24.5173 53.7132C24.3815 53.6157 24.3559 53.5427 24.2725 53.3937Z" fill="#01010C"/>
<path d="M28.1484 52.841C28.223 52.6465 28.2153 52.666 28.3564 52.5625C28.3976 52.6595 28.454 52.7817 28.4862 52.8791C28.3867 53.02 28.3712 53.0813 28.3158 53.2412C28.2537 53.1089 28.2028 52.9773 28.1484 52.841Z" fill="#02021F"/>
<path d="M33.0622 54.9657C33.6217 54.8277 33.7368 54.8427 34.2968 54.8853C34.3662 55.0915 34.4449 55.3124 34.5071 55.5198C35.3641 55.6318 35.6937 55.4621 36.4989 55.1593C36.6761 55.605 36.8041 56.2143 36.9233 56.6957C36.0773 56.9648 35.2285 57.0976 34.402 57.3074C32.2204 57.8607 31.233 58.1627 29.0215 57.7568C29.9195 56.9705 30.9054 56.6568 31.7058 55.9736C32.032 56.1883 32.5027 56.6568 32.7692 56.7083L32.8599 56.6799L32.9031 56.5938C32.8044 56.3345 32.6109 56.4071 32.5824 56.1522C32.4675 56.0743 32.4916 56.1149 32.4478 55.9976L32.5119 55.9436C32.6291 55.946 32.6281 55.9399 32.7296 55.9943C32.8419 55.9971 32.8914 56.0053 32.9985 55.9748C33.0506 55.7678 32.7486 55.7098 32.6398 55.6537L32.8448 55.5726C32.7854 55.5628 32.6171 55.5397 32.5684 55.5202L32.5452 55.439L32.4999 55.4423C32.7363 55.3501 33.2359 55.5429 33.4296 55.6886C33.5919 55.8096 33.5328 55.7978 33.6985 55.8149L33.7931 55.7633C33.8196 55.4962 33.588 55.482 33.7258 55.3501L33.9514 55.3408L33.976 55.3042C33.7346 55.1139 33.3569 55.0388 33.0622 54.9657Z" fill="#FF2347"/>
<path d="M32.8449 55.5732C32.7856 55.5635 32.6172 55.5404 32.5685 55.5209L32.5453 55.4397L32.5 55.4429C32.7364 55.3508 33.236 55.5436 33.4297 55.6893L33.3494 55.7551C33.3604 55.9244 33.4077 56.1675 33.3427 56.2909C33.2139 56.353 33.1782 56.3242 33.0164 56.2978C32.8902 56.1829 32.8382 56.1358 32.7297 55.995C32.842 55.9978 32.8916 56.0059 32.9986 55.9755C33.0508 55.7685 32.7487 55.7104 32.64 55.6544L32.8449 55.5732Z" fill="#01010C"/>
<path d="M32.8449 55.5732C32.7856 55.5635 32.6172 55.5404 32.5685 55.5209L32.5453 55.4397L32.5 55.4429C32.7364 55.3508 33.236 55.5436 33.4297 55.6893L33.3494 55.7551C33.1135 55.6999 33.057 55.6893 32.8449 55.5732Z" fill="#C04F4D"/>
<path d="M32.5819 56.152C32.467 56.0741 32.4911 56.1147 32.4473 55.9973L32.5114 55.9434C32.6286 55.9458 32.6277 55.9397 32.7291 55.9941C32.8376 56.135 32.8896 56.182 33.0158 56.2969C32.8368 56.2693 32.7463 56.223 32.5819 56.152Z" fill="#01010C"/>
<path d="M18.9525 27.8086C20.5459 27.8999 20.8025 32.3914 19.0762 32.9845C17.3565 32.8441 17.1495 28.3298 18.9525 27.8086ZM23.7839 44.3995C23.9049 44.5761 24.0487 47.2543 24.0847 47.6886C24.1477 48.3917 24.2182 49.0939 24.2961 49.7957C24.3227 50.0352 24.5039 51.4365 24.4459 51.5806C24.0027 51.7693 23.6712 52.2714 23.3075 52.6652C22.9682 51.4068 22.4679 49.6447 22.7053 48.3576C22.944 47.0647 23.4251 45.6724 23.7839 44.3995Z" fill="#FDFDFD"/>
<path d="M23.4403 46.9561C23.5711 47.1046 24.0033 50.8464 24.0147 51.2299L23.7113 51.4353L23.6114 51.4824L23.5528 51.4581C23.0063 50.2764 23.1767 48.2095 23.4403 46.9561Z" fill="white"/>
<path d="M11.8743 62.4868C13.6747 62.572 13.5979 65.6769 11.7352 65.9562C10.8859 65.9578 10.3809 65.4126 10.306 64.5281C10.2624 64.0057 10.4186 63.4866 10.7397 63.0863C11.071 62.6751 11.3824 62.5254 11.8743 62.4868ZM50.2843 59.8187C51.2354 59.2622 51.1889 58.4 51.8981 57.9482C51.5362 59.3527 50.6904 60.443 49.2512 60.6541C48.5658 60.7547 47.9731 60.4937 47.4412 60.0558C47.3035 59.9421 46.9577 59.6194 46.9374 59.4339L46.9993 59.3673C47.232 59.2955 47.4889 59.1899 47.707 59.2249C48.5624 59.1055 49.9481 58.7678 50.837 58.5823C50.7701 58.7138 50.7047 58.8465 50.64 58.9797C50.6016 59.4501 50.0208 59.6312 49.7674 59.9608C50.027 59.9709 50.0627 59.7948 50.2843 59.8187Z" fill="#B0C1D3"/>
<path d="M50.2834 59.8187C51.2346 59.2622 51.1881 58.4 51.8973 57.9482C51.5354 59.3527 50.6896 60.443 49.2504 60.6541C48.565 60.7547 47.9723 60.4937 47.4404 60.0558C47.3027 59.9421 46.9569 59.6194 46.9365 59.4339L46.9984 59.3673C47.4719 59.5435 47.845 60.0627 48.4284 60.1909C49.0911 60.3371 49.735 60.2409 50.2834 59.8187Z" fill="#B0C1D3"/>
<path d="M47.7067 59.2247C47.6536 59.2425 47.6183 59.2624 47.5675 59.2868C47.5771 59.3326 47.5683 59.346 47.6036 59.3728C48.7817 60.2602 49.7344 60.0564 50.6398 58.9795C50.6013 59.4499 50.0206 59.631 49.7671 59.9606C50.0267 59.9707 50.0625 59.7946 50.284 59.8185C49.7356 60.2407 49.0917 60.3369 48.429 60.1907C47.8456 60.0625 47.4725 59.5433 46.999 59.3671C47.2317 59.2953 47.4886 59.1898 47.7067 59.2247Z" fill="#02021F"/>
<path d="M40.0283 14.4092C40.7791 14.6008 41.6406 14.6624 42.426 14.817C42.5691 15.4687 43.0037 16.5869 43.0887 17.0843C43.2056 17.4344 43.2879 17.7079 43.3795 18.0663C42.9764 18.0532 42.5495 17.9546 42.1568 17.8567C42.0033 17.5565 41.891 17.2018 41.7779 16.8799C41.1741 15.6474 40.9833 15.3692 40.0283 14.4092Z" fill="#FF2347"/>
<path d="M41.7777 16.8799C42.2812 16.8875 42.66 17.0585 43.0885 17.0843C43.2054 17.4344 43.2877 17.7079 43.3792 18.0663C42.9762 18.0532 42.5492 17.9546 42.1565 17.8567C42.0031 17.5565 41.8908 17.2018 41.7777 16.8799ZM10.9312 61.6738C11.115 61.6563 11.3755 61.6876 11.5657 61.7038C11.49 61.8662 11.4193 62.0854 11.3585 62.2587C10.1497 62.8018 9.63446 64.1292 10.2571 65.4342C10.335 65.5974 10.539 65.7577 10.584 65.918C10.4729 65.9744 10.4161 65.944 10.2781 65.9298C9.52634 65.804 9.10003 65.0867 9.02511 64.3341C8.95703 63.6506 9.15038 62.9666 9.56226 62.434C9.93269 61.9612 10.3605 61.7314 10.9312 61.6738Z" fill="#FF2347"/>
<path d="M36.8299 57.0349C36.8739 57.0207 36.8821 57.0296 36.9334 57.0365C36.9967 57.1425 37.0166 57.3661 36.9953 57.479C36.5195 57.9174 34.0854 58.2368 33.3631 58.482C32.2918 58.8457 30.5105 58.9179 29.444 58.4999C29.3162 58.4284 29.135 58.3213 29.0537 58.1995C29.1714 58.042 30.2356 58.2307 30.4803 58.2397C31.8532 58.2884 33.2082 57.9052 34.5386 57.593C35.2995 57.4144 36.0825 57.2594 36.8299 57.0349Z" fill="#FF2347"/>
<path d="M35.9083 54.1515L35.9626 54.1636C36.0957 54.3159 36.2404 54.6662 36.3324 54.8647C35.8874 55.1082 35.4587 55.2093 34.9709 55.2803L34.849 55.2738C34.7296 55.1545 34.5791 54.7628 34.5054 54.5923C35.0735 54.5407 35.398 54.3837 35.9083 54.1515ZM27.5279 51.9733C27.5579 51.9693 27.588 51.9656 27.6181 51.9628C27.7399 51.9506 27.8753 51.9506 27.974 52.0371C28.0972 52.4588 27.2358 52.5936 26.985 52.6435C26.5433 52.6861 26.5538 52.5595 26.3994 52.1357C26.7752 52.0789 27.1514 52.0249 27.5279 51.9733Z" fill="#E9946B"/>
<path d="M24.318 52.5858C24.454 52.5448 24.4711 52.5297 24.6011 52.5679C24.7033 52.6767 24.7595 52.8155 24.8211 52.8508C24.8167 53.0112 24.8352 53.0388 24.8883 53.1946L24.8593 53.299L24.5142 52.906C24.3939 52.8723 24.3896 52.8715 24.3133 52.7729C24.1919 52.7631 24.0183 52.7721 23.9316 52.7031C24.0271 52.6272 24.193 52.6117 24.318 52.5858Z" fill="#02021F"/>
<path d="M24.318 52.5859L24.5181 52.6663L24.5224 52.7073C24.4499 52.7325 24.3883 52.7552 24.3133 52.7731C24.1919 52.7633 24.0183 52.7723 23.9316 52.7032C24.0271 52.6273 24.193 52.6119 24.318 52.5859Z" fill="#7D3B4B"/>
<path d="M52.2249 53.3008C52.3872 53.3142 52.4622 53.5634 52.3734 53.7213C52.2261 53.7424 52.2545 53.7254 52.0949 53.6564L51.5811 53.4903C51.8411 53.4347 51.9841 53.4108 52.2249 53.3008Z" fill="#FF2347"/>
<path d="M24.5146 52.9062L24.8597 53.2992L24.9549 53.6065C24.9126 53.6125 24.8608 53.6154 24.8246 53.6316C24.7572 53.5456 24.6806 53.4067 24.6224 53.3089C24.5536 53.1802 24.4463 53.0995 24.4385 52.9602L24.5146 52.9062Z" fill="#FF2347"/>
<path d="M10.9326 48.3924C11.0973 48.3851 11.5535 48.4317 11.7383 48.4451L11.7543 48.4723L11.6832 48.4764C11.4623 48.5503 11.3022 48.7037 11.0776 48.6181C10.9827 48.5227 10.976 48.5194 10.9326 48.3924Z" fill="#C04F4D"/>
<path d="M26.3816 7.11392L26.3467 7.13685C25.8005 7.48781 23.348 7.45347 22.9316 6.85689C22.9173 6.77892 22.8939 6.66912 22.9638 6.60283C23.596 6.00309 24.5518 5.63383 25.2227 5.11551C25.5272 4.82695 25.6457 4.34131 25.8708 3.98409C26.8547 2.42228 28.4155 1.41592 30.1675 1.19047C32.8831 0.841006 36.1201 2.75137 36.3963 5.8231C36.5125 7.11558 36.0207 8.9569 35.3152 10.0176C35.1213 10.3625 34.5519 10.8632 34.733 11.1536C34.6744 11.213 34.6122 11.2869 34.5408 11.3227C34.7108 11.5549 35.104 12.1247 35.2977 12.2805L35.2942 12.2553C35.3643 12.3008 35.417 12.343 35.4823 12.3944C35.4381 12.4755 35.3531 12.646 35.2965 12.7064C35.0487 13.0974 34.016 14.3687 33.6918 14.6604C33.3279 14.7275 33.052 15.3373 32.7145 15.5281L32.6663 15.4747C32.6941 15.3735 32.7209 15.3177 32.7624 15.2239C32.6861 15.2884 32.6086 15.352 32.5354 15.4202C32.505 15.558 32.5045 15.5667 32.3656 15.6214C32.2017 15.2838 31.9303 14.9154 31.7152 14.6052L31.6345 14.532L31.3881 14.0772C30.7031 14.6256 30.8406 13.7998 29.9425 14.0019C29.8603 14.0453 29.6187 14.0651 29.5149 14.0783C28.6208 13.6937 28.3589 12.8811 27.7198 12.075C27.6967 11.9269 27.6833 11.7537 27.6678 11.6025C27.1803 11.4188 26.9761 11.3231 26.5742 10.9823C26.8658 9.81087 27.3941 9.60624 26.8076 8.41127C26.58 7.83474 26.7398 7.57557 26.3816 7.11392Z" fill="#FF2347"/>
<path d="M28.0117 5.68652L28.4587 5.88084C28.6026 5.88161 28.6635 5.92833 28.803 5.94944C29.0408 5.98223 29.2757 6.0346 29.5058 6.10604C29.3234 6.17184 29.1742 6.19944 28.9784 6.17383L29.0984 6.2391C29.071 6.3049 29.0886 6.28781 29.0402 6.32803L28.9506 6.33753L29.1028 6.40605C29.1136 6.4764 29.1217 6.45228 29.1028 6.50871C29.2504 6.51869 29.3967 6.53022 29.5445 6.5331C29.8757 6.6839 30.1644 6.61372 30.3628 6.84631L30.3943 6.96285C30.3059 7.01018 30.1691 6.95716 30.0323 6.97287C30.438 7.1063 30.7972 7.27199 31.0033 7.69041C31.5383 8.77632 30.1338 10.5221 31.656 11.8709C31.3837 12.931 31.0233 13.4097 30.0159 13.7465L30.1508 13.8389C30.0768 13.9047 30.004 13.9391 29.9428 14.0022C29.8606 14.0456 29.619 14.0653 29.5152 14.0785C28.6211 13.694 28.3592 12.8813 27.7201 12.0752C27.697 11.9272 27.6836 11.754 27.6681 11.6028C27.1806 11.419 26.9764 11.3233 26.5745 10.9825C26.8661 9.81112 27.3943 9.6065 26.8078 8.41152C26.5803 7.835 26.7401 7.57582 26.3818 7.11417C26.5339 7.01651 26.5638 7.02158 26.7067 7.04525C26.9429 6.90687 27.1608 6.83697 27.3969 7.0407L27.4643 6.98761L27.4851 6.88426L27.4133 6.8142L27.331 6.79817C27.2638 6.70562 27.2918 6.64217 27.2969 6.50006C27.449 6.33899 27.5588 6.08769 27.6672 5.88258C27.7904 5.91729 27.9138 5.95118 28.0374 5.98422C27.9723 5.79738 27.9773 5.87592 28.0117 5.68652Z" fill="#E9946B"/>
<path d="M28.0121 5.68652L28.459 5.88084C28.603 5.88161 28.6639 5.92833 28.8033 5.94944C29.0411 5.98223 29.2761 6.0346 29.5061 6.10604C29.3238 6.17184 29.1746 6.19944 28.9788 6.17383L29.0987 6.2391C29.0714 6.3049 29.0889 6.28781 29.0405 6.32803L28.951 6.33753L29.1032 6.40605C29.1139 6.4764 29.1221 6.45228 29.1032 6.50871C29.2507 6.51869 29.397 6.53022 29.5449 6.5331C29.8761 6.6839 30.1648 6.61372 30.3632 6.84631L30.3946 6.96285C30.3062 7.01018 30.1694 6.95716 30.0326 6.97287C29.3675 6.98334 29.1086 7.18399 28.4686 7.35914C28.1408 7.44881 27.7841 7.45603 27.4471 7.45839C27.1035 7.32833 26.7631 7.47093 26.707 7.04525C26.9433 6.90687 27.1611 6.83697 27.3972 7.0407L27.4646 6.98761L27.4855 6.88426L27.4136 6.8142L27.3313 6.79817C27.2641 6.70562 27.2922 6.64217 27.2973 6.50006C27.4493 6.33899 27.5592 6.08769 27.6676 5.88258C27.7908 5.91729 27.9141 5.95118 28.0378 5.98422C27.9726 5.79738 27.9776 5.87592 28.0121 5.68652Z" fill="url(#paint5_linear_274_10106)"/>
<path d="M28.012 5.68652L28.459 5.88084C28.6029 5.88161 28.6639 5.92833 28.8033 5.94944C29.0411 5.98223 29.276 6.0346 29.5061 6.10604C29.3237 6.17184 29.1745 6.19944 28.9787 6.17383L29.0987 6.2391C29.0714 6.3049 29.0889 6.28781 29.0405 6.32803L28.9509 6.33753L29.1032 6.40605C29.1139 6.4764 29.122 6.45228 29.1032 6.50871L28.8457 6.62516C28.6941 6.65695 28.4689 6.70728 28.321 6.7113C28.1296 6.67599 28.1374 6.71276 28.0351 6.58847C27.8113 6.56407 27.6383 6.50566 27.4876 6.71069L27.4659 6.73988C27.4485 6.76464 27.431 6.78944 27.4136 6.8142L27.3313 6.79817C27.2641 6.70562 27.2922 6.64217 27.2972 6.50006C27.4493 6.33899 27.5592 6.08769 27.6675 5.88258C27.7907 5.91729 27.9141 5.95118 28.0377 5.98422C27.9726 5.79738 27.9776 5.87592 28.012 5.68652Z" fill="#FF2347"/>
<path d="M28.0122 5.68652L28.4592 5.88084C28.6031 5.88161 28.664 5.92833 28.8035 5.94944C29.0412 5.98223 29.2762 6.0346 29.5062 6.10604C29.3239 6.17184 29.1747 6.19944 28.9789 6.17383C28.5815 6.16011 28.4157 6.05359 28.0379 5.98422C27.9727 5.79738 27.9778 5.87592 28.0122 5.68652ZM28.0353 6.58847C28.3879 6.53042 28.6274 6.49832 28.9511 6.33753L29.1033 6.40605C29.1141 6.4764 29.1222 6.45228 29.1033 6.50871L28.8459 6.62516C28.6943 6.65695 28.469 6.70728 28.3212 6.7113C28.1298 6.67599 28.1376 6.71276 28.0353 6.58847Z" fill="#01010C"/>
<path d="M27.4131 6.81396C27.4305 6.7892 27.4479 6.7644 27.4654 6.73963L27.4871 6.71045C27.6377 6.50542 27.8107 6.56383 28.0346 6.58823C28.1369 6.71252 28.1291 6.67574 28.3205 6.71106L28.3137 6.81412C28.2452 6.91994 28.2592 6.86348 28.2662 6.98822C27.9989 6.99382 27.7314 6.99353 27.4641 6.98736L27.4849 6.88402L27.4131 6.81396Z" fill="#02021F"/>
<path d="M29.1031 6.50781C29.2507 6.5178 29.397 6.52933 29.5448 6.53221C29.876 6.68301 30.1647 6.61282 30.3631 6.84541C30.0644 6.79743 29.4044 6.8787 29.24 6.74048C29.1288 6.69563 29.1314 6.70038 29.0098 6.70342L28.8457 6.62427L29.1031 6.50781Z" fill="#FF2347"/>
<path d="M28.3212 6.71114C28.469 6.70712 28.6942 6.65678 28.8459 6.625L29.01 6.70415C29.1315 6.70111 29.129 6.69636 29.2402 6.74121C28.9999 6.98192 28.7853 6.9639 28.4625 6.97928L28.2669 6.98829C28.2599 6.86356 28.2458 6.92002 28.3144 6.8142L28.3212 6.71114Z" fill="#01010C"/>
<path d="M28.3212 6.71114C28.469 6.70712 28.6943 6.65678 28.8459 6.625L29.01 6.70415C28.6884 6.80831 28.527 6.75672 28.3145 6.8142L28.3212 6.71114Z" fill="#7D3B4B"/>
<path d="M28.267 6.9885L28.4626 6.97949L28.6322 7.02163L28.6484 7.06944C28.4898 7.17652 27.4973 7.17449 27.3975 7.04075L27.4649 6.98765C27.7322 6.99382 27.9997 6.99411 28.267 6.9885Z" fill="#FF2347"/>
<path d="M26.8076 8.41116C26.84 8.31975 26.8371 8.31341 26.9002 8.2373L27.0465 8.37593C27.6528 9.45177 27.1059 9.90769 26.8254 10.9545C27.5105 11.3832 27.8615 11.121 27.9761 12.0502C28.5642 12.7591 29.0236 14.0581 30.0157 13.7462L30.1506 13.8386C30.0765 13.9043 30.0038 13.9387 29.9425 14.0018C29.8603 14.0452 29.6187 14.065 29.515 14.0782C28.6208 13.6936 28.359 12.8809 27.7198 12.0749C27.6967 11.9268 27.6833 11.7536 27.6679 11.6024C27.1803 11.4187 26.9761 11.323 26.5742 10.9822C26.8659 9.81076 27.3941 9.60614 26.8076 8.41116Z" fill="#01010C"/>
<path d="M26.3818 7.11361C26.5339 7.01594 26.5638 7.02102 26.7067 7.04468C26.7628 7.47037 27.1032 7.32777 27.4468 7.45782C27.2711 7.45555 27.0605 7.45876 26.8881 7.44853C26.8801 7.86285 26.9058 7.98763 27.0468 8.37572L26.9005 8.2371C26.8373 8.31321 26.8402 8.31954 26.8078 8.41096C26.5803 7.83443 26.7401 7.57526 26.3818 7.11361Z" fill="url(#paint6_linear_274_10106)"/>
<path d="M27.7813 8.12207C28.0146 8.1541 28.1207 8.21458 28.3064 8.36696L28.311 8.42728C28.2015 8.47871 27.8641 8.44668 27.7079 8.4464C27.5511 8.49653 27.4166 8.56411 27.2681 8.51593L27.2461 8.45094C27.3899 8.24263 27.5538 8.20605 27.7813 8.12207ZM29.0013 11.6037C29.0609 11.6451 29.0346 11.6257 29.0725 11.7091C29.0052 11.9294 28.8211 12.0237 28.6375 12.1344C28.5392 12.0261 28.543 12.0647 28.5382 11.9491C28.639 11.7974 28.8418 11.6991 29.0013 11.6037Z" fill="#01010C"/>
<path d="M26.3816 7.11392L26.3467 7.13685C25.8005 7.48781 23.348 7.45347 22.9316 6.85689C22.9173 6.77892 22.8939 6.66912 22.9638 6.60283C23.596 6.00309 24.5518 5.63383 25.2227 5.11551C25.5272 4.82695 25.6457 4.34131 25.8708 3.98409C26.8547 2.42228 28.4155 1.41592 30.1675 1.19047C32.8831 0.841006 36.1201 2.75137 36.3963 5.8231C36.5125 7.11558 36.0207 8.9569 35.3152 10.0176C35.2677 9.89595 35.3874 9.71519 35.4514 9.595C36.919 6.84049 36.6631 3.71508 33.8185 2.09662C33.5553 1.94689 33.4541 1.71783 33.1538 1.88699C33.3004 1.95592 33.4284 2.01049 33.5619 2.10694C32.8735 2.10265 32.2976 2.07729 31.6237 2.25935C30.3119 2.61375 29.4167 3.58401 28.864 4.85301C28.7681 5.07297 28.5878 5.73088 28.4584 5.88058L28.0115 5.68627C27.977 5.87567 27.972 5.79713 28.0372 5.98397C27.9135 5.95093 27.7902 5.91703 27.667 5.88233C27.5586 6.08744 27.4487 6.33874 27.2966 6.49981C27.2916 6.64192 27.2635 6.70536 27.3307 6.79791L27.413 6.81395L27.4848 6.88401L27.464 6.98735L27.3966 7.04045C27.1605 6.83672 26.9427 6.90662 26.7064 7.04499C26.5636 7.02133 26.5336 7.01625 26.3816 7.11392Z" fill="#FF2347"/>
<path d="M28.88 1.68451C30.5023 1.28938 31.553 1.20585 33.1542 1.88651C33.3008 1.95545 33.4288 2.01001 33.5623 2.10646C32.8738 2.10218 32.298 2.07682 31.6241 2.25887C30.3123 2.61328 29.4171 3.58353 28.8643 4.85253C28.7685 5.07249 28.5882 5.7304 28.4588 5.88011L28.0118 5.68579C27.9774 5.87519 27.9724 5.79665 28.0375 5.98349C27.9139 5.95045 27.7905 5.91656 27.6673 5.88185L27.457 5.82985C27.5772 5.75277 27.5887 5.75029 27.6705 5.63384L27.6425 5.58837C27.6578 5.30622 28.37 4.07098 28.5077 3.74895C28.8491 2.95083 28.8395 2.62512 28.5731 1.82706C28.7041 1.73658 28.7284 1.72882 28.88 1.68451Z" fill="#FF2347"/>
<path d="M28.5731 1.82712C28.7041 1.73664 28.7284 1.72888 28.88 1.68457C29.7211 3.64906 27.9168 5.10884 28.0118 5.68585C27.9774 5.87525 27.9724 5.79671 28.0375 5.98355C27.9139 5.95051 27.7905 5.91661 27.6673 5.88191L27.457 5.82991C27.5772 5.75283 27.5887 5.75035 27.6705 5.63389L27.6425 5.58843C27.6578 5.30628 28.37 4.07103 28.5077 3.74901C28.8491 2.95089 28.8395 2.62517 28.5731 1.82712Z" fill="#02021F"/>
<path d="M28.5731 1.82715C28.8395 2.6252 28.8492 2.95092 28.5077 3.74904C28.37 4.07107 27.6579 5.30631 27.6425 5.58846C27.1604 5.59313 26.1544 5.24242 25.7152 5.00898C25.6873 4.92398 25.6836 4.88712 25.7118 4.79709C26.0451 3.73376 27.1916 2.54628 28.1087 2.03086C28.224 1.96836 28.4466 1.88078 28.5731 1.82715Z" fill="#FF2347"/>
<path d="M28.1087 2.03125C28.1411 2.76938 27.9274 3.54697 27.4457 4.0965C27.3429 4.21235 27.2364 4.32455 27.1264 4.43289C26.8831 4.27507 26.6186 4.0474 26.345 4.08652C26.0847 4.22209 25.941 4.84449 25.7152 5.00937C25.6873 4.92437 25.6836 4.88751 25.7118 4.79748C26.0451 3.73415 27.1916 2.54667 28.1087 2.03125Z" fill="#FF2347"/>
<path d="M26.3816 7.11392L26.3467 7.13685C25.8005 7.48781 23.348 7.45347 22.9316 6.85689C22.9173 6.77892 22.8939 6.66912 22.9638 6.60283C23.596 6.00309 24.5518 5.63383 25.2227 5.11551C25.5272 4.82695 25.6457 4.34131 25.8708 3.98409C26.8547 2.42228 28.4155 1.41592 30.1675 1.19047C32.8831 0.841006 36.1201 2.75137 36.3963 5.8231C36.5125 7.11558 36.0207 8.9569 35.3152 10.0176C35.2677 9.89595 35.3874 9.71519 35.4514 9.595C36.919 6.84049 36.6631 3.71508 33.8185 2.09662C33.5553 1.94689 33.4541 1.71783 33.1538 1.88699C31.5526 1.20633 30.5019 1.28986 28.8796 1.68499C28.728 1.7293 28.7038 1.73706 28.5727 1.82754C28.4462 1.88117 28.2236 1.96875 28.1083 2.03125C27.1912 2.54667 26.0447 3.73415 25.7114 4.79748C25.6832 4.88751 25.6869 4.92437 25.7148 5.00936C26.154 5.24281 27.16 5.59352 27.6421 5.58885L27.6701 5.63431C27.5883 5.75077 27.5768 5.75325 27.4567 5.83033C26.7905 5.60667 26.2115 5.44646 25.5646 5.15655C25.0098 5.51619 23.4725 6.39293 23.0669 6.75647C24.3532 7.36486 26.0761 7.22952 27.2966 6.49981C27.2916 6.64192 27.2635 6.70536 27.3307 6.79791L27.413 6.81395L27.4848 6.88401L27.464 6.98735L27.3966 7.04045C27.1605 6.83672 26.9427 6.90662 26.7064 7.04499C26.5636 7.02133 26.5336 7.01625 26.3816 7.11392Z" fill="#01010C"/>
<path d="M33.1544 1.88681C33.4547 1.71765 33.5559 1.94672 33.8191 2.09644C36.6636 3.71491 36.9196 6.84032 35.452 9.59483C35.3879 9.71502 35.2682 9.89577 35.3158 10.0175C35.1218 10.3623 34.5525 10.863 34.7335 11.1534C34.675 11.2128 34.6128 11.2867 34.5414 11.3225C34.7114 11.5547 35.1045 12.1245 35.2983 12.2803L35.2948 12.2552C35.3648 12.3006 35.4176 12.3428 35.4828 12.3942C35.4387 12.4754 35.3537 12.6459 35.2971 12.7062C35.0493 13.0973 34.0166 14.3685 33.6924 14.6603C33.3285 14.7273 33.0526 15.3372 32.7151 15.5279L32.6668 15.4745C32.6946 15.3733 32.7215 15.3175 32.763 15.2237C32.6867 15.2882 32.6092 15.3518 32.5359 15.42C32.5056 15.5579 32.5051 15.5665 32.3661 15.6213C32.2022 15.2837 31.9309 14.9152 31.7157 14.605L31.6351 14.5318L31.3886 14.077C30.7037 14.6254 30.8412 13.7996 29.9431 14.0017C30.0043 13.9387 30.0771 13.9043 30.1511 13.8385L30.0162 13.7461C31.0236 13.4093 31.384 12.9305 31.6563 11.8705C30.1341 10.5217 31.5386 8.77589 31.0036 7.68998C30.7975 7.27156 30.4383 7.10587 30.0326 6.97244C30.1694 6.95673 30.3062 7.00975 30.3946 6.96242L30.3631 6.84588C30.1647 6.61329 29.876 6.68347 29.5448 6.53267C29.397 6.52979 29.2507 6.51826 29.1031 6.50828C29.122 6.45186 29.1139 6.47597 29.1031 6.40562L28.9509 6.3371L29.0405 6.3276C29.0889 6.28738 29.0713 6.30447 29.0987 6.23867L28.9787 6.1734C29.1745 6.19901 29.3237 6.17141 29.5061 6.10561C29.8344 6.18448 30.8817 6.41159 31.1508 6.5479C32.8358 7.40251 31.3575 9.42544 31.8688 10.7794C32.1966 11.6472 32.9938 11.375 33.6314 11.118C34.7286 10.6758 35.2283 9.78967 35.6464 8.69868C36.1659 7.34296 36.3552 5.89806 35.7806 4.51564C35.4611 3.72386 34.8222 2.86559 34.0424 2.56897C33.2658 2.27354 31.9463 2.36703 31.2003 2.72639C29.7922 3.40474 29.3163 4.54198 28.8033 5.94901C28.6638 5.9279 28.6029 5.88118 28.459 5.88041C28.5884 5.73071 28.7687 5.0728 28.8645 4.85283C29.4173 3.58383 30.3125 2.61358 31.6243 2.25918C32.2981 2.07712 32.874 2.10248 33.5624 2.10677C33.429 2.01031 33.3009 1.95575 33.1544 1.88681Z" fill="#02021F"/>
<path d="M32.4913 12.1519C33.1415 12.1119 33.6595 11.9353 34.1768 11.5219C34.2951 11.4272 34.3914 11.3425 34.5417 11.3223C34.7117 11.5545 35.1048 12.1243 35.2986 12.2801L35.2951 12.2549C35.3651 12.3004 35.4179 12.3426 35.4831 12.394C35.439 12.4751 35.354 12.6456 35.2974 12.706C35.0496 13.0971 34.0169 14.3683 33.6927 14.66C33.3288 14.7271 33.0529 15.3369 32.7154 15.5277L32.6671 15.4743C32.695 15.3731 32.7218 15.3173 32.7633 15.2235C32.687 15.288 32.6095 15.3516 32.5363 15.4198C32.5059 15.5576 32.5054 15.5663 32.3665 15.621C32.2025 15.2834 31.9312 14.915 31.716 14.6048C31.77 14.5303 31.8245 14.4286 31.8719 14.3464C31.819 14.2432 31.6441 13.9862 31.5742 13.8773C32.0196 13.4245 32.4037 12.8084 32.4913 12.1519Z" fill="#E9946B"/>
<path d="M34.9435 12.7739C35.1498 12.8092 35.1437 12.8001 35.2972 12.7061C35.0494 13.0971 34.0167 14.3683 33.6926 14.6601C33.3286 14.7272 33.0528 15.337 32.7153 15.5277L32.667 15.4743C32.6948 15.3731 32.7216 15.3174 32.7631 15.2235C32.815 15.1329 33.1733 14.7798 33.2653 14.6831C33.8518 14.0666 34.4214 13.4534 34.9435 12.7739Z" fill="#02021F"/>
<path d="M31.8718 14.3471C32.0791 14.6358 32.3893 15.0938 32.5362 15.4205C32.5058 15.5583 32.5054 15.567 32.3664 15.6217C32.2025 15.2841 31.9312 14.9157 31.716 14.6055C31.77 14.531 31.8244 14.4293 31.8718 14.3471ZM35.2985 12.2808L35.2951 12.2556C35.3651 12.3011 35.4178 12.3433 35.4831 12.3947C35.4389 12.4759 35.3539 12.6463 35.2973 12.7067C35.1438 12.8007 35.1499 12.8098 34.9436 12.7745C35.0642 12.6118 35.1825 12.4472 35.2985 12.2808ZM29.0407 6.32809C29.222 6.32119 29.359 6.31222 29.5151 6.41159L29.5451 6.53316C29.3972 6.53027 29.2509 6.51875 29.1034 6.50876C29.1223 6.45234 29.1141 6.47645 29.1034 6.40611L28.9512 6.33759L29.0407 6.32809Z" fill="#01010C"/>
<path d="M18.0205 61.0693C19.2027 61.5715 20.5025 61.953 21.7064 62.5201C21.4799 62.6199 20.9561 62.7774 20.7032 62.8619C19.881 63.1419 18.8736 63.4707 18.04 63.6818C18.2027 62.7145 18.1449 62.0297 18.0205 61.0693Z" fill="#65595F"/>
<path d="M3.54822 68.0596C3.75661 68.4164 4.46628 69.5237 4.80443 69.6727C5.13524 69.6593 5.02178 69.4165 5.2602 69.313C5.37381 69.3699 5.36682 69.3691 5.42985 69.4876C5.4087 69.7194 5.24212 69.7957 5.07166 69.9248C5.10924 70.1115 5.73466 70.5637 5.91832 70.6891C7.14182 71.5107 8.56481 71.9397 10.0148 71.9247C9.91681 72.0128 9.8862 72.0278 9.76008 72.0546L9.79489 72.0631C9.93147 72.0984 9.94039 72.0984 10.0535 72.1788C9.40847 72.2576 8.58424 72.1131 7.95266 71.9572C6.0962 71.4989 4.33431 70.0104 3.35547 68.2942L3.54822 68.0596Z" fill="url(#paint7_linear_274_10106)"/>
<path d="M2.33691 62.5797C2.41803 61.7739 3.18744 58.6354 3.96094 58.4629L4.02113 58.5047C4.06167 58.7008 3.99886 58.8254 3.90571 58.9837L3.8784 59.0291C3.9589 59.226 4.00098 59.3222 4.15775 59.4594L4.27598 59.5645L4.16056 59.623C4.15071 59.7285 4.21071 59.7817 4.27636 59.8897C3.91775 59.6993 3.87271 59.5986 3.63167 59.2467C3.3134 59.9701 2.98508 60.6966 2.80925 61.4776C3.34139 62.7551 3.57588 61.8572 4.03671 62.1088C4.05033 62.1677 4.06659 62.1685 4.02494 62.2209C3.53915 62.8338 3.01841 62.4096 2.64134 61.944C2.61544 62.2732 2.58007 62.639 2.56481 62.9657C2.4824 62.9775 2.52214 62.9751 2.43091 62.9341C2.34383 62.8253 2.35143 62.7258 2.33691 62.5797Z" fill="#01010C"/>
<path d="M2.67654 66.7342C2.19787 65.4069 2.16566 63.9712 2.33655 62.5801C2.35106 62.7262 2.34347 62.8257 2.43054 62.9344C2.52178 62.9754 2.48204 62.9779 2.56445 62.9661C2.52625 63.5068 2.48829 63.9793 2.62631 64.5086C2.52392 64.7168 2.60746 64.6775 2.57209 64.8268C2.54471 65.212 2.76628 66.0762 2.87984 66.455C2.83564 66.5877 2.78844 66.6482 2.67654 66.7342Z" fill="url(#paint8_linear_274_10106)"/>
<path d="M2.88005 66.4551C3.01465 66.8224 3.12064 67.1545 3.44547 67.3794C3.41568 67.5052 3.39284 67.5474 3.4295 67.6643C3.3843 67.8303 3.46262 67.9099 3.54858 68.0601L3.35583 68.2947C3.07822 67.8011 2.8506 67.2783 2.67676 66.7343C2.78866 66.6483 2.83585 66.5878 2.88005 66.4551Z" fill="#02021F"/>
<path d="M3.44504 67.3791L3.49512 67.3828C4.01314 67.4177 3.98283 67.024 4.26968 67.1307C4.3766 67.6255 3.73621 67.7891 3.42908 67.6641C3.39241 67.5472 3.41525 67.505 3.44504 67.3791Z" fill="#02021F"/>
<path d="M4.27578 59.5644C4.73347 59.6508 4.7619 59.2863 5.03605 59.4394C5.09547 59.8428 4.56078 59.9419 4.27617 59.8895C4.21051 59.7815 4.15051 59.7284 4.16036 59.6228L4.27578 59.5644ZM2.96928 64.8344C3.0924 64.9135 3.13594 64.9618 3.28344 64.9468C3.4245 64.8661 3.71515 64.6278 3.81269 64.6314C4.01813 65.0682 3.35287 65.2281 3.01507 65.1652C2.92036 64.9947 2.94041 65.015 2.96928 64.8344Z" fill="#01010C"/>
<path d="M2.62649 64.5078C2.7584 64.6499 2.81732 64.7124 2.9693 64.8342C2.94042 65.0148 2.92037 64.9945 3.01508 65.165C2.78838 65.0655 2.72421 65.014 2.57227 64.8261C2.60764 64.6767 2.5241 64.716 2.62649 64.5078Z" fill="#02021F"/>
<path d="M48.6257 21.1571L48.0025 22.2896L47.9165 22.4441L48.0557 22.3557L48.7394 21.9163L48.7572 22.3357L47.2881 23.3158L47.2174 22.9778L48.1077 21.298L48.1872 21.1488L48.054 21.2333L47.1051 21.8347L47.2148 21.3484L48.6193 20.5052L48.6257 21.1571Z" fill="white" stroke="white" stroke-width="0.096"/>
<path d="M49.4111 20.8244C49.5779 20.7453 49.7218 20.7111 49.8434 20.7181C49.9661 20.7252 50.0627 20.7663 50.1356 20.8385C50.2099 20.9122 50.2621 21.0102 50.2913 21.1341C50.3392 21.3373 50.3164 21.5244 50.2271 21.6995C50.1387 21.8728 49.974 22.0223 49.7219 22.1418L49.6568 22.1674L50.0682 21.2813L50.0899 21.2349L50.0529 21.2164L49.348 20.8586C49.3686 20.8477 49.3892 20.8348 49.4111 20.8244ZM49.1755 21.6685L48.9852 22.0761C48.9327 22.0072 48.892 21.9196 48.8661 21.8099C48.841 21.7035 48.8353 21.6012 48.8481 21.5032L49.1755 21.6685Z" fill="white" stroke="white" stroke-width="0.096"/>
<path d="M50.786 19.5401L50.8278 20.1283L50.8622 20.5396C50.8694 20.6518 50.8825 20.8219 50.9004 21.0498C50.9197 21.2959 50.9361 21.4816 50.9485 21.6064L50.4853 21.8246L50.4677 21.5676L50.4666 21.5671C50.4427 21.222 50.4242 20.9557 50.4095 20.7688C50.3955 20.5908 50.3739 20.3394 50.3452 20.0151L50.3236 19.758L50.786 19.5401Z" fill="white" stroke="white" stroke-width="0.096"/>
<path d="M50.9074 20.5254C50.9145 20.6372 50.9271 20.8079 50.9452 21.0375C50.9669 21.3133 50.9841 21.5125 50.997 21.6351L50.4447 21.8953L50.4224 21.5804C50.3984 21.2346 50.3791 20.9681 50.3644 20.7812C50.3505 20.6034 50.3291 20.3524 50.3004 20.028L50.2745 19.7291L50.8268 19.469C50.8443 19.7333 50.8596 19.9488 50.8727 20.1155C50.8873 20.3006 50.8988 20.4372 50.9074 20.5254Z" fill="white" stroke="white" stroke-width="0.288" stroke-miterlimit="2.61313"/>
<path d="M51.7592 19.504C51.7053 19.6192 51.6457 19.7212 51.5806 19.8107L51.4732 19.9582L51.9041 19.7538L51.8598 20.1569C51.7609 20.196 51.8034 20.1792 51.6988 20.2238L51.6601 20.24L51.6627 20.2844L51.6846 20.5744L51.6849 20.5754C51.6933 20.6791 51.719 20.7606 51.7696 20.809C51.8271 20.8639 51.9143 20.8529 52.0111 20.8069C52.027 20.7994 52.0418 20.7885 52.0571 20.7798C52.0581 20.8279 52.0585 20.8762 52.0624 20.9238C52.0648 20.9535 52.0713 21.0157 52.0814 21.109C52.0294 21.1448 51.986 21.1746 51.9495 21.195C51.9054 21.2196 51.8466 21.2491 51.7738 21.2836C51.6 21.3661 51.4886 21.367 51.4232 21.3131C51.3702 21.2695 51.3309 21.1955 51.3084 21.0863L51.2918 20.9657L51.2567 20.5026L51.2521 20.4411L51.1986 20.4696C51.1434 20.4988 51.0866 20.5304 51.028 20.5633L50.9958 20.1795C51.0693 20.1361 51.1315 20.0744 51.1797 19.9914C51.2273 19.9093 51.2548 19.825 51.2644 19.7389L51.7592 19.504Z" fill="white" stroke="white" stroke-width="0.096"/>
</g>
<defs>
<linearGradient id="paint0_linear_274_10106" x1="7.81892" y1="55.9817" x2="8.27166" y2="58.069" gradientUnits="userSpaceOnUse">
<stop/>
<stop offset="1" stop-color="#020015"/>
</linearGradient>
<linearGradient id="paint1_linear_274_10106" x1="15.6125" y1="64.1945" x2="14.3632" y2="63.9545" gradientUnits="userSpaceOnUse">
<stop/>
<stop offset="1" stop-color="#05031B"/>
</linearGradient>
<linearGradient id="paint2_linear_274_10106" x1="10.1048" y1="57.412" x2="10.4798" y2="58.3119" gradientUnits="userSpaceOnUse">
<stop stop-color="#000003"/>
<stop offset="1" stop-color="#020218"/>
</linearGradient>
<linearGradient id="paint3_linear_274_10106" x1="35.5413" y1="49.7908" x2="37.6941" y2="49.6866" gradientUnits="userSpaceOnUse">
<stop/>
<stop offset="1" stop-color="#03021D"/>
</linearGradient>
<linearGradient id="paint4_linear_274_10106" x1="22.4702" y1="30.3335" x2="23.6231" y2="33.3483" gradientUnits="userSpaceOnUse">
<stop stop-color="#090000"/>
<stop offset="1" stop-color="#000120"/>
</linearGradient>
<linearGradient id="paint5_linear_274_10106" x1="28.5797" y1="7.28344" x2="28.5423" y2="6.94504" gradientUnits="userSpaceOnUse">
<stop stop-color="#010009"/>
<stop offset="1" stop-color="#04041D"/>
</linearGradient>
<linearGradient id="paint6_linear_274_10106" x1="26.8966" y1="8.14175" x2="26.5428" y2="7.08708" gradientUnits="userSpaceOnUse">
<stop stop-color="#12111C"/>
<stop offset="1" stop-color="#000228"/>
</linearGradient>
<linearGradient id="paint7_linear_274_10106" x1="5.80335" y1="71.0081" x2="7.19414" y2="69.6059" gradientUnits="userSpaceOnUse">
<stop stop-color="#02000F"/>
<stop offset="1" stop-color="#030530"/>
</linearGradient>
<linearGradient id="paint8_linear_274_10106" x1="2.85785" y1="64.781" x2="2.2349" y2="64.75" gradientUnits="userSpaceOnUse">
<stop stop-color="#030009"/>
<stop offset="1" stop-color="#0B0D3B"/>
</linearGradient>
<clipPath id="clip0_274_10106">
<rect width="58" height="73.0649" fill="white"/>
</clipPath>
</defs>
</svg>
