<svg width="361" height="181" viewBox="0 0 361 181" fill="none" xmlns="http://www.w3.org/2000/svg">
<g clip-path="url(#clip0_724_11352)">
<rect width="361" height="180.5" fill="white"/>
<path fill-rule="evenodd" clip-rule="evenodd" d="M-0.300781 -0.300781C120.033 -0.300781 240.366 -0.300781 360.699 -0.300781C360.699 59.8659 360.699 120.033 360.699 180.199C347.262 180.199 333.825 180.199 320.388 180.199C319.368 171.104 317.864 162.079 315.875 153.124C312.823 138.827 309.514 124.588 305.948 110.406C304.744 110.406 303.541 110.406 302.338 110.406C302.338 108.801 302.338 107.197 302.338 105.593C302.929 103.307 303.13 100.901 302.939 98.3726C303.31 98.3058 303.611 98.1054 303.842 97.7709C304.243 85.9379 304.243 74.1055 303.842 62.2726C303.541 61.9717 303.24 61.6709 302.939 61.3701C300.541 61.0698 298.134 60.9693 295.719 61.0692C295.719 60.8689 295.719 60.6679 295.719 60.4676C295.778 59.2324 295.377 58.2296 294.516 57.4592C291.576 55.7133 288.768 55.9138 286.093 58.0609C282.884 55.6542 279.675 55.6542 276.466 58.0609C273.257 55.6542 270.048 55.6542 266.839 58.0609C264.589 56.2778 262.182 55.8767 259.619 56.8576C257.648 57.2315 256.846 58.4349 257.213 60.4676C257.213 60.6679 257.213 60.8689 257.213 61.0692C252.395 60.9693 247.582 61.0692 242.773 61.3701C242.472 61.6709 242.171 61.9717 241.87 62.2726C241.377 74.3498 241.477 86.3831 242.171 98.3726C242.773 98.7739 243.374 99.1746 243.976 99.5759C244.119 100.721 244.721 101.524 245.781 101.983C247.795 103.111 250.001 103.712 252.399 103.788C253.411 104.695 254.614 105.297 256.009 105.593C257.222 106.449 258.625 106.85 260.221 106.796C262.588 107.358 264.995 107.86 267.441 108.3C269.414 109.97 271.018 111.875 272.254 114.016C272.696 114.743 272.896 115.545 272.856 116.423C272.388 116.817 271.987 117.318 271.653 117.927C274.308 138.62 276.314 159.378 277.669 180.199C274.059 180.199 270.449 180.199 266.839 180.199C257.397 163.627 245.564 148.886 231.341 135.977C226.642 132.49 221.628 129.482 216.299 126.952C210.926 125.741 205.511 124.838 200.054 124.244C199.053 121.274 197.95 118.266 196.745 115.219C195.945 114.568 195.042 114.167 194.038 114.016C193.532 109.825 193.331 105.614 193.436 101.381C198.642 99.0825 202.352 95.2716 204.567 89.9492C206.044 86.4463 207.147 82.8363 207.876 79.1192C209.359 78.9586 210.763 78.5573 212.088 77.9159C214.064 77.0435 215.568 75.6398 216.6 73.7042C218.694 68.3229 217.592 63.8104 213.291 60.1667C212.308 59.8698 211.305 59.7695 210.283 59.8659C210.283 56.0554 210.283 52.2448 210.283 48.4342C211.78 48.5559 213.184 48.255 214.494 47.5317C216.003 44.7148 217.808 42.1076 219.909 39.7101C223.223 37.7518 226.633 35.9468 230.138 34.2951C234.549 31.59 236.454 27.6792 235.853 22.5626C235.151 21.0584 234.048 19.9554 232.544 19.2534C228.333 19.0529 224.121 18.8523 219.909 18.6517C215.766 16.9142 213.46 13.8055 212.99 9.32589C210.875 4.87161 207.366 3.16689 202.461 4.21172C195.241 8.22285 188.021 12.2339 180.801 16.2451C178.796 16.6462 176.79 16.6462 174.784 16.2451C170.536 14.4609 166.124 13.3578 161.548 12.9359C157.701 12.8774 154.793 14.4819 152.823 17.7492C152.623 20.9581 152.422 24.167 152.222 27.3759C150.597 28.7919 148.692 29.6944 146.506 30.0834C144.467 31.4525 143.465 33.3578 143.498 35.7992C144.134 40.2157 145.438 44.4274 147.408 48.4342C149.521 51.8605 151.627 55.2699 153.726 58.6626C150.619 60.2582 149.215 62.8652 149.514 66.4842C149.351 69.5636 150.354 72.1706 152.523 74.3059C152.42 75.1013 152.621 75.8034 153.124 76.4117C155.037 76.7444 156.742 77.446 158.238 78.5176C158.539 81.5193 158.639 84.5276 158.539 87.5426C158.375 95.9671 158.175 104.39 157.938 112.813C156.244 111.852 154.439 111.551 152.523 111.91C150.526 114.403 148.921 117.11 147.709 120.033C132.776 119.587 118.336 121.993 104.389 127.253C98.384 129.357 92.3673 131.462 86.3392 133.57C76.7342 135.475 67.3079 137.781 58.0609 140.489C38.3037 144.36 18.8498 149.374 -0.300781 155.531C-0.300781 103.587 -0.300781 51.6431 -0.300781 -0.300781Z" fill="#F9F9F9"/>
<path fill-rule="evenodd" clip-rule="evenodd" d="M210.283 48.4343C210.283 48.0332 210.082 47.8327 209.681 47.8327C209.767 46.7723 209.566 45.7695 209.079 44.8243C209.366 44.2362 209.767 43.7348 210.283 43.3202C204.194 42.7828 198.177 42.0808 192.233 41.2143C191.162 40.5106 190.561 39.5078 190.428 38.206C188.631 37.9065 186.826 37.6057 185.013 37.3035C182.733 35.9916 182.733 34.7882 185.013 33.6935C184.171 33.3358 183.369 33.4361 182.606 33.9943C179.262 33.0316 176.053 31.8282 172.979 30.3843C170.43 29.4093 168.023 29.6098 165.76 30.986C165.308 31.5131 165.007 32.1147 164.857 32.791C164.557 36.1946 164.456 39.604 164.556 43.0193C164.556 43.2199 164.556 43.4205 164.556 43.621C162.96 48.2949 161.055 52.9077 158.84 57.4593C157.484 59.3276 155.78 59.7286 153.726 58.6627C151.627 55.2701 149.521 51.8606 147.409 48.4343C145.438 44.4275 144.134 40.2158 143.498 35.7993C143.465 33.3579 144.468 31.4527 146.506 30.0835C148.693 29.6945 150.598 28.792 152.222 27.376C152.422 24.1671 152.623 20.9582 152.824 17.7493C154.794 14.482 157.701 12.8775 161.548 12.936C166.124 13.358 170.537 14.4611 174.785 16.2452C176.79 16.6463 178.796 16.6463 180.801 16.2452C188.021 12.234 195.241 8.22297 202.461 4.21184C207.366 3.16701 210.875 4.87173 212.99 9.32601C213.46 13.8057 215.766 16.9143 219.91 18.6518C224.121 18.8524 228.333 19.053 232.544 19.2535C234.049 19.9555 235.152 21.0585 235.854 22.5627C236.454 27.6793 234.549 31.5901 230.138 34.2952C226.633 35.9469 223.223 37.7519 219.91 39.7102C217.808 42.1077 216.003 44.7149 214.494 47.5318C213.185 48.2552 211.78 48.556 210.283 48.4343Z" fill="#5E3825"/>
<path fill-rule="evenodd" clip-rule="evenodd" d="M174.784 32.1888C174.984 32.1888 175.185 32.1888 175.385 32.1888C176.962 34.5031 179.168 36.0073 182.004 36.7013C183.023 38.7201 184.627 40.1241 186.817 40.913C189.097 41.0512 191.103 41.8534 192.834 43.3196C197.426 44.0777 202.039 44.6793 206.672 45.1246C207.176 45.7331 207.376 46.435 207.274 47.2305C207.836 48.8025 207.937 50.407 207.575 52.0438C207.295 51.1829 206.793 50.481 206.07 49.938C204.212 49.5895 202.608 48.7873 201.257 47.5313C199.051 47.1302 196.845 47.1302 194.639 47.5313C194.304 47.7615 194.104 48.0623 194.037 48.4338C194.037 48.8349 193.837 49.0355 193.435 49.0355C192.834 49.0355 192.232 49.0355 191.63 49.0355C191.532 50.4535 191.632 51.8574 191.931 53.2471C192.383 53.6236 192.884 53.9245 193.435 54.1496C195.843 54.3655 198.25 54.2652 200.655 53.8488C202.412 53.7791 204.017 54.1802 205.469 55.0521C206.389 55.0348 207.091 54.6337 207.575 53.8488C207.976 55.4533 207.976 57.0577 207.575 58.6621C205.215 56.2639 202.608 55.8628 199.753 57.4588C195.742 56.9204 193.636 58.7254 193.435 62.8738C194.397 63.035 195.2 62.8341 195.842 62.2721C197.868 61.5218 199.874 61.5218 201.859 62.2721C202.713 62.8443 203.715 63.0447 204.867 62.8738C204.901 59.7561 205.303 59.7561 206.07 62.8738C206.643 59.8969 207.746 59.6963 209.38 62.2721C209.991 61.5898 210.392 61.7902 210.583 62.8738C212.016 62.0519 213.319 62.2523 214.494 63.4755C215.307 65.0807 215.709 66.7852 215.697 68.5896C215.18 71.1238 214.579 73.6304 213.892 76.1105C213.29 76.1105 212.689 76.1105 212.087 76.1105C212.087 76.7121 212.087 77.3138 212.087 77.9155C210.763 78.5568 209.359 78.9581 207.875 79.1188C206.506 79.2728 205.804 80.0754 205.77 81.5255C205.158 80.0044 204.456 80.0044 203.664 81.5255C203.262 81.1241 202.862 80.7234 202.46 80.3221C201.947 80.937 201.345 81.4382 200.655 81.8263C203.62 84.014 203.821 86.4206 201.257 89.0463C201.543 90.107 201.944 91.11 202.46 92.0546C201.337 92.4824 200.435 92.1816 199.753 91.1521C199.553 89.7484 199.352 88.3441 199.151 86.9405C198.748 86.488 198.246 86.287 197.647 86.3388C198.507 84.6493 198.908 82.8443 198.85 80.9238C194.133 81.1037 189.52 81.304 185.012 81.5255C182.121 81.0465 179.314 80.4449 176.589 79.7205C175.706 79.2439 174.904 79.2439 174.182 79.7205C175.076 82.0128 176.079 84.2185 177.19 86.3388C177.961 88.713 179.565 90.3176 182.004 91.1521C183.407 91.3525 184.812 91.5534 186.215 91.7538C189.261 91.5294 192.269 91.1287 195.24 90.5505C194.602 92.2171 194.602 94.122 195.24 96.2663C192.795 97.9997 193.197 98.8017 196.444 98.673C194.94 99.0767 193.937 99.9792 193.435 101.38C193.034 101.38 192.834 101.581 192.834 101.982C186.526 104.068 180.51 103.366 174.784 99.8763C171.659 97.5533 168.951 94.8458 166.661 91.7538C163.584 86.7937 160.877 81.78 158.539 76.7121C158.338 76.7121 158.137 76.7121 157.937 76.7121C157.566 75.5587 156.764 74.8566 155.53 74.6063C155.805 74.3572 156.006 74.0564 156.132 73.7038C151.556 70.7665 150.253 66.7557 152.221 61.6705C153.826 60.8684 155.43 60.8684 157.035 61.6705C159.359 59.0281 161.064 56.0198 162.149 52.6455C163.135 53.9329 164.439 54.5346 166.06 54.4505C167.93 53.888 169.835 53.4869 171.775 53.2471C174.221 53.6637 176.628 53.6637 178.995 53.2471C179.701 51.3548 179.3 49.7504 177.792 48.4338C174.064 47.4809 170.454 47.6815 166.962 49.0355C165.709 49.0186 164.606 49.4197 163.653 50.2388C163.749 48.0307 164.049 45.8246 164.555 43.6205C164.555 43.4199 164.555 43.2193 164.555 43.0188C165.28 40.8231 165.882 38.5166 166.36 36.0996C165.856 34.3582 166.157 32.6535 167.263 30.9855C167.6 30.6714 168.002 30.4709 168.466 30.3838C170.482 31.3138 172.588 31.9155 174.784 32.1888Z" fill="#AE4B1F"/>
<path fill-rule="evenodd" clip-rule="evenodd" d="M172.979 30.3839C173.698 30.8483 174.299 31.45 174.784 32.1889C172.589 31.9156 170.483 31.3139 168.467 30.3839C168.002 30.471 167.601 30.6715 167.263 30.9856C166.158 32.6536 165.857 34.3583 166.361 36.0997C165.883 38.5167 165.281 40.8232 164.556 43.0189C164.456 39.6036 164.557 36.1941 164.857 32.7906C165.007 32.1143 165.307 31.5126 165.759 30.9856C168.023 29.6094 170.429 29.4088 172.979 30.3839Z" fill="#9C4B25"/>
<path fill-rule="evenodd" clip-rule="evenodd" d="M172.979 30.3838C176.053 31.8277 179.261 33.031 182.606 33.9938C183.369 33.4355 184.171 33.3352 185.013 33.693C182.733 34.7877 182.733 35.991 185.013 37.303C186.826 37.6051 188.631 37.9059 190.428 38.2055C190.561 39.5072 191.162 40.51 192.233 41.2138C190.576 40.8996 188.972 40.3982 187.419 39.7096C183.675 36.7366 179.664 34.2296 175.386 32.1888C175.186 32.1888 174.985 32.1888 174.784 32.1888C174.3 31.4499 173.698 30.8482 172.979 30.3838Z" fill="#6A371F"/>
<path fill-rule="evenodd" clip-rule="evenodd" d="M192.232 41.2139C198.177 42.0803 204.194 42.7823 210.282 43.3197C209.767 43.7343 209.366 44.2357 209.079 44.8239C209.566 45.769 209.767 46.7718 209.681 47.8322C209.48 47.8322 209.279 47.8322 209.079 47.8322C208.399 46.7404 207.998 45.5371 207.876 44.2222C203.392 44.2975 198.98 43.7961 194.639 42.718C193.822 42.1558 193.019 41.6545 192.232 41.2139Z" fill="#693621"/>
<path fill-rule="evenodd" clip-rule="evenodd" d="M175.386 32.1895C179.664 34.2303 183.675 36.7373 187.419 39.7103C188.971 40.3989 190.576 40.9003 192.232 41.2145C193.019 41.6551 193.822 42.1564 194.639 42.7186C198.98 43.7967 203.392 44.2981 207.876 44.2228C207.998 45.5377 208.399 46.741 209.079 47.8328C208.543 47.4659 207.941 47.2654 207.274 47.2311C207.376 46.4357 207.176 45.7338 206.672 45.1253C202.039 44.68 197.427 44.0783 192.834 43.3203C191.104 41.854 189.098 41.0518 186.817 40.9136C184.627 40.1247 183.023 38.7208 182.004 36.702C179.168 36.0079 176.962 34.5038 175.386 32.1895Z" fill="#A04E27"/>
<path fill-rule="evenodd" clip-rule="evenodd" d="M164.556 43.6211C164.05 45.8252 163.749 48.0314 163.653 50.2394C164.606 49.4204 165.71 49.0192 166.962 49.0361C165.556 49.7471 164.352 50.7498 163.352 52.0444C163.756 52.9143 164.458 53.3154 165.458 53.2478C166.102 53.2309 166.603 53.0303 166.962 52.6461C170.773 52.6461 174.584 52.6461 178.394 52.6461C178.425 51.2003 178.225 49.7965 177.792 48.4344C179.3 49.751 179.701 51.3555 178.996 53.2478C176.628 53.6644 174.221 53.6644 171.776 53.2478C169.835 53.4875 167.93 53.8887 166.06 54.4511C164.44 54.5352 163.136 53.9335 162.149 52.6461C161.064 56.0204 159.36 59.0288 157.035 61.6711C155.43 60.8691 153.826 60.8691 152.221 61.6711C150.253 66.7564 151.557 70.7671 156.132 73.7044C156.007 74.057 155.806 74.3578 155.531 74.6069C156.764 74.8572 157.567 75.5594 157.937 76.7128C155.894 76.4817 154.089 75.6791 152.522 74.3061C150.354 72.1708 149.351 69.5638 149.514 66.4844C149.215 62.8654 150.619 60.2584 153.726 58.6628C155.779 59.7287 157.484 59.3277 158.84 57.4594C161.055 52.9078 162.959 48.295 164.556 43.6211Z" fill="#A35029"/>
<path fill-rule="evenodd" clip-rule="evenodd" d="M177.793 48.4341C178.225 49.7962 178.425 51.2 178.394 52.6458C174.584 52.6458 170.773 52.6458 166.963 52.6458C166.603 53.03 166.102 53.2306 165.458 53.2475C164.458 53.3151 163.756 52.914 163.353 52.0441C164.353 50.7495 165.556 49.7468 166.963 49.0358C170.455 47.6819 174.065 47.4813 177.793 48.4341Z" fill="#74371D"/>
<path fill-rule="evenodd" clip-rule="evenodd" d="M166.962 52.6462C166.073 52.8039 165.271 52.6033 164.556 52.0446C164.681 51.692 164.882 51.3912 165.157 51.1421C167.719 50.3555 170.226 49.453 172.678 48.4346C174.838 48.7819 176.543 49.885 177.792 51.7437C174.073 51.8475 170.463 52.1483 166.962 52.6462Z" fill="#643621"/>
<path fill-rule="evenodd" clip-rule="evenodd" d="M194.037 48.4338C198.77 47.6484 202.882 48.8517 206.371 52.0438C206.662 52.6142 206.762 53.2159 206.672 53.8488C204.086 53.3531 201.478 52.952 198.85 52.6455C196.836 52.9512 194.83 53.0514 192.834 52.9463C192.018 51.4938 192.219 50.1903 193.435 49.0355C193.837 49.0355 194.037 48.8349 194.037 48.4338Z" fill="#68361E"/>
<path fill-rule="evenodd" clip-rule="evenodd" d="M175.386 58.0614C175.973 58.8525 176.575 59.6547 177.191 60.468C176.89 60.6684 176.589 60.8693 176.289 61.0697C174.496 60.0187 172.59 59.7179 170.573 60.1672C170.043 60.5932 169.642 61.095 169.369 61.6714C168.768 61.6714 168.166 61.6714 167.564 61.6714C168.853 57.8011 171.46 56.5978 175.386 58.0614Z" fill="#472816"/>
<path fill-rule="evenodd" clip-rule="evenodd" d="M207.274 47.2305C207.942 47.2647 208.543 47.4653 209.079 47.8322C209.28 47.8322 209.481 47.8322 209.681 47.8322C210.082 47.8322 210.283 48.0327 210.283 48.4338C210.283 52.2444 210.283 56.0549 210.283 59.8655C211.305 59.7691 212.308 59.8694 213.291 60.1663C217.592 63.81 218.695 68.3225 216.6 73.7038C215.568 75.6394 214.064 77.0431 212.088 77.9155C212.088 77.3138 212.088 76.7122 212.088 76.1105C212.689 76.1105 213.291 76.1105 213.893 76.1105C214.579 73.6304 215.181 71.1239 215.698 68.5897C215.709 66.7853 215.308 65.0807 214.494 63.4755C213.32 62.2523 212.017 62.0519 210.584 62.8738C210.393 61.7902 209.992 61.5899 209.38 62.2722C207.747 59.6964 206.643 59.897 206.071 62.8738C205.303 59.7562 204.902 59.7562 204.868 62.8738C203.716 63.0447 202.713 62.8443 201.859 62.2722C202.06 62.2722 202.261 62.2722 202.461 62.2722C203.499 62.0658 203.8 61.4641 203.364 60.4672C200.654 58.3569 197.846 58.1564 194.94 59.8655C193.437 61.4304 193.738 62.233 195.843 62.2722C195.2 62.8341 194.398 63.0351 193.436 62.8738C193.637 58.7254 195.742 56.9204 199.754 57.4588C202.609 55.8628 205.216 56.2639 207.575 58.6622C207.977 57.0577 207.977 55.4533 207.575 53.8488C207.092 54.6337 206.389 55.0348 205.469 55.0522C204.018 54.1802 202.413 53.7791 200.656 53.8488C198.251 54.2652 195.844 54.3655 193.436 54.1497C192.885 53.9245 192.383 53.6237 191.932 53.2472C191.633 51.8574 191.533 50.4535 191.631 49.0355C192.233 49.0355 192.834 49.0355 193.436 49.0355C192.22 50.1903 192.019 51.4938 192.834 52.9463C194.831 53.0514 196.836 52.9512 198.851 52.6455C201.479 52.952 204.086 53.3531 206.673 53.8488C206.762 53.2159 206.663 52.6142 206.372 52.0438C202.882 48.8517 198.771 47.6484 194.038 48.4338C194.105 48.0623 194.305 47.7615 194.639 47.5313C196.846 47.1302 199.052 47.1302 201.258 47.5313C202.609 48.7873 204.213 49.5895 206.071 49.938C206.794 50.481 207.296 51.183 207.575 52.0438C207.938 50.407 207.837 48.8025 207.274 47.2305Z" fill="#AA5329"/>
<path fill-rule="evenodd" clip-rule="evenodd" d="M259.619 56.8574C259.497 57.7866 259.095 58.5888 258.415 59.2641C261.151 60.1576 263.959 60.5589 266.839 60.4674C263.69 61.2508 260.481 61.2508 257.212 60.4674C256.846 58.4348 257.648 57.2314 259.619 56.8574Z" fill="#A45B3C"/>
<path fill-rule="evenodd" clip-rule="evenodd" d="M294.516 57.4592C294.516 58.462 294.516 59.4647 294.516 60.4675C285.491 60.4675 276.466 60.4675 267.441 60.4675C267.241 60.4675 267.04 60.4675 266.839 60.4675C263.959 60.559 261.151 60.1577 258.416 59.2642C259.096 58.5889 259.497 57.7867 259.619 56.8575C262.182 55.8766 264.589 56.2778 266.839 58.0609C270.048 55.6542 273.257 55.6542 276.466 58.0609C279.675 55.6542 282.884 55.6542 286.093 58.0609C288.768 55.9138 291.576 55.7133 294.516 57.4592Z" fill="#A95229"/>
<path fill-rule="evenodd" clip-rule="evenodd" d="M294.515 57.459C295.376 58.2294 295.778 59.2322 295.719 60.4673C286.233 61.2633 276.808 61.2633 267.44 60.4673C276.465 60.4673 285.49 60.4673 294.515 60.4673C294.515 59.4645 294.515 58.4618 294.515 57.459Z" fill="#A46244"/>
<path fill-rule="evenodd" clip-rule="evenodd" d="M202.461 62.2726C200.803 60.4568 198.797 60.0557 196.444 61.0693C195.964 61.3443 195.764 61.7456 195.843 62.2726C193.738 62.2335 193.437 61.4309 194.94 59.866C197.846 58.1569 200.654 58.3574 203.364 60.4676C203.8 61.4646 203.499 62.0663 202.461 62.2726Z" fill="#422316"/>
<path fill-rule="evenodd" clip-rule="evenodd" d="M202.461 62.2724C202.261 62.2724 202.06 62.2724 201.86 62.2724C199.875 61.5221 197.869 61.5221 195.843 62.2724C195.764 61.7453 195.964 61.344 196.445 61.0691C198.798 60.0555 200.804 60.4566 202.461 62.2724Z" fill="#864A2F"/>
<path fill-rule="evenodd" clip-rule="evenodd" d="M257.213 60.4678C260.482 61.2511 263.69 61.2511 266.84 60.4678C267.04 60.4678 267.241 60.4678 267.441 60.4678C276.809 61.2638 286.234 61.2638 295.72 60.4678C295.72 60.6681 295.72 60.8691 295.72 61.0694C282.884 61.8715 270.048 61.8715 257.213 61.0694C257.213 60.8691 257.213 60.6681 257.213 60.4678Z" fill="#D2BCB0"/>
<path fill-rule="evenodd" clip-rule="evenodd" d="M175.386 58.0609C178.038 57.7974 179.041 59.0007 178.394 61.6709C176.253 62.4392 174.247 62.0379 172.377 60.4676C171.368 60.8809 170.366 61.2822 169.369 61.6709C169.642 61.0945 170.042 60.5927 170.572 60.1667C172.59 59.7174 174.495 60.0182 176.288 61.0692C176.589 60.8689 176.89 60.6679 177.191 60.4676C176.575 59.6542 175.973 58.852 175.386 58.0609Z" fill="#9A4F2B"/>
<path fill-rule="evenodd" clip-rule="evenodd" d="M257.213 61.0687C270.048 61.8707 282.884 61.8707 295.719 61.0687C298.134 60.9688 300.541 61.0693 302.939 61.3695C303.24 61.6704 303.541 61.9712 303.842 62.272C304.243 74.105 304.243 85.9374 303.842 97.7703C303.611 98.1049 303.311 98.3052 302.939 98.372C282.76 97.5766 262.504 97.5766 242.171 98.372C241.477 86.3826 241.377 74.3493 241.87 62.272C242.171 61.9712 242.472 61.6704 242.773 61.3695C247.582 61.0687 252.395 60.9688 257.213 61.0687Z" fill="#C2C7C8"/>
<path fill-rule="evenodd" clip-rule="evenodd" d="M263.83 85.737C263.488 84.0313 262.485 83.0289 260.822 82.7287C260.22 82.5284 259.819 82.127 259.619 81.5254C259.619 80.7234 259.619 79.9207 259.619 79.1187C260.315 78.1332 261.017 77.1308 261.724 76.1104C262.019 74.88 261.919 73.6766 261.424 72.5004C262.938 71.6623 263.941 70.4589 264.432 68.8904C262.944 68.7105 261.64 68.1088 260.521 67.0854C258.534 68.0715 256.428 68.4728 254.204 68.2887C254.031 69.3579 253.63 70.3609 253 71.297C253.111 71.9493 253.312 72.5509 253.602 73.102C254.501 75.3745 254.902 77.7812 254.805 80.322C254.204 80.5224 253.802 80.9237 253.602 81.5254C250.58 82.337 248.976 84.3424 248.789 87.542C247.597 80.1482 247.196 72.5269 247.585 64.6787C254.003 64.6787 260.421 64.6787 266.839 64.6787C266.839 72.3 266.839 79.9207 266.839 87.542C266.036 87.542 265.234 87.542 264.432 87.542C264.574 86.7653 264.374 86.1636 263.83 85.737Z" fill="#F6F5F4"/>
<path fill-rule="evenodd" clip-rule="evenodd" d="M272.855 64.6787C281.279 64.6787 289.702 64.6787 298.125 64.6787C298.125 65.6817 298.125 66.6841 298.125 67.687C289.702 67.687 281.279 67.687 272.855 67.687C272.855 66.6841 272.855 65.6817 272.855 64.6787Z" fill="#838788"/>
<path fill-rule="evenodd" clip-rule="evenodd" d="M261.424 72.5009C261.424 71.6989 261.424 70.8963 261.424 70.0943C259.399 69.921 257.393 69.8211 255.408 69.7934C254.412 70.6622 254.011 71.7657 254.204 73.1026C254.004 73.1026 253.803 73.1026 253.603 73.1026C253.313 72.5515 253.112 71.9498 253.001 71.2976C253.631 70.3614 254.032 69.3584 254.204 68.2893C256.429 68.4734 258.535 68.0721 260.522 67.0859C261.641 68.1094 262.945 68.711 264.433 68.8909C263.942 70.4595 262.939 71.6628 261.424 72.5009Z" fill="#5C3B2B"/>
<path fill-rule="evenodd" clip-rule="evenodd" d="M261.424 72.5005C259.418 71.8988 257.412 71.2971 255.407 70.6955C255.484 71.9921 255.183 73.1954 254.504 74.3055C254.225 73.9481 254.125 73.5468 254.204 73.1021C254.01 71.7652 254.411 70.6618 255.407 69.793C257.392 69.8206 259.398 69.9205 261.424 70.0938C261.424 70.8958 261.424 71.6984 261.424 72.5005Z" fill="#6B3822"/>
<path fill-rule="evenodd" clip-rule="evenodd" d="M272.855 69.4922C279.072 69.4922 285.29 69.4922 291.507 69.4922C291.507 70.4952 291.507 71.4975 291.507 72.5005C285.29 72.5005 279.072 72.5005 272.855 72.5005C272.855 71.4975 272.855 70.4952 272.855 69.4922Z" fill="#84898B"/>
<path fill-rule="evenodd" clip-rule="evenodd" d="M261.424 72.5013C261.919 73.6775 262.02 74.8809 261.725 76.1113C261.017 77.1317 260.315 78.1341 259.619 79.1196C259.075 79.5462 258.875 80.1479 259.018 80.9246C257.572 80.9559 256.168 80.7556 254.806 80.323C254.903 77.7821 254.501 75.3755 253.603 73.103C253.803 73.103 254.004 73.103 254.204 73.103C254.125 73.5476 254.226 73.9489 254.505 74.3063C255.184 73.1962 255.485 71.9929 255.408 70.6963C257.413 71.298 259.419 71.8996 261.424 72.5013Z" fill="#9F4E28"/>
<path fill-rule="evenodd" clip-rule="evenodd" d="M272.855 74.3057C280.477 74.3057 288.097 74.3057 295.719 74.3057C295.719 75.1077 295.719 75.9103 295.719 76.7123C288.097 76.7123 280.477 76.7123 272.855 76.7123C272.855 75.9103 272.855 75.1077 272.855 74.3057Z" fill="#808384"/>
<path fill-rule="evenodd" clip-rule="evenodd" d="M257.213 76.7122C258.102 76.5546 258.904 76.7549 259.62 77.3139C259.218 77.5142 258.818 77.7152 258.416 77.9155C257.686 77.7669 257.285 77.3656 257.213 76.7122Z" fill="#EDBEA2"/>
<path fill-rule="evenodd" clip-rule="evenodd" d="M152.523 74.3057C154.09 75.6787 155.895 76.4813 157.938 76.7123C158.138 76.7123 158.339 76.7123 158.54 76.7123C159.114 80.2676 159.315 83.8776 159.141 87.5423C158.941 87.5423 158.74 87.5423 158.54 87.5423C158.64 84.5274 158.539 81.519 158.239 78.5173C156.742 77.4458 155.037 76.7442 153.125 76.4115C152.621 75.8032 152.421 75.1011 152.523 74.3057Z" fill="#F6E3D2"/>
<path fill-rule="evenodd" clip-rule="evenodd" d="M259.619 79.1191C259.619 79.9212 259.619 80.7238 259.619 81.5258C258.201 81.6239 256.797 81.524 255.407 81.225C255.073 80.9945 254.872 80.6937 254.806 80.3225C256.168 80.7551 257.572 80.9554 259.017 80.9241C258.875 80.1474 259.075 79.5457 259.619 79.1191Z" fill="#AE4B1F"/>
<path fill-rule="evenodd" clip-rule="evenodd" d="M272.855 79.1191C277.267 79.1191 281.68 79.1191 286.092 79.1191C286.092 79.9212 286.092 80.7238 286.092 81.5258C281.68 81.5258 277.267 81.5258 272.855 81.5258C272.855 80.7238 272.855 79.9212 272.855 79.1191Z" fill="#808384"/>
<path fill-rule="evenodd" clip-rule="evenodd" d="M176.589 79.7207C179.314 80.4451 182.121 81.0468 185.012 81.5257C189.52 81.3043 194.133 81.1039 198.851 80.924C198.908 82.8446 198.507 84.6496 197.647 86.339C197.293 88.0093 196.491 89.4136 195.241 90.5507C192.27 91.1289 189.261 91.5296 186.216 91.754C184.812 91.5537 183.408 91.3527 182.004 91.1524C179.565 90.3179 177.961 88.7132 177.191 86.339C181.859 91.594 187.274 92.4965 193.436 89.0465C195.411 87.0027 197.015 84.6965 198.249 82.1274C196.661 81.6123 195.056 81.7122 193.436 82.4282C189.826 82.8295 186.216 82.8295 182.606 82.4282C180.362 81.9204 178.356 81.0179 176.589 79.7207Z" fill="#A6532C"/>
<path fill-rule="evenodd" clip-rule="evenodd" d="M176.589 79.7207C178.356 81.0179 180.362 81.9204 182.606 82.4282C186.216 82.8295 189.826 82.8295 193.436 82.4282C195.057 81.7122 196.661 81.6123 198.249 82.1273C197.015 84.6965 195.411 87.0026 193.436 89.0465C187.274 92.4965 181.859 91.594 177.191 86.339C176.08 84.2187 175.077 82.013 174.183 79.7207C174.905 79.2442 175.707 79.2442 176.589 79.7207Z" fill="#F9E3D8"/>
<path fill-rule="evenodd" clip-rule="evenodd" d="M254.806 80.3223C254.872 80.6935 255.073 80.9943 255.407 81.2248C256.797 81.5238 258.201 81.6237 259.619 81.5256C259.819 82.1273 260.221 82.5286 260.822 82.7289C260.776 83.481 260.375 83.9822 259.619 84.2331C257.814 84.6344 256.009 84.6344 254.204 84.2331C253.674 83.4172 253.473 82.5147 253.602 81.5256C253.803 80.9239 254.204 80.5226 254.806 80.3223Z" fill="#A2222A"/>
<path fill-rule="evenodd" clip-rule="evenodd" d="M253.602 81.5254C253.474 82.5145 253.675 83.417 254.204 84.2329C256.009 84.6342 257.814 84.6342 259.619 84.2329C260.375 83.982 260.776 83.4808 260.822 82.7287C262.485 83.029 263.488 84.0313 263.831 85.7371C263.831 86.3387 263.831 86.9404 263.831 87.5421C258.817 87.5421 253.803 87.5421 248.789 87.5421C248.976 84.3424 250.581 82.337 253.602 81.5254Z" fill="#FF2347"/>
<path fill-rule="evenodd" clip-rule="evenodd" d="M272.855 83.3311C280.477 83.3311 288.097 83.3311 295.719 83.3311C295.719 84.334 295.719 85.3364 295.719 86.3394C288.097 86.3394 280.477 86.3394 272.855 86.3394C272.855 85.3364 272.855 84.334 272.855 83.3311Z" fill="#828889"/>
<path fill-rule="evenodd" clip-rule="evenodd" d="M207.876 79.1191C207.146 82.8362 206.043 86.4462 204.566 89.9491C202.352 95.2715 198.642 99.0824 193.436 101.381C193.937 99.9795 194.94 99.077 196.444 98.6733C193.197 98.8021 192.795 98 195.241 96.2666C194.602 94.1223 194.602 92.2174 195.241 90.5508C196.491 89.4137 197.293 88.0094 197.647 86.3391C198.246 86.2874 198.748 86.4884 199.151 86.9408C199.352 88.3445 199.553 89.7488 199.753 91.1525C200.435 92.1819 201.337 92.4828 202.461 92.055C201.944 91.1104 201.543 90.1074 201.257 89.0466C203.822 86.421 203.621 84.0143 200.656 81.8266C201.345 81.4386 201.947 80.9374 202.461 80.3225C202.862 80.7238 203.263 81.1245 203.664 81.5258C204.456 80.0048 205.158 80.0048 205.77 81.5258C205.804 80.0758 206.506 79.2732 207.876 79.1191Z" fill="#AB5224"/>
<path fill-rule="evenodd" clip-rule="evenodd" d="M276.466 88.1446C276.502 87.8179 276.702 87.6176 277.067 87.543C277.719 88.0634 277.819 88.6651 277.368 89.348C277.201 88.7968 276.9 88.3961 276.466 88.1446Z" fill="#696A6D"/>
<path fill-rule="evenodd" clip-rule="evenodd" d="M276.466 88.1445C276.282 89.8803 276.482 91.485 277.068 92.9579C277.146 93.4849 276.946 93.8862 276.466 94.1612C275.876 92.6053 275.676 91.0006 275.864 89.3479C275.761 88.751 275.962 88.3503 276.466 88.1445Z" fill="#757374"/>
<path fill-rule="evenodd" clip-rule="evenodd" d="M275.864 89.3477C275.675 91.0004 275.876 92.6051 276.465 94.161C276.946 93.886 277.146 93.4847 277.067 92.9577C278.27 92.9577 279.474 92.9577 280.677 92.9577C280.677 93.5593 280.677 94.161 280.677 94.7627C278.07 94.7627 275.462 94.7627 272.855 94.7627C272.855 92.9577 272.855 91.1527 272.855 89.3477C273.858 89.3477 274.861 89.3477 275.864 89.3477Z" fill="#EBEBEC"/>
<path fill-rule="evenodd" clip-rule="evenodd" d="M281.881 89.3477C284.889 89.3477 287.897 89.3477 290.906 89.3477C290.906 91.1527 290.906 92.9577 290.906 94.7627C287.78 94.9558 284.772 94.7548 281.881 94.161C282.05 93.3921 282.452 92.7904 283.084 92.356C283.681 92.4595 284.082 92.2585 284.287 91.7543C282.482 91.9547 281.68 91.1527 281.881 89.3477Z" fill="#EAEAEA"/>
<path fill-rule="evenodd" clip-rule="evenodd" d="M284.287 91.7535C285.282 90.1669 285.583 90.3679 285.19 92.3552C284.959 92.0207 284.658 91.8203 284.287 91.7535Z" fill="#6B6B64"/>
<path fill-rule="evenodd" clip-rule="evenodd" d="M247.586 89.9492C254.004 89.9492 260.421 89.9492 266.839 89.9492C266.839 90.7512 266.839 91.5539 266.839 92.3559C260.421 92.3559 254.004 92.3559 247.586 92.3559C247.586 91.5539 247.586 90.7512 247.586 89.9492Z" fill="#828789"/>
<path fill-rule="evenodd" clip-rule="evenodd" d="M281.881 89.3477C281.681 91.1527 282.483 91.9547 284.288 91.7543C284.082 92.2585 283.681 92.4595 283.084 92.356C282.207 92.3963 281.405 92.1959 280.678 91.7543C280.801 90.3795 281.202 89.5775 281.881 89.3477Z" fill="#605C5A"/>
<path fill-rule="evenodd" clip-rule="evenodd" d="M280.677 91.7544C281.404 92.196 282.206 92.3963 283.084 92.356C282.452 92.7904 282.05 93.3921 281.881 94.161C281.479 94.3614 281.079 94.5623 280.677 94.7627C280.677 94.161 280.677 93.5594 280.677 92.9577C279.474 92.9577 278.271 92.9577 277.067 92.9577C277.931 91.4662 279.135 91.0655 280.677 91.7544Z" fill="#8F8D8B"/>
<path fill-rule="evenodd" clip-rule="evenodd" d="M159.141 94.1611C165.777 100.885 173.599 105.799 182.606 108.902C185.976 109.634 189.385 109.935 192.834 109.804C192.834 111.008 192.834 112.211 192.834 113.414C191.141 113.129 189.938 113.73 189.224 115.219C187.992 116.167 186.588 116.769 185.012 117.024C181.12 117.234 177.31 116.834 173.581 115.821C173.514 115.45 173.313 115.149 172.979 114.919C170.372 114.718 167.764 114.517 165.157 114.317C163.154 113.577 161.148 112.875 159.141 112.211C159.141 106.194 159.141 100.178 159.141 94.1611Z" fill="#AE4C20"/>
<path fill-rule="evenodd" clip-rule="evenodd" d="M302.939 98.3729C303.13 100.901 302.929 103.308 302.338 105.593C302.338 103.588 302.338 101.582 302.338 99.5763C282.942 98.7772 263.489 98.7772 243.976 99.5763C243.374 99.1749 242.773 98.7742 242.171 98.3729C262.504 97.5775 282.76 97.5775 302.939 98.3729Z" fill="#D3BFB9"/>
<path fill-rule="evenodd" clip-rule="evenodd" d="M302.337 99.5758C283.484 99.4753 264.632 99.5758 245.781 99.8767C245.377 100.47 245.377 101.172 245.781 101.982C244.72 101.524 244.119 100.721 243.976 99.5758C263.488 98.7768 282.942 98.7768 302.337 99.5758Z" fill="#9D644A"/>
<path fill-rule="evenodd" clip-rule="evenodd" d="M302.338 99.5758C302.338 101.581 302.338 103.587 302.338 105.592C302.338 107.197 302.338 108.801 302.338 110.406C302.138 110.406 301.937 110.406 301.736 110.406C296.602 111.766 291.388 112.769 286.093 113.414C286.16 113.043 286.36 112.742 286.695 112.512C291.486 111.696 296.3 110.794 301.135 109.804C301.135 106.595 301.135 103.386 301.135 100.177C284.487 100.077 267.841 100.177 251.196 100.478C251.998 101.08 251.998 101.682 251.196 102.283C251.726 102.709 252.127 103.211 252.4 103.787C250.001 103.712 247.796 103.111 245.781 101.982C245.378 101.172 245.378 100.47 245.781 99.8766C264.633 99.5758 283.485 99.4753 302.338 99.5758Z" fill="#A3522B"/>
<path fill-rule="evenodd" clip-rule="evenodd" d="M158.539 87.543C158.74 87.543 158.94 87.543 159.141 87.543C159.141 89.7493 159.141 91.955 159.141 94.1613C159.141 100.178 159.141 106.195 159.141 112.211C161.148 112.875 163.154 113.577 165.158 114.317C167.765 114.517 170.372 114.718 172.979 114.919C173.314 115.149 173.514 115.45 173.581 115.821C171.154 115.818 168.747 115.618 166.361 115.22C163.522 114.541 160.714 113.738 157.938 112.813C158.175 104.391 158.375 95.9675 158.539 87.543Z" fill="#A56242"/>
<path fill-rule="evenodd" clip-rule="evenodd" d="M158.539 76.7129C160.877 81.7807 163.585 86.7944 166.662 91.7546C168.952 94.8465 171.659 97.554 174.784 99.8771C180.51 103.367 186.527 104.069 192.834 101.983C192.834 104.59 192.834 107.198 192.834 109.805C189.385 109.935 185.976 109.634 182.606 108.902C173.599 105.799 165.777 100.885 159.141 94.1612C159.141 91.9549 159.141 89.7492 159.141 87.5429C159.315 83.8781 159.114 80.2681 158.539 76.7129Z" fill="#8B2B04"/>
<path fill-rule="evenodd" clip-rule="evenodd" d="M252.399 103.787C267.638 104.141 282.88 104.542 298.126 104.99C287.286 105.339 278.462 105.741 271.653 106.194C271.092 107.561 270.892 108.865 271.051 110.105C271.955 111.26 272.356 112.564 272.254 114.015C271.019 111.875 269.415 109.969 267.441 108.3C264.995 107.86 262.589 107.358 260.221 106.795C259.009 105.939 257.605 105.538 256.009 105.592C254.614 105.296 253.411 104.694 252.399 103.787Z" fill="#AC4E26"/>
<path fill-rule="evenodd" clip-rule="evenodd" d="M256.009 105.593C257.604 105.539 259.008 105.939 260.22 106.796C258.625 106.85 257.221 106.449 256.009 105.593Z" fill="#BF846D"/>
<path fill-rule="evenodd" clip-rule="evenodd" d="M286.093 113.414C284.686 114.341 283.082 114.741 281.28 114.617C278.83 114.457 276.424 114.658 274.06 115.219C273.599 114.55 272.998 114.149 272.255 114.016C272.356 112.564 271.956 111.261 271.051 110.105C270.892 108.865 271.092 107.562 271.653 106.194C278.462 105.741 287.286 105.34 298.126 104.991C282.881 104.542 267.639 104.141 252.4 103.787C252.127 103.211 251.726 102.709 251.196 102.283C251.998 101.682 251.998 101.08 251.196 100.478C267.841 100.177 284.487 100.077 301.135 100.177C301.135 103.386 301.135 106.595 301.135 109.804C296.3 110.794 291.486 111.696 286.695 112.512C286.36 112.742 286.16 113.043 286.093 113.414Z" fill="#AE4C1F"/>
<path fill-rule="evenodd" clip-rule="evenodd" d="M193.436 101.381C193.332 105.614 193.532 109.825 194.038 114.016C193.838 114.016 193.637 114.016 193.436 114.016C191.867 113.956 190.463 114.357 189.225 115.219C189.939 113.73 191.142 113.128 192.835 113.414C192.835 112.211 192.835 111.008 192.835 109.804C192.835 107.197 192.835 104.59 192.835 101.983C192.835 101.581 193.035 101.381 193.436 101.381Z" fill="#8F4B2D"/>
<path fill-rule="evenodd" clip-rule="evenodd" d="M301.736 110.406C301.936 110.406 302.137 110.406 302.337 110.406C303.541 110.406 304.744 110.406 305.947 110.406C309.514 124.589 312.823 138.828 315.875 153.125C317.864 162.08 319.368 171.105 320.387 180.2C306.148 180.2 291.909 180.2 277.669 180.2C276.313 159.378 274.307 138.621 271.652 117.927C271.987 117.319 272.388 116.818 272.856 116.423C275.755 116.512 278.562 116.111 281.279 115.22C286.249 114.332 291.263 113.63 296.321 113.114C298.349 112.501 300.154 111.598 301.736 110.406Z" fill="#FF2347"/>
<path fill-rule="evenodd" clip-rule="evenodd" d="M301.736 110.406C300.155 111.598 298.35 112.501 296.321 113.114C291.263 113.63 286.25 114.332 281.279 115.22C281.279 115.019 281.279 114.818 281.279 114.618C283.081 114.742 284.686 114.341 286.093 113.415C291.388 112.769 296.602 111.766 301.736 110.406Z" fill="#FF2347"/>
<path fill-rule="evenodd" clip-rule="evenodd" d="M157.938 112.812C160.714 113.738 163.522 114.54 166.361 115.219C169.649 116.119 173.058 116.821 176.589 117.325C179.39 117.625 182.198 117.726 185.013 117.626C188.237 117.225 191.045 116.022 193.436 114.016C193.637 114.016 193.837 114.016 194.038 114.016C195.043 114.167 195.945 114.568 196.745 115.219C197.95 118.266 199.053 121.274 200.054 124.244C199.976 124.689 200.076 125.09 200.355 125.447C203.032 127.018 204.937 129.225 206.071 132.066C205.554 134.405 204.35 136.311 202.461 137.782C185.121 144.943 168.074 144.342 151.319 135.977C145.785 131.534 144.582 126.219 147.709 120.032C148.921 117.11 150.526 114.403 152.523 111.91C154.44 111.551 156.245 111.852 157.938 112.812Z" fill="#A2222A"/>
<path fill-rule="evenodd" clip-rule="evenodd" d="M272.254 114.016C272.997 114.149 273.599 114.55 274.059 115.219C276.423 114.658 278.83 114.457 281.279 114.617C281.279 114.818 281.279 115.019 281.279 115.219C278.562 116.111 275.755 116.511 272.856 116.422C272.896 115.544 272.696 114.742 272.254 114.016Z" fill="#A05430"/>
<path fill-rule="evenodd" clip-rule="evenodd" d="M166.359 115.219C168.746 115.617 171.152 115.817 173.579 115.82C177.309 116.833 181.119 117.234 185.011 117.024C185.011 117.224 185.011 117.425 185.011 117.625C182.196 117.725 179.388 117.625 176.588 117.325C173.057 116.821 169.647 116.119 166.359 115.219Z" fill="#A2222A"/>
<path fill-rule="evenodd" clip-rule="evenodd" d="M193.436 114.016C191.044 116.022 188.236 117.225 185.013 117.626C185.013 117.425 185.013 117.224 185.013 117.024C186.588 116.768 187.993 116.167 189.224 115.219C190.463 114.357 191.867 113.955 193.436 114.016Z" fill="#A2222A"/>
<path fill-rule="evenodd" clip-rule="evenodd" d="M147.709 120.033C144.582 126.219 145.785 131.534 151.319 135.977C168.074 144.342 185.121 144.944 202.461 137.782C204.35 136.311 205.553 134.405 206.071 132.066C204.937 129.225 203.031 127.019 200.355 125.448C200.076 125.09 199.975 124.689 200.054 124.244C205.511 124.838 210.926 125.741 216.299 126.952C221.628 129.482 226.642 132.49 231.341 135.977C245.564 148.886 257.397 163.627 266.839 180.199C215.296 180.199 163.754 180.199 112.211 180.199C112.315 176.558 112.716 172.948 113.414 169.369C113.214 168.968 113.013 168.567 112.813 168.166C108.601 170.472 104.389 172.779 100.178 175.085C98.0176 176.658 96.0116 178.363 94.1609 180.199C62.6739 180.199 31.1864 180.199 -0.300781 180.199C-0.300781 171.976 -0.300781 163.754 -0.300781 155.531C18.8498 149.374 38.3037 144.36 58.0609 140.489C61.6173 139.712 65.2273 139.211 68.8909 138.985C73.6477 137.574 78.2606 136.271 82.7292 135.074C85.4187 136.018 87.7249 135.416 89.6484 133.269C90.2501 133.671 90.8517 134.071 91.4534 134.473C92.8914 133.418 94.3955 132.415 95.9659 131.464C96.3672 131.665 96.7679 131.866 97.1692 132.066C97.7197 130.574 98.6222 130.173 99.8767 130.863C101.392 129.569 102.896 128.365 104.389 127.253C118.336 121.994 132.776 119.587 147.709 120.033Z" fill="#FF2347"/>
<path fill-rule="evenodd" clip-rule="evenodd" d="M104.389 127.253C102.896 128.365 101.392 129.569 99.8764 130.863C98.6219 130.173 97.7194 130.574 97.1689 132.066C96.7676 131.866 96.3669 131.665 95.9655 131.465C94.3952 132.415 92.891 133.418 91.453 134.473C90.8514 134.072 90.2497 133.671 89.648 133.27C87.7245 135.416 85.4183 136.018 82.7289 135.075C78.2603 136.271 73.6473 137.575 68.8905 138.985C65.227 139.211 61.617 139.712 58.0605 140.49C67.3076 137.781 76.7339 135.475 86.3389 133.57C92.367 131.463 98.3836 129.357 104.389 127.253Z" fill="#FF2347"/>
<path fill-rule="evenodd" clip-rule="evenodd" d="M112.211 180.199C106.194 180.199 100.178 180.199 94.1611 180.199C96.0119 178.363 98.0178 176.658 100.178 175.085C104.389 172.779 108.601 170.472 112.813 168.166C113.013 168.567 113.214 168.968 113.414 169.369C112.717 172.947 112.315 176.557 112.211 180.199Z" fill="#F7F8F9"/>
</g>
<defs>
<clipPath id="clip0_724_11352">
<rect width="361" height="180.5" fill="white"/>
</clipPath>
</defs>
</svg>
