<svg width="30" height="30" viewBox="0 0 30 30" fill="none" xmlns="http://www.w3.org/2000/svg">
<rect width="30" height="30" rx="6.91211" fill="url(#paint0_linear_170_210)"/>
<path d="M25.6892 14.6249C25.6892 19.5535 20.9036 23.549 15.0004 23.549C14.3558 23.549 13.7246 23.5014 13.1115 23.4101C12.3373 23.2949 11.5423 23.512 10.9166 23.9823C10.6783 24.1615 10.4133 24.3417 10.1433 24.4902C9.26589 24.9728 8.319 25.0952 8.16018 24.9439C8.00136 24.7927 8.4795 24.423 8.91646 23.8515C8.98791 23.7581 9.05756 23.6561 9.12409 23.5508C9.5161 22.9303 9.19666 22.1482 8.57537 21.7575C5.98582 20.1289 4.31152 17.5401 4.31152 14.6249C4.31152 9.69617 9.09708 5.70068 15.0004 5.70068C20.9036 5.70068 25.6892 9.69617 25.6892 14.6249Z" fill="#1B7817"/>
<path d="M26.3303 14.234C26.3303 19.4584 21.2576 23.6937 15.0001 23.6937C14.3169 23.6937 13.6478 23.6432 12.9979 23.5464C12.1773 23.4243 11.3345 23.6544 10.6713 24.1529C10.4187 24.3428 10.1378 24.5339 9.85163 24.6913C8.92155 25.2029 7.91784 25.3326 7.74949 25.1723C7.58114 25.0119 8.08797 24.62 8.55116 24.0143C8.62689 23.9153 8.70072 23.8071 8.77124 23.6955C9.18677 23.0378 8.84817 22.2088 8.1896 21.7946C5.44467 20.0683 3.66992 17.3242 3.66992 14.234C3.66992 9.00963 8.74261 4.77441 15.0001 4.77441C21.2576 4.77441 26.3303 9.00963 26.3303 14.234Z" fill="#C3F0B9"/>
<g filter="url(#filter0_i_170_210)">
<path d="M26.3303 14.234C26.3303 19.4584 21.2576 23.6937 15.0001 23.6937C12.9657 23.6937 11.0566 23.246 9.40626 22.4623C5.98041 20.8353 3.66992 17.7599 3.66992 14.234C3.66992 9.00963 8.74261 4.77441 15.0001 4.77441C21.2576 4.77441 26.3303 9.00963 26.3303 14.234Z" fill="#EDF3EC"/>
<path d="M26.3303 14.234C26.3303 19.4584 21.2576 23.6937 15.0001 23.6937C12.9657 23.6937 11.0566 23.246 9.40626 22.4623C5.98041 20.8353 3.66992 17.7599 3.66992 14.234C3.66992 9.00963 8.74261 4.77441 15.0001 4.77441C21.2576 4.77441 26.3303 9.00963 26.3303 14.234Z" fill="url(#paint1_radial_170_210)"/>
<path d="M26.3303 14.234C26.3303 19.4584 21.2576 23.6937 15.0001 23.6937C12.9657 23.6937 11.0566 23.246 9.40626 22.4623C5.98041 20.8353 3.66992 17.7599 3.66992 14.234C3.66992 9.00963 8.74261 4.77441 15.0001 4.77441C21.2576 4.77441 26.3303 9.00963 26.3303 14.234Z" fill="url(#paint2_radial_170_210)"/>
<path d="M26.3303 14.234C26.3303 19.4584 21.2576 23.6937 15.0001 23.6937C12.9657 23.6937 11.0566 23.246 9.40626 22.4623C5.98041 20.8353 3.66992 17.7599 3.66992 14.234C3.66992 9.00963 8.74261 4.77441 15.0001 4.77441C21.2576 4.77441 26.3303 9.00963 26.3303 14.234Z" fill="url(#paint3_radial_170_210)"/>
<path d="M26.3303 14.234C26.3303 19.4584 21.2576 23.6937 15.0001 23.6937C12.9657 23.6937 11.0566 23.246 9.40626 22.4623C5.98041 20.8353 3.66992 17.7599 3.66992 14.234C3.66992 9.00963 8.74261 4.77441 15.0001 4.77441C21.2576 4.77441 26.3303 9.00963 26.3303 14.234Z" fill="url(#paint4_radial_170_210)" fill-opacity="0.1"/>
</g>
<mask id="mask0_170_210" style="mask-type:alpha" maskUnits="userSpaceOnUse" x="3" y="4" width="24" height="22">
<path d="M26.3303 14.234C26.3303 19.4584 21.2576 23.6937 15.0001 23.6937C14.3169 23.6937 13.6478 23.6432 12.9979 23.5464C12.1773 23.4243 11.3345 23.6544 10.6713 24.1529C10.4187 24.3428 10.1378 24.5339 9.85163 24.6913C8.92155 25.2029 7.91784 25.3326 7.74949 25.1723C7.58114 25.0119 8.08797 24.62 8.55116 24.0143C8.62689 23.9153 8.70072 23.8071 8.77124 23.6955C9.18677 23.0378 8.84817 22.2088 8.1896 21.7946C5.44467 20.0683 3.66992 17.3242 3.66992 14.234C3.66992 9.00963 8.74261 4.77441 15.0001 4.77441C21.2576 4.77441 26.3303 9.00963 26.3303 14.234Z" fill="white"/>
</mask>
<g mask="url(#mask0_170_210)">
<g filter="url(#filter1_f_170_210)">
<path d="M10.1807 21.7396C10.9645 23.1648 8.50608 25.5519 7.50849 24.9997C6.51091 24.4474 6.89331 22.755 7.31251 22.0424C7.73172 21.3298 9.39684 20.3144 10.1807 21.7396Z" fill="url(#paint5_radial_170_210)"/>
</g>
<g filter="url(#filter2_f_170_210)">
<path d="M7.48199 25.0123C8.46975 25.9295 11.9691 23.889 11.4747 22.0308C11.1773 20.913 9.92132 20.4736 10.3559 22.0308C10.7565 23.4662 8.51947 25.5556 7.57948 25.0352C7.48716 24.9841 7.40666 24.9232 7.33691 24.8542C7.37982 24.9094 7.42806 24.9622 7.48199 25.0123Z" fill="url(#paint6_radial_170_210)" fill-opacity="0.9"/>
</g>
</g>
<defs>
<filter id="filter0_i_170_210" x="3.66992" y="3.20672" width="22.6602" height="20.4871" filterUnits="userSpaceOnUse" color-interpolation-filters="sRGB">
<feFlood flood-opacity="0" result="BackgroundImageFix"/>
<feBlend mode="normal" in="SourceGraphic" in2="BackgroundImageFix" result="shape"/>
<feColorMatrix in="SourceAlpha" type="matrix" values="0 0 0 0 0 0 0 0 0 0 0 0 0 0 0 0 0 0 127 0" result="hardAlpha"/>
<feOffset dy="-2.13777"/>
<feGaussianBlur stdDeviation="0.783848"/>
<feComposite in2="hardAlpha" operator="arithmetic" k2="-1" k3="1"/>
<feColorMatrix type="matrix" values="0 0 0 0 0.766738 0 0 0 0 0.970833 0 0 0 0 0.728125 0 0 0 0.7 0"/>
<feBlend mode="normal" in2="shape" result="effect1_innerShadow_170_210"/>
</filter>
<filter id="filter1_f_170_210" x="6.77006" y="20.9141" width="3.66885" height="4.27384" filterUnits="userSpaceOnUse" color-interpolation-filters="sRGB">
<feFlood flood-opacity="0" result="BackgroundImageFix"/>
<feBlend mode="normal" in="SourceGraphic" in2="BackgroundImageFix" result="shape"/>
<feGaussianBlur stdDeviation="0.0534442" result="effect1_foregroundBlur_170_210"/>
</filter>
<filter id="filter2_f_170_210" x="6.8381" y="20.5222" width="5.18317" height="5.21589" filterUnits="userSpaceOnUse" color-interpolation-filters="sRGB">
<feFlood flood-opacity="0" result="BackgroundImageFix"/>
<feBlend mode="normal" in="SourceGraphic" in2="BackgroundImageFix" result="shape"/>
<feGaussianBlur stdDeviation="0.249406" result="effect1_foregroundBlur_170_210"/>
</filter>
<linearGradient id="paint0_linear_170_210" x1="15" y1="0" x2="15" y2="30" gradientUnits="userSpaceOnUse">
<stop stop-color="#83F281"/>
<stop offset="1" stop-color="#59C14C"/>
</linearGradient>
<radialGradient id="paint1_radial_170_210" cx="0" cy="0" r="1" gradientUnits="userSpaceOnUse" gradientTransform="translate(15.0001 18.5424) rotate(-90) scale(11.8388 21.9079)">
<stop stop-color="#C5D9BF"/>
<stop offset="1" stop-color="#C5D9BF" stop-opacity="0"/>
</radialGradient>
<radialGradient id="paint2_radial_170_210" cx="0" cy="0" r="1" gradientTransform="matrix(1.14014 10.0386 -12.1635 1.17966 15.0001 9.33141)" gradientUnits="userSpaceOnUse">
<stop offset="0.53925" stop-color="#BAD6B2" stop-opacity="0.13"/>
<stop offset="1" stop-color="#A9D09E"/>
</radialGradient>
<radialGradient id="paint3_radial_170_210" cx="0" cy="0" r="1" gradientTransform="matrix(19.2221 -2.26991 2.05542 14.9511 7.10817 11.139)" gradientUnits="userSpaceOnUse">
<stop stop-color="white"/>
<stop offset="1" stop-color="white" stop-opacity="0"/>
</radialGradient>
<radialGradient id="paint4_radial_170_210" cx="0" cy="0" r="1" gradientTransform="matrix(-0.427554 -8.99732 10.7764 -0.43988 14.5725 14.234)" gradientUnits="userSpaceOnUse">
<stop stop-color="#EEFDEC" stop-opacity="0"/>
<stop offset="1" stop-color="#EEFDEC"/>
</radialGradient>
<radialGradient id="paint5_radial_170_210" cx="0" cy="0" r="1" gradientUnits="userSpaceOnUse" gradientTransform="translate(8.17743 24.198) rotate(-62.4142) scale(3.57775 1.92352)">
<stop stop-color="white"/>
<stop offset="0.890251" stop-color="white" stop-opacity="0"/>
</radialGradient>
<radialGradient id="paint6_radial_170_210" cx="0" cy="0" r="1" gradientTransform="matrix(2.45843 -2.92162 1.57077 1.32173 9.05007 24.762)" gradientUnits="userSpaceOnUse">
<stop stop-color="#8AC983"/>
<stop offset="0.890251" stop-color="#8AC983" stop-opacity="0"/>
</radialGradient>
</defs>
</svg>
